<?xml version="1.0" standalone="no"?>
<!DOCTYPE svg PUBLIC "-//W3C//DTD SVG 1.1//EN" "http://www.w3.org/Graphics/SVG/1.1/DTD/svg11.dtd" >
<svg xmlns="http://www.w3.org/2000/svg" xmlns:xlink="http://www.w3.org/1999/xlink" version="1.1">
<metadata></metadata>
<defs>
<font id="neogram_extended_lightExLt" horiz-adv-x="788" >
<font-face units-per-em="1000" ascent="783" descent="-217" />
<missing-glyph horiz-adv-x="300" />
<glyph unicode="ffi" horiz-adv-x="877" d="M232 702h59v-33h-45q-33 0 -53 -15t-20 -41v-113h118v-33h-118v-467h-46v467h-98v33h98v113q0 41 29.5 65t75.5 24zM573 702h59v-33h-45q-33 0 -53 -15t-20 -41v-113h118v-33h-118v-467h-46v467h-98v33h98v113q0 41 29.5 65t75.5 24zM765 594v108h46v-108h-46zM765 0v500 h46v-500h-46z" />
<glyph unicode="ffl" horiz-adv-x="879" d="M232 702h59v-33h-45q-33 0 -53 -15t-20 -41v-113h118v-33h-118v-467h-46v467h-98v33h98v113q0 41 29.5 65t75.5 24zM573 702h59v-33h-45q-33 0 -53 -15t-20 -41v-113h118v-33h-118v-467h-46v467h-98v33h98v113q0 41 29.5 65t75.5 24zM767 0v700h47v-700h-47z" />
<glyph unicode="fi" horiz-adv-x="550" d="M246 702h59v-33h-45q-33 0 -53 -15t-20 -41v-113h118v-33h-118v-467h-46v467h-98v33h98v113q0 41 29.5 65t75.5 24zM431 594v108h46v-108h-46zM431 0v500h46v-500h-46z" />
<glyph unicode="fl" horiz-adv-x="552" d="M246 702h59v-33h-45q-33 0 -53 -15t-20 -41v-113h118v-33h-118v-467h-46v467h-98v33h98v113q0 41 29.5 65t75.5 24zM431 0v700h46v-700h-46z" />
<glyph unicode=" "  horiz-adv-x="300" />
<glyph unicode="&#x09;" horiz-adv-x="300" />
<glyph unicode="&#xa0;" horiz-adv-x="300" />
<glyph unicode="!" horiz-adv-x="182" d="M72 210v492h47v-492h-47zM72 0l2 117h42l3 -117h-47z" />
<glyph unicode="&#x22;" horiz-adv-x="318" d="M74 470v236h40v-236h-40zM206 470v236h40v-236h-40z" />
<glyph unicode="#" horiz-adv-x="634" d="M436 457l62 243h37l-62 -243h117v-38h-127l-53 -206h180v-38h-190l-44 -175h-37l44 175h-166l-44 -175h-37l44 175h-120v38h130l53 206h-183v38h192l63 243h36l-62 -243h167zM207 213h166l53 206h-166z" />
<glyph unicode="$" horiz-adv-x="757" d="M359 716v83h40v-83q280 -6 280 -176v-19h-46v21q0 134 -255 134q-250 0 -250 -134v-19q0 -62 110 -95l319 -87q145 -40 145 -154v-16q0 -84 -80 -133.5t-223 -53.5v-83h-40v83q-142 3 -222.5 53t-80.5 134v51h47v-52q0 -67 71.5 -106.5t203.5 -39.5q131 0 204 39.5 t73 106.5v17q0 84 -115 115l-323 88q-65 18 -100 51.5t-35 79.5v19q0 172 277 176z" />
<glyph unicode="%" horiz-adv-x="963" d="M176 -36l556 738h47l-557 -738h-46zM56 489v41q0 152 180 152t180 -152v-41q0 -67 -49 -107t-131 -40t-131 40.5t-49 106.5zM381 489v41q0 121 -145 121t-145 -121v-41q0 -54 38.5 -85.5t106.5 -31.5q67 0 106 32t39 85zM548 133v42q0 151 179 151q181 0 181 -151v-42 q0 -66 -49 -106.5t-132 -40.5q-81 0 -130 40.5t-49 106.5zM873 133v42q0 120 -146 120q-144 0 -144 -120v-42q0 -52 38.5 -84.5t105.5 -32.5t106.5 32.5t39.5 84.5z" />
<glyph unicode="&#x26;" horiz-adv-x="827" d="M154 549v39q0 125 174 125q182 0 182 -125v-39q0 -67 -62 -97l-114 -57l303 -266q54 55 104 166l36 -12q-53 -121 -110 -181l117 -102h-61l-86 76q-107 -92 -284 -92q-135 0 -214 49t-79 131v43q0 99 91 145l111 55l-76 66q-32 29 -32 76zM472 550v37q0 88 -143 88 q-134 0 -134 -88v-37q0 -33 25 -55l82 -72l125 62q45 24 45 65zM604 104l-310 272l-118 -59q-71 -35 -71 -111v-42q0 -63 66 -101t180 -39q161 0 253 80z" />
<glyph unicode="'" horiz-adv-x="181" d="M74 470v236h40v-236h-40z" />
<glyph unicode="(" horiz-adv-x="271" d="M188 731h40q-138 -221 -138 -450q0 -240 139 -458h-40q-146 233 -146 458q0 229 145 450z" />
<glyph unicode=")" horiz-adv-x="271" d="M44 731h40q145 -221 145 -450q0 -122 -36.5 -231t-109.5 -227h-40q139 218 139 458q0 228 -138 450z" />
<glyph unicode="*" horiz-adv-x="447" d="M201 574v126h40v-127l145 40l18 -37l-139 -38l90 -98l-35 -23l-98 107l-88 -106l-37 18l83 102l-140 38l18 37z" />
<glyph unicode="+" horiz-adv-x="550" d="M254 334v193h41v-193h230v-38h-230v-193h-41v193h-229v38h229z" />
<glyph unicode="," horiz-adv-x="183" d="M76 -16v128h47v-128q0 -33 -21.5 -55t-60.5 -29v32q35 17 35 52z" />
<glyph unicode="-" horiz-adv-x="455" d="M74 296v38h308v-38h-308z" />
<glyph unicode="." horiz-adv-x="187" d="M74 0v112h46v-112h-46z" />
<glyph unicode="/" horiz-adv-x="468" d="M27 0l374 700h43l-373 -700h-44z" />
<glyph unicode="0" horiz-adv-x="725" d="M65 285v96q0 310 296 310q298 0 298 -310v-96q0 -137 -79 -219q-80 -83 -219 -83q-137 0 -217 83q-79 82 -79 219zM611 284v97q0 141 -62.5 205.5t-187.5 64.5q-124 0 -186 -65t-62 -205v-97q0 -121 66 -191t182 -70q118 0 184 70t66 191z" />
<glyph unicode="1" horiz-adv-x="347" d="M228 683h45v-683h-49v636q-35 -40 -93.5 -70.5t-119.5 -44.5v37q75 18 120 46q47 28 97 79z" />
<glyph unicode="2" horiz-adv-x="647" d="M118 489h-46v48q0 154 249 154q259 0 259 -154v-33q0 -59 -45 -117q-23 -27 -52 -49q-50 -40 -127 -86q-9 -6 -33.5 -20.5t-34.5 -20.5q-26 -15 -60 -39q-86 -59 -121 -130h473v-42h-537q13 85 68 137q27 27 38 36q18 15 49 34q35 24 51 32l57 33l8 4q76 46 125 82 q91 67 96 146v33q0 115 -214 115q-203 0 -203 -115v-48z" />
<glyph unicode="3" horiz-adv-x="719" d="M149 499h-48v40q0 152 255 152q258 0 258 -152v-43q0 -45 -33.5 -77.5t-93.5 -47.5q169 -28 169 -158v-57q0 -78 -80.5 -124.5t-219.5 -46.5q-137 0 -216.5 46.5t-79.5 124.5v50h48v-50q0 -61 66 -97t182 -36q121 0 186 36t65 97v58q0 132 -234 135h-39v36h34 q93 1 145 31t52 79v44q0 114 -209 114q-105 0 -156 -27.5t-51 -86.5v-40z" />
<glyph unicode="4" horiz-adv-x="681" d="M28 211l408 472h53v-472h149v-39h-149v-172h-45v172h-416v39zM81 211h363v425z" />
<glyph unicode="5" horiz-adv-x="671" d="M64 317l90 366h431v-40h-393l-76 -289q57 93 235 93q274 0 274 -202v-59q0 -93 -76 -148t-207 -55q-129 0 -205 55q-75 56 -75 148v33h48v-33q0 -75 62 -119t170 -44q111 0 172.5 44.5t61.5 118.5v59q0 168 -234 168q-176 0 -220 -96h-58z" />
<glyph unicode="6" horiz-adv-x="694" d="M69 186v295q0 114 70 162t201 48q226 0 263 -157h-42q-32 122 -220 120q-109 0 -166 -39t-57 -131v-129q53 99 234 99q130 2 205 -47t75 -155v-66q0 -93 -76 -148t-206 -55q-129 0 -205 55t-76 148zM584 186v66q0 168 -234 168q-233 0 -233 -168v-66q0 -75 62.5 -119 t170.5 -44q110 0 172 44.5t62 118.5z" />
<glyph unicode="7" horiz-adv-x="584" d="M28 643v40h526v-41q-169 -140 -260 -289q-97 -159 -97 -353h-48q0 354 349 643h-470z" />
<glyph unicode="8" horiz-adv-x="723" d="M104 495v44q0 152 256 152q257 0 257 -152v-44q0 -45 -33.5 -77.5t-93.5 -47.5q169 -30 169 -158v-56q0 -78 -80.5 -124.5t-218.5 -46.5q-137 0 -217 46.5t-80 124.5v56q0 128 166 158q-60 15 -92.5 47.5t-32.5 77.5zM569 497v42q0 113 -209 113q-106 0 -157.5 -27 t-51.5 -86v-42q0 -51 55.5 -80.5t153.5 -29.5q101 0 155 29t54 81zM611 156v57q0 135 -251 135q-126 0 -187.5 -32.5t-61.5 -102.5v-57q0 -60 66.5 -95.5t182.5 -35.5q117 0 184 35.5t67 95.5z" />
<glyph unicode="9" horiz-adv-x="695" d="M63 432v55q0 93 76 148q77 56 207 56q128 0 204 -56q76 -55 76 -148v-292q0 -111 -68.5 -161.5t-202.5 -50.5q-225 0 -263 156h42q33 -120 220 -120q109 0 166.5 39t57.5 131v139q-29 -52 -85.5 -75.5t-149.5 -23.5q-280 0 -280 203zM578 432v55q0 75 -62 119.5 t-170 44.5q-110 0 -172.5 -44t-62.5 -120v-55q0 -169 235 -169q115 0 173.5 40.5t58.5 128.5z" />
<glyph unicode=":" horiz-adv-x="187" d="M74 388v112h46v-112h-46zM74 0v112h46v-112h-46z" />
<glyph unicode=";" horiz-adv-x="174" d="M63 -16v128h46v-128q0 -33 -21 -55t-60 -29v32q35 17 35 52zM63 388v112h46v-112h-46z" />
<glyph unicode="&#x3c;" horiz-adv-x="692" d="M21 304v45l607 246v-43l-557 -226l557 -224v-44z" />
<glyph unicode="=" horiz-adv-x="594" d="M47 388v38h500v-38h-500zM47 269v38h500v-38h-500z" />
<glyph unicode="&#x3e;" horiz-adv-x="696" d="M622 326l-557 226v43l607 -246v-45l-607 -246v44z" />
<glyph unicode="?" horiz-adv-x="542" d="M90 546h-47v38q0 133 224 133q234 0 234 -133v-25q0 -60 -38 -103q-11 -13 -31 -33q-8 -7 -19.5 -16t-20.5 -15l-9 -6q-64 -52 -88 -94q-23 -40 -24 -102h-46q1 72 27 120q27 50 97 105l16 12q27 19 54 46q35 35 35 86v25q0 94 -187 94q-177 0 -177 -94v-38zM224 0v115 h48v-115h-48z" />
<glyph unicode="@" horiz-adv-x="721" d="M65 219v89q0 310 300 310q301 0 301 -310v-89q0 -73 -22 -127h-131v61q-49 -60 -148 -60q-81 0 -130 40.5t-49 106.5v43q0 151 179 151q181 0 181 -151v-163h70q14 51 14 99v89q0 279 -265 279q-264 0 -264 -279v-89q0 -123 70 -197q71 -74 194 -74q85 0 141 35l2 -36 q-64 -30 -143 -30q-139 0 -220 83q-80 83 -80 219zM511 240v43q0 120 -146 120q-144 0 -144 -120v-43q0 -52 39 -84.5t105 -32.5q67 0 106.5 32.5t39.5 84.5z" />
<glyph unicode="A" horiz-adv-x="834" d="M45 0l347 700h51l347 -700h-53l-104 214h-431l-105 -214h-52zM216 251h403l-202 413z" />
<glyph unicode="B" horiz-adv-x="732" d="M75 0v700h314q130 0 195 -37.5t65 -119.5v-42q0 -52 -37 -88t-106 -50q76 -15 118.5 -53.5t42.5 -98.5v-48q0 -75 -81 -119q-82 -44 -218 -44h-293zM602 499v42q0 120 -210 120h-269v-278h269q101 0 155.5 31t54.5 85zM620 167v46q0 132 -249 132h-248v-306h248 q114 0 181.5 35.5t67.5 92.5z" />
<glyph unicode="C" horiz-adv-x="814" d="M65 300v92q0 167 92.5 245.5t273.5 78.5q145 0 224 -52.5t103 -169.5h-46q-24 97 -90 140t-191 43q-160 0 -239.5 -68.5t-79.5 -216.5v-92q0 -129 83.5 -203t235.5 -74q223 0 279 182h47q-55 -222 -326 -222q-172 0 -269 85t-97 232z" />
<glyph unicode="D" horiz-adv-x="791" d="M75 0v700h268q383 0 383 -311v-86q0 -137 -102 -220q-103 -83 -281 -83h-268zM677 303v86q0 142 -85.5 206.5t-248.5 64.5h-220v-620h220q158 0 246 72t88 191z" />
<glyph unicode="E" horiz-adv-x="662" d="M75 0v700h561v-40h-513v-277h493v-39h-493v-304h519v-40h-567z" />
<glyph unicode="F" horiz-adv-x="623" d="M75 0v700h527v-40h-479v-277h459v-39h-459v-344h-48z" />
<glyph unicode="G" horiz-adv-x="866" d="M65 300v92q0 167 95 245.5t281 78.5q309 0 359 -219h-49q-46 180 -310 180q-165 0 -246.5 -68.5t-81.5 -216.5v-92q0 -126 85 -202q86 -75 243 -75q146 0 226.5 68t83.5 189v28h-302v35h348v-343h-36l-1 153q-78 -170 -319 -170q-176 0 -277 86q-99 87 -99 231z" />
<glyph unicode="H" horiz-adv-x="778" d="M656 383v317h48v-700h-48v344h-533v-344h-48v700h48v-317h533z" />
<glyph unicode="I" horiz-adv-x="192" d="M75 0v700h48v-700h-48z" />
<glyph unicode="J" horiz-adv-x="474" d="M354 201v499h49v-499q0 -98 -72 -158t-194 -60q-68 0 -126 23v36q48 -19 119 -19h8q104 0 160 47.5t56 130.5z" />
<glyph unicode="K" horiz-adv-x="800" d="M123 299l546 401h70l-406 -298l404 -402h-62l-378 374l-174 -127v-247h-48v700h48v-401z" />
<glyph unicode="L" horiz-adv-x="613" d="M75 0v700h48v-660h479v-40h-527z" />
<glyph unicode="M" horiz-adv-x="928" d="M463 48l326 652h64v-700h-44v635l-322 -635h-48l-320 636v-636h-45v700h64z" />
<glyph unicode="N" d="M665 63v637h48v-700h-55l-536 637v-637h-48v700h55z" />
<glyph unicode="O" horiz-adv-x="884" d="M65 300v92q0 167 95 245.5t281 78.5t281.5 -78.5t95.5 -245.5v-92q2 -142 -100 -230t-277 -87q-176 0 -277 86q-99 87 -99 231zM770 300v92q0 148 -82 216.5t-247 68.5t-246.5 -68.5t-81.5 -216.5v-92q0 -126 85 -202q86 -75 243 -75t243 75q86 77 86 202z" />
<glyph unicode="P" horiz-adv-x="674" d="M75 0v700h270q300 0 300 -173v-49q0 -76 -81 -123q-79 -46 -219 -46h-222v-309h-48zM598 479v47q0 135 -251 135h-224v-313h224q117 0 184 35.5t67 95.5z" />
<glyph unicode="Q" horiz-adv-x="886" d="M65 299v91q0 167 95 246t281 79q377 0 377 -325v-91q0 -159 -117 -242l118 -81l-27 -26l-122 84q-94 -52 -229 -52q-177 0 -277 86q-99 87 -99 231zM770 299v91q0 148 -82 216.5t-247 68.5t-246.5 -68.5t-81.5 -216.5v-91q0 -126 85 -202q86 -75 243 -75q112 0 189 41 l-142 99l27 25l148 -103q107 75 107 215z" />
<glyph unicode="R" horiz-adv-x="753" d="M75 0v700h303q138 0 213 -41.5t75 -125.5v-46q0 -63 -55.5 -104t-154.5 -53l234 -330h-58l-229 323h-280v-323h-48zM619 488v44q0 129 -240 129h-256v-299h256q110 0 175 34.5t65 91.5z" />
<glyph unicode="S" horiz-adv-x="770" d="M89 521v19q0 176 295 176q302 0 302 -176v-19h-46v21q0 134 -256 134q-249 0 -249 -134v-19q0 -30 28.5 -54.5t80.5 -40.5l320 -87q144 -41 144 -154v-16q0 -87 -86 -137.5t-238 -50.5q-150 0 -235.5 50.5t-85.5 137.5v51h46v-52q0 -67 72.5 -106.5t202.5 -39.5 q131 0 204.5 39.5t73.5 106.5v17q0 84 -115 115l-323 88q-135 37 -135 131z" />
<glyph unicode="T" horiz-adv-x="704" d="M25 660v40h655v-40h-307v-660h-49v660h-299z" />
<glyph unicode="U" d="M670 250v450h48v-450q0 -120 -87 -194q-86 -73 -238 -73t-238 73q-87 74 -87 194v450h48v-450q0 -105 73.5 -166t203.5 -61t203.5 61t73.5 166z" />
<glyph unicode="V" horiz-adv-x="774" d="M388 41l290 659h52l-317 -700h-51l-317 700h53z" />
<glyph unicode="W" horiz-adv-x="1208" d="M866 47l235 653h52l-261 -700h-54l-235 641l-233 -641h-55l-260 700h51l235 -653l233 653h60z" />
<glyph unicode="X" horiz-adv-x="875" d="M436 382l308 318h65l-340 -350l341 -350h-64l-310 318l-308 -318h-64l340 350l-339 350h65z" />
<glyph unicode="Y" horiz-adv-x="900" d="M448 314l324 386h63l-362 -429v-271h-48v271l-361 429h62z" />
<glyph unicode="Z" horiz-adv-x="666" d="M41 660v40h585v-34l-525 -626h531v-40h-597v34l524 626h-518z" />
<glyph unicode="[" horiz-adv-x="234" d="M74 -180v928h149v-33h-103v-862h103v-33h-149z" />
<glyph unicode="\" horiz-adv-x="465" d="M398 0l-374 700h43l374 -700h-43z" />
<glyph unicode="]" horiz-adv-x="234" d="M12 715v33h150v-928h-150v33h103v862h-103z" />
<glyph unicode="^" horiz-adv-x="601" d="M47 328l226 372h54l227 -372h-47l-207 337l-207 -337h-46z" />
<glyph unicode="_" horiz-adv-x="783" d="M74 -182v38h636v-38h-636z" />
<glyph unicode="`" horiz-adv-x="239" d="M159 581l-133 125h47l128 -125h-42z" />
<glyph unicode="a" horiz-adv-x="656" d="M136 372h-43q34 145 244 145q126 0 188.5 -45.5t62.5 -149.5v-322h-40l-2 108q-27 -54 -99 -89.5t-157 -35.5q-107 0 -168 43q-60 43 -59 110q0 43 22 68.5t62 44.5q30 13 84 20q22 4 48 5q40 2 46 2q6 1 23 1.5t25 0.5q34 0 44 1q56 3 74 6q51 12 51 34v13 q0 151 -205 152q-173 0 -201 -112zM542 180v92q-14 -10 -42 -15q-37 -6 -50 -7l-69 -3h-6q-51 -1 -81 -4q-24 -1 -78 -10q-32 -5 -64 -24q-40 -22 -43 -75q1 -52 51.5 -84.5t137.5 -32.5q98 0 168 46q71 46 76 117z" />
<glyph unicode="b" horiz-adv-x="656" d="M70 214v486h46v-295q57 112 236 112q261 0 261 -237v-66q0 -104 -73 -168q-74 -63 -199 -63t-199 63q-72 64 -72 168zM566 214v66q0 103 -56.5 151t-169.5 48q-112 0 -168 -48t-56 -151v-66q0 -89 59.5 -141t165.5 -52q107 0 166 52.5t59 140.5z" />
<glyph unicode="c" horiz-adv-x="643" d="M65 213v67q0 237 271 237q109 0 171 -39.5t79 -124.5h-40q-30 126 -210 126q-112 0 -168.5 -48t-56.5 -151v-67q0 -89 59 -140.5t166 -51.5q84 0 138 32.5t73 92.5h39q-19 -78 -83.5 -120.5t-166.5 -42.5q-126 0 -198.5 62t-72.5 168z" />
<glyph unicode="d" horiz-adv-x="660" d="M539 405v296h47v-701h-41l-2 103q-68 -119 -236 -119q-120 0 -192 63t-72 169v65q0 235 261 237q178 0 235 -113zM539 216v65q0 104 -56 151.5t-169 47.5q-112 0 -168.5 -48t-56.5 -151v-65q0 -89 60 -141t166 -52t165 52t59 141z" />
<glyph unicode="e" horiz-adv-x="683" d="M65 214v66q0 237 278 237q280 0 280 -237v-15l-1 -11h-511v-44q0 -89 61.5 -141t170.5 -52q98 0 159.5 43.5t70.5 116.5h46q-14 -91 -86.5 -142.5t-189.5 -51.5q-131 0 -204 63q-74 63 -74 168zM111 284h465q0 103 -58.5 151t-175.5 48q-115 0 -173 -48t-58 -151z" />
<glyph unicode="f" horiz-adv-x="320" d="M232 702h59v-33h-45q-33 0 -53 -15t-20 -41v-113h118v-33h-118v-467h-46v467h-98v33h98v113q0 41 29.5 65t75.5 24z" />
<glyph unicode="g" horiz-adv-x="670" d="M65 231v54q0 108 66 169.5t185 61.5q168 0 236 -119l2 103h41v-500q0 -104 -62.5 -149.5t-188.5 -45.5q-216 0 -244 142h39q27 -111 205 -111q104 0 154 36.5t50 118.5v118q-57 -112 -235 -112q-123 0 -185.5 56.5t-62.5 177.5zM548 233v54q0 89 -59 141t-165 52 q-104 0 -158.5 -51t-54.5 -142v-54q0 -105 52 -152t161 -47q112 0 168 48t56 151z" />
<glyph unicode="h" horiz-adv-x="623" d="M75 0v700h45v-299q59 116 233 116q118 0 170.5 -54.5t52.5 -179.5v-283h-46v280q0 108 -42 153q-40 46 -146 46q-222 0 -222 -199v-280h-45z" />
<glyph unicode="i" horiz-adv-x="183" d="M74 594v108h46v-108h-46zM74 0v500h46v-500h-46z" />
<glyph unicode="j" horiz-adv-x="210" d="M96 594v108h47v-108h-47zM96 -87v587h47v-593q0 -72 -90 -84q-23 -3 -47 -3v35q6 0 36 3q54 9 54 55z" />
<glyph unicode="k" horiz-adv-x="597" d="M75 0v700h46v-458l347 259h67l-267 -198l306 -303h-61l-278 277l-114 -85v-192h-46z" />
<glyph unicode="l" horiz-adv-x="190" d="M75 0v700h46v-700h-46z" />
<glyph unicode="m" horiz-adv-x="961" d="M75 500h43v-100q27 61 74 89t121 28q128 0 167 -92q51 92 195 92q114 0 164 -54.5t50 -179.5v-283h-47v280q-2 113 -38.5 155.5t-139.5 43.5q-73 0 -113 -23.5t-55 -74.5q9 -44 9 -101v-280h-46v280q0 111 -35 155t-120 44q-182 0 -182 -199v-280h-47v500z" />
<glyph unicode="n" horiz-adv-x="648" d="M75 500h42v-99q59 116 234 116q118 0 171.5 -55t53.5 -179v-283h-46v280q0 108 -42 153q-40 46 -146 46q-222 0 -222 -199v-280h-45v500z" />
<glyph unicode="o" horiz-adv-x="687" d="M65 214v66q0 237 278 237q280 0 280 -237v-66q0 -104 -75 -168q-75 -63 -205 -63q-129 0 -204 63q-74 63 -74 168zM577 214v66q0 103 -58.5 151t-175.5 48q-116 0 -173.5 -48t-57.5 -151v-66q0 -89 61 -141t170 -52t171.5 52.5t62.5 140.5z" />
<glyph unicode="p" horiz-adv-x="661" d="M75 500h41l1 -102q68 119 236 119q121 0 193 -63t72 -169v-66q0 -236 -261 -236q-179 0 -236 112v-275h-46v680zM571 219v66q0 89 -59.5 141t-165.5 52t-165.5 -52t-59.5 -141v-66q0 -103 56 -150.5t168 -47.5q113 0 169.5 47.5t56.5 150.5z" />
<glyph unicode="q" horiz-adv-x="658" d="M43 220v66q0 104 73 167q73 64 199 64q127 0 198 -64q73 -63 73 -167v-466h-47v275q-57 -112 -235 -112q-261 0 -261 237zM539 220v66q0 89 -59 141t-165 52t-166 -52t-60 -141v-66q0 -103 56.5 -151t168.5 -48q113 0 169 48t56 151z" />
<glyph unicode="r" horiz-adv-x="349" d="M75 500h42v-120q29 69 83 101.5t139 35.5v-39q-105 -3 -162 -60t-57 -161v-257h-45v500z" />
<glyph unicode="s" horiz-adv-x="605" d="M87 373v15q0 129 215 129q218 0 220 -128v-14h-41v14q-1 93 -179 93q-173 0 -173 -92v-14q0 -19 22.5 -36.5t59.5 -28.5l223 -61q111 -32 111 -118v-5q0 -66 -64.5 -105t-178.5 -39q-113 0 -176.5 38t-64.5 104v31h42v-31q0 -49 53 -78.5t146 -29.5t146 28.5t54 77.5v6 q2 60 -86 86l-231 63q-98 27 -98 95z" />
<glyph unicode="t" horiz-adv-x="321" d="M122 500v108h46v-108h118v-33h-118v-394q0 -24 19.5 -39.5t52.5 -15.5h46v-33h-59q-48 0 -76.5 22t-28.5 61v399h-98v33h98z" />
<glyph unicode="u" horiz-adv-x="645" d="M526 220v280h45v-500h-42v99q-57 -116 -235 -116q-118 0 -171 53.5t-53 175.5v288h46v-280q0 -109 42.5 -154t146.5 -45q221 0 221 199z" />
<glyph unicode="v" horiz-adv-x="596" d="M299 33l204 467h49l-227 -500h-52l-228 500h50z" />
<glyph unicode="w" horiz-adv-x="908" d="M646 37l170 463h47l-192 -500h-51l-166 448l-167 -448h-51l-191 500h48l169 -463l165 463h54z" />
<glyph unicode="x" horiz-adv-x="684" d="M341 285l208 215h61l-237 -243l249 -257h-59l-222 230l-220 -230h-59l249 257l-237 243h61z" />
<glyph unicode="y" horiz-adv-x="594" d="M302 25l209 475h48l-307 -680h-38l77 176h-16l-230 504h49z" />
<glyph unicode="z" horiz-adv-x="508" d="M45 462v38h419v-32l-361 -430h367v-38h-431v32l361 430h-355z" />
<glyph unicode="{" horiz-adv-x="316" d="M218 748h68v-33h-50q-37 0 -53.5 -22.5t-16.5 -77.5v-172q0 -52 -21 -97.5t-58 -60.5q36 -16 57.5 -60.5t21.5 -99.5v-170q0 -58 16.5 -80t53.5 -22h50v-33h-68q-51 0 -74.5 28.5t-23.5 88.5v172q0 65 -18 101t-67 59v35q40 8 62 51q23 46 23 104v173q0 61 22.5 88.5 t75.5 27.5z" />
<glyph unicode="|" horiz-adv-x="183" d="M74 -32v765h41v-765h-41z" />
<glyph unicode="}" horiz-adv-x="316" d="M30 715v33h68q53 0 76 -27.5t23 -88.5v-173q0 -60 23 -103.5t61 -51.5v-35q-48 -24 -66 -60t-18 -100v-172q0 -60 -23.5 -88.5t-75.5 -28.5h-68v33h51q36 0 52.5 21.5t16.5 80.5v170q0 55 21.5 99t58.5 61q-39 17 -59.5 63t-20.5 94v173q0 55 -16 77.5t-53 22.5h-51z" />
<glyph unicode="~" horiz-adv-x="665" d="M99 193l-34 16q58 88 134 91q9 1 27 1q23 0 42 -4q25 -5 30 -7l40 -14q105 -35 132 -35q22 1 42 12q31 16 61 57l32 -18q-24 -31 -34 -42q-15 -16 -39 -29.5t-48 -14.5q-4 -1 -13 -1q-41 0 -140 37q-8 2 -24 7.5t-21 6.5q-30 10 -70 10q-69 -2 -117 -73z" />
<glyph unicode="&#xa1;" horiz-adv-x="180" d="M74 405l-2 117h47l-3 -117h-42zM72 -180v492h47v-492h-47z" />
<glyph unicode="&#xa2;" horiz-adv-x="620" d="M297 516v83h40v-83q208 -2 241 -163h-41q-15 66 -67 96t-143 30q-112 0 -168 -48t-56 -151v-67q0 -89 59 -140.5t165 -51.5q84 0 138.5 32.5t72.5 92.5h40q-21 -77 -82.5 -119.5t-158.5 -43.5v-65h-40v66q-112 7 -176.5 68.5t-64.5 160.5v67q0 223 241 236z" />
<glyph unicode="&#xa3;" horiz-adv-x="717" d="M66 335v37h81q-33 43 -48 68q-28 47 -28 121q0 82 64 119t191 37q239 0 241 -161h-39q-1 60 -53.5 90.5t-149.5 30.5q-106 -1 -157.5 -30t-50.5 -91q2 -55 16 -85q14 -28 68 -99h300v-37h-282q31 -57 30 -124q-4 -85 -85 -152q42 15 91 15q36 0 107 -23q69 -22 109 -22 q91 -1 175 76l24 -27q-51 -50 -98 -71t-105 -21q-39 0 -120 24q-79 25 -112 25q-74 0 -147 -46l-23 30q138 92 140 191q0 74 -36 125h-103z" />
<glyph unicode="&#xa5;" horiz-adv-x="857" d="M428 315l324 385h63l-264 -313h130v-33h-158l-70 -83v-49h228v-33h-228v-189h-48v189h-227v33h227v49l-71 83h-156v33h129l-264 313h63z" />
<glyph unicode="&#xa6;" horiz-adv-x="183" d="M74 431v302h41v-302h-41zM74 -32v302h41v-302h-41z" />
<glyph unicode="&#xa7;" horiz-adv-x="613" d="M91 425l-1 15q0 129 216 129q218 0 220 -129v-13h-42v13q-1 94 -178 94q-173 0 -173 -92v-14q0 -19 22 -36.5t59 -28.5l224 -61q111 -32 111 -118v-6q0 -67 -64 -103q64 -33 64 -99v-6q0 -66 -64.5 -105t-178.5 -39q-113 0 -176.5 38t-64.5 104v31h42v-31q0 -49 53 -78 t146 -29q94 0 146 29t54 76v6q1 31 -21 52.5t-66 33.5l-230 63q-98 27 -98 96v14q0 77 77 106q-77 29 -77 88zM419 266l-189 52q-95 -16 -97 -84v-14q0 -19 21 -36.5t55 -27.5l219 -60q3 -1 7 -2l4 -2q67 28 67 83v5q1 32 -21 53.5t-66 32.5z" />
<glyph unicode="&#xa8;" horiz-adv-x="356" d="M57 641v38h39v-38h-39zM260 641v38h39v-38h-39z" />
<glyph unicode="&#xa9;" horiz-adv-x="992" d="M276 668q99 49 219 49t219 -49q101 -48 159 -133t58 -185t-58 -185t-159 -134q-100 -48 -219 -48q-118 0 -218.5 48.5t-158.5 133.5t-58 185t58 185t158 133zM699 640q-93 45 -204 45q-110 0 -203 -44.5t-147 -122.5q-54 -76 -54 -168q0 -90 54 -167.5t147 -122.5 t203 -45q111 0 204 45q94 45 147 122q41 56 50.5 124t-10.5 131t-68.5 117.5t-118.5 85.5zM291 325v51q0 189 212 189q83 0 128.5 -32t59.5 -103h-29q-15 56 -52.5 80.5t-106.5 24.5q-90 0 -135.5 -37.5t-45.5 -121.5v-51q0 -71 47 -113t134 -42q125 0 157 105h30 q-32 -135 -187 -135q-100 0 -156 49.5t-56 135.5z" />
<glyph unicode="&#xaa;" horiz-adv-x="447" d="M110 607h-33q23 93 149 93q77 0 114 -27.5t37 -91.5v-194h-31l-1 52q-45 -62 -147 -62q-64 0 -101 26t-36 68q0 50 48 68q33 13 64 16q43 4 73 4q40 1 66 5q31 4 31 16v7q0 85 -117 85q-99 1 -116 -65zM343 497v47q-14 -6 -83 -11h-6q-47 -2 -56 -3q-21 -1 -50 -7 q-22 -5 -36 -19t-14 -33q0 -29 28.5 -47t78.5 -18q55 1 95 26.5t43 64.5z" />
<glyph unicode="&#xab;" horiz-adv-x="476" d="M52 236v59l148 122v-50l-122 -102l122 -101v-50zM260 236v59l148 122v-50l-122 -102l122 -101v-50z" />
<glyph unicode="&#xac;" horiz-adv-x="840" />
<glyph unicode="&#xae;" horiz-adv-x="992" d="M276 668q99 49 219 49t219 -49q101 -48 159 -133t58 -185t-58 -185t-159 -134q-100 -48 -219 -48q-118 0 -218.5 48.5t-158.5 133.5t-58 185t58 185t158 133zM699 640q-93 45 -204 45q-110 0 -203 -44.5t-147 -122.5q-54 -76 -54 -168q0 -90 54 -167.5t147 -122.5 t203 -45q111 0 204 45q94 45 147 122q41 56 50.5 124t-10.5 131t-68.5 117.5t-118.5 85.5zM328 144v420h181q172 0 172 -101v-28q0 -39 -32 -64t-89 -31l138 -196h-38l-137 191h-163v-191h-32zM651 435v27q0 73 -140 73h-151v-172h151q64 0 102 20t38 52z" />
<glyph unicode="&#xb0;" horiz-adv-x="454" d="M227 717q68 0 117.5 -42t49.5 -101q0 -61 -48.5 -103t-118.5 -42t-119 41q-48 42 -48 104q0 60 48 101q49 42 119 42zM227 687q-56 0 -97 -35t-41 -78q0 -49 40 -82t98 -33q59 0 98 33q39 34 39 82q0 46 -39 79q-38 34 -98 34z" />
<glyph unicode="&#xb1;" horiz-adv-x="847" />
<glyph unicode="&#xb2;" horiz-adv-x="438" d="M116 576h-34v35q0 95 150 95q156 0 156 -95v-21q0 -48 -42 -87q-34 -31 -89 -64q-24 -14 -68 -40q-63 -41 -78 -77h277v-34h-325q5 38 17 55q2 3 9 14t12 16.5t14 12.5q28 24 49 37l29 17l32 19q56 33 89 60q40 34 40 71v21q0 63 -122 63q-116 0 -116 -63v-35z" />
<glyph unicode="&#xb3;" horiz-adv-x="483" d="M121 584h-35v27q0 94 153 94q156 0 156 -94v-31q0 -48 -59 -72q84 -19 84 -94v-29q0 -49 -48 -77t-133 -28q-83 0 -130.5 28t-47.5 77v33h36v-33q0 -35 38 -55t104 -20q69 0 107.5 20t38.5 55v29q0 74 -135 76h-27v30h24q53 1 82.5 17t29.5 43v31q0 63 -120 63 q-118 0 -118 -63v-27z" />
<glyph unicode="&#xb4;" horiz-adv-x="239" d="M26 581l128 125h48l-134 -125h-42z" />
<glyph unicode="&#xb5;" horiz-adv-x="833" />
<glyph unicode="&#xb6;" horiz-adv-x="734" d="M317 700h361v-40h-103v-816h-41v816h-187v-816h-42v462q-111 1 -186 58q-72 56 -72 136q0 96 70.5 148t199.5 52z" />
<glyph unicode="&#xb8;" horiz-adv-x="291" d="M68 -75l64 75h39l-47 -51q22 2 28 2h11q39 -1 64 -17t25 -47q0 -69 -105 -75h-9q-60 0 -107 16l9 24q48 -12 90 -12h8q35 0 57 12.5t22 35.5q0 17 -19.5 27t-47.5 9q-34 0 -61 -11z" />
<glyph unicode="&#xb9;" horiz-adv-x="249" d="M144 700h30v-412h-36v369q-46 -45 -126 -63v32q47 12 73 27.5t59 46.5z" />
<glyph unicode="&#xba;" horiz-adv-x="466" d="M65 517v39q0 144 167 144q169 0 169 -144v-39q0 -64 -45.5 -102.5t-123.5 -38.5q-77 0 -122 38.5t-45 102.5zM367 517v39q0 112 -135 112q-66 0 -98.5 -27t-32.5 -85v-39q0 -51 34.5 -80t96.5 -29q65 0 100 29t35 80z" />
<glyph unicode="&#xbb;" horiz-adv-x="480" d="M196 265l-122 102v50l148 -122v-59l-148 -122v50zM404 265l-122 102v50l148 -122v-59l-148 -122v50z" />
<glyph unicode="&#xbc;" horiz-adv-x="887" d="M177 -17l392 734h43l-392 -734h-43zM146 700h31v-412h-36v369q-47 -45 -126 -63v32q47 12 74 28t57 46zM475 132l243 280h37v-278h89v-33h-89v-101h-34v101h-246v31zM519 134h202v236z" />
<glyph unicode="&#xbd;" horiz-adv-x="947" d="M177 -17l392 734h43l-392 -734h-43zM146 700h31v-412h-36v369q-47 -45 -126 -63v32q47 12 74 28t57 46zM609 288h-33v30q0 94 150 94q156 0 156 -94v-16q0 -41 -41 -86q-11 -10 -27 -24q-36 -25 -63 -41q-24 -14 -68 -40q-63 -41 -78 -77h277v-34h-325q0 49 50 97 q12 12 33 26l35 22l44 26q56 33 88 60q41 34 41 71v16q0 62 -122 62q-117 0 -117 -62v-30z" />
<glyph unicode="&#xbe;" horiz-adv-x="1068" d="M356 -17l392 734h43l-391 -734h-44zM109 583h-35v28q0 93 154 93q156 0 156 -93v-26q0 -49 -60 -72q84 -19 84 -94v-29q0 -49 -48 -77.5t-132 -28.5q-83 0 -130.5 28.5t-47.5 77.5v33h36v-33q0 -35 37.5 -55t104.5 -20q69 0 107 20t38 55v29q0 73 -135 75h-27v31h25 q52 0 82 16t30 43v27q0 63 -120 63q-119 0 -119 -63v-28zM655 132l243 280h36v-278h89v-33h-89v-101h-34v101h-245v31zM698 134h202v236z" />
<glyph unicode="&#xbf;" horiz-adv-x="542" d="M270 422v114h49v-114h-49zM271 347h46q0 -71 -27 -121q-28 -50 -97 -104l-16 -13q-30 -21 -55 -46q-34 -35 -34 -85v-26q0 -94 189 -94q176 0 176 94v39h46v-39q0 -132 -222 -132q-115 0 -175.5 31t-60.5 101v26q0 60 37 103q18 20 32 32q8 8 20 17l20 15l9 6 q64 52 88 93q24 40 24 103z" />
<glyph unicode="&#xc0;" horiz-adv-x="834" d="M464 781l-134 125h47l129 -125h-42zM45 0l347 700h51l347 -700h-53l-104 214h-431l-105 -214h-52zM216 251h403l-202 413z" />
<glyph unicode="&#xc1;" horiz-adv-x="834" d="M316 781l129 125h47l-133 -125h-43zM45 0l347 700h51l347 -700h-53l-104 214h-431l-105 -214h-52zM216 251h403l-202 413z" />
<glyph unicode="&#xc2;" horiz-adv-x="834" d="M45 0l347 700h51l347 -700h-53l-104 214h-431l-105 -214h-52zM216 251h403l-202 413zM289 781l104 125h50l104 -125h-39l-90 108l-90 -108h-39z" />
<glyph unicode="&#xc3;" horiz-adv-x="834" d="M274 839l-23 12q34 58 86 58q21 0 39 -4q2 0 6.5 -1.5t9 -3.5t5.5 -2q2 0 11.5 -4t11.5 -5q56 -21 76 -21q14 0 27 7q19 11 38 35l24 -13q-23 -31 -40.5 -44t-41.5 -14h-7q-19 0 -79 20q-4 0 -39 13q-16 6 -40 6q-38 0 -64 -39zM45 0l347 700h51l347 -700h-53l-104 214 h-431l-105 -214h-52zM216 251h403l-202 413z" />
<glyph unicode="&#xc4;" horiz-adv-x="834" d="M45 0l347 700h51l347 -700h-53l-104 214h-431l-105 -214h-52zM216 251h403l-202 413zM296 841v38h39v-38h-39zM499 841v38h39v-38h-39z" />
<glyph unicode="&#xc5;" horiz-adv-x="834" d="M417 955q42 0 73 -27t31 -64q0 -38 -30.5 -64.5t-73.5 -26.5q-42 0 -73 27t-31 64t31 64t73 27zM339 864q0 -26 23 -45t55 -19q50 -2 71.5 40t-16.5 69q-25 20 -55 20t-55 -19.5t-23 -45.5zM45 0l347 700h51l347 -700h-53l-104 214h-431l-105 -214h-52zM216 251h403 l-202 413z" />
<glyph unicode="&#xc6;" horiz-adv-x="1006" d="M51 0l347 700h578v-40h-513v-277h493v-39h-493v-304h518v-40h-566v214h-207l-104 -214h-53zM224 251h191v389z" />
<glyph unicode="&#xc7;" horiz-adv-x="814" d="M65 300v92q0 167 92.5 245.5t273.5 78.5q145 0 224 -52.5t103 -169.5h-46q-24 97 -90 140t-191 43q-160 0 -239.5 -68.5t-79.5 -216.5v-92q0 -129 83.5 -203t235.5 -74q223 0 279 182h47q-55 -222 -323 -222h-12l-31 -34q22 2 28 2h11q39 -1 64 -17t25 -47 q0 -69 -105 -75h-9q-60 0 -107 16l9 24q48 -12 90 -12h8q35 0 57 12.5t22 35.5q0 17 -19.5 27t-47.5 9q-34 0 -61 -11l-21 12l51 59q-152 12 -236.5 96t-84.5 220z" />
<glyph unicode="&#xc8;" horiz-adv-x="662" d="M404 781l-134 125h47l129 -125h-42zM75 0v700h561v-40h-513v-277h493v-39h-493v-304h519v-40h-567z" />
<glyph unicode="&#xc9;" horiz-adv-x="662" d="M256 781l129 125h47l-134 -125h-42zM75 0v700h561v-40h-513v-277h493v-39h-493v-304h519v-40h-567z" />
<glyph unicode="&#xca;" horiz-adv-x="662" d="M228 781l105 125h50l104 -125h-39l-90 108l-90 -108h-40zM75 0v700h561v-40h-513v-277h493v-39h-493v-304h519v-40h-567z" />
<glyph unicode="&#xcb;" horiz-adv-x="662" d="M75 0v700h561v-40h-513v-277h493v-39h-493v-304h519v-40h-567zM235 841v38h40v-38h-40zM438 841v38h40v-38h-40z" />
<glyph unicode="&#xcc;" horiz-adv-x="192" d="M142 781l-133 125h47l129 -125h-43zM74 0v700h48v-700h-48z" />
<glyph unicode="&#xcd;" horiz-adv-x="192" d="M-4 781l129 125h47l-134 -125h-42zM75 0v700h48v-700h-48z" />
<glyph unicode="&#xce;" horiz-adv-x="192" d="M-31 781l103 125h50l105 -125h-40l-90 108l-90 -108h-38zM75 0v700h48v-700h-48z" />
<glyph unicode="&#xcf;" horiz-adv-x="192" d="M75 0v700h48v-700h-48zM-25 841v38h40v-38h-40zM178 841v38h40v-38h-40z" />
<glyph unicode="&#xd0;" horiz-adv-x="853" d="M137 381v319h268q383 0 383 -311v-86q0 -137 -102 -220q-103 -83 -281 -83h-268v343h-77v38h77zM739 303v86q0 142 -85.5 206.5t-248.5 64.5h-220v-279h183v-38h-183v-303h220q156 -1 246 72t88 191z" />
<glyph unicode="&#xd1;" d="M251 839l-23 12q34 58 86 58q21 0 39 -4q2 0 6.5 -1.5t9 -3.5t5.5 -2q2 0 11.5 -4t11.5 -5q56 -21 76 -21q15 0 28 7q19 12 37 35l24 -13q-23 -31 -40.5 -44t-41.5 -14h-7q-19 0 -79 20q-4 0 -39 13q-16 6 -39 6q-40 0 -65 -39zM665 63v637h48v-700h-55l-536 637v-637 h-48v700h55z" />
<glyph unicode="&#xd2;" horiz-adv-x="884" d="M488 781l-134 125h47l129 -125h-42zM65 300v92q0 167 95 245.5t281 78.5t281.5 -78.5t95.5 -245.5v-92q2 -142 -100 -230t-277 -87q-176 0 -277 86q-99 87 -99 231zM770 300v92q0 148 -82 216.5t-247 68.5t-246.5 -68.5t-81.5 -216.5v-92q0 -126 85 -202q86 -75 243 -75 t243 75q86 77 86 202z" />
<glyph unicode="&#xd3;" horiz-adv-x="884" d="M340 781l129 125h47l-134 -125h-42zM65 300v92q0 167 95 245.5t281 78.5t281.5 -78.5t95.5 -245.5v-92q2 -142 -100 -230t-277 -87q-176 0 -277 86q-99 87 -99 231zM770 300v92q0 148 -82 216.5t-247 68.5t-246.5 -68.5t-81.5 -216.5v-92q0 -126 85 -202q86 -75 243 -75 t243 75q86 77 86 202z" />
<glyph unicode="&#xd4;" horiz-adv-x="884" d="M313 781l104 125h50l104 -125h-39l-90 108l-90 -108h-39zM65 300v92q0 167 95 245.5t281 78.5t281.5 -78.5t95.5 -245.5v-92q0 -144 -100 -231q-100 -86 -277 -86q-176 0 -277 86q-99 87 -99 231zM770 300v92q0 148 -82 216.5t-247 68.5t-246.5 -68.5t-81.5 -216.5v-92 q0 -126 85 -202q86 -75 243 -75t243 75q86 77 86 202z" />
<glyph unicode="&#xd5;" horiz-adv-x="884" d="M298 839l-24 12q36 58 87 58q21 0 39 -4q3 -1 11 -4t10 -3t11.5 -4t11.5 -5q56 -21 75 -21q24 3 38 12.5t27 29.5l25 -13q-25 -32 -42 -44.5t-40 -13.5h-7q-19 0 -79 20q-4 0 -39 13q-16 6 -40 6q-38 0 -64 -39zM65 300v92q0 167 95 245.5t281 78.5t281.5 -78.5 t95.5 -245.5v-92q0 -144 -100 -231q-100 -86 -277 -86q-176 0 -277 86q-99 87 -99 231zM770 300v92q0 148 -82 216.5t-247 68.5t-246.5 -68.5t-81.5 -216.5v-92q0 -126 85 -202q86 -75 243 -75t243 75q86 77 86 202z" />
<glyph unicode="&#xd6;" horiz-adv-x="884" d="M65 300v92q0 167 95 245.5t281 78.5t281.5 -78.5t95.5 -245.5v-92q2 -142 -100 -230t-277 -87q-176 0 -277 86q-99 87 -99 231zM770 300v92q0 148 -82 216.5t-247 68.5t-246.5 -68.5t-81.5 -216.5v-92q0 -126 85 -202q86 -75 243 -75t243 75q86 77 86 202zM319 841v38h40 v-38h-40zM522 841v38h40v-38h-40z" />
<glyph unicode="&#xd7;" horiz-adv-x="520" d="M229 314l-164 137l33 27l163 -137l163 135l29 -24l-161 -136l164 -137l-33 -27l-164 137l-162 -135l-30 24z" />
<glyph unicode="&#xd8;" horiz-adv-x="884" d="M633 750h43l-35 -65q177 -69 177 -293v-92q2 -142 -100 -230t-277 -87q-87 0 -161 23l-30 -56h-43l37 70q-87 38 -133 111t-46 169v92q0 167 95 245.5t281 78.5q95 0 164 -19zM113 392v-92q0 -84 38.5 -146.5t112.5 -96.5l321 603q-63 17 -144 17q-165 0 -246.5 -68.5 t-81.5 -216.5zM770 300v92q0 194 -149 256l-321 -605q63 -20 141 -20q157 0 243 75q86 77 86 202z" />
<glyph unicode="&#xd9;" d="M440 781l-134 125h47l129 -125h-42zM670 250v450h48v-450q0 -120 -87 -194q-86 -73 -238 -73t-238 73q-87 74 -87 194v450h48v-450q0 -105 73.5 -166t203.5 -61t203.5 61t73.5 166z" />
<glyph unicode="&#xda;" d="M292 781l129 125h47l-134 -125h-42zM670 250v450h48v-450q0 -120 -87 -194q-86 -73 -238 -73t-238 73q-87 74 -87 194v450h48v-450q0 -105 73.5 -166t203.5 -61t203.5 61t73.5 166z" />
<glyph unicode="&#xdb;" d="M264 781l105 125h50l104 -125h-39l-90 108l-90 -108h-40zM670 250v450h48v-450q0 -120 -87 -194q-86 -73 -238 -73t-238 73q-87 74 -87 194v450h48v-450q0 -105 73.5 -166t203.5 -61t203.5 61t73.5 166z" />
<glyph unicode="&#xdc;" d="M271 841v38h40v-38h-40zM474 841v38h40v-38h-40zM670 250v450h49v-450q0 -121 -88 -194q-86 -73 -238 -73t-238 73q-87 74 -87 194v450h48v-450q0 -105 73.5 -166t203.5 -61t203.5 61t73.5 166z" />
<glyph unicode="&#xdd;" horiz-adv-x="900" d="M448 314l324 386h63l-362 -429v-271h-48v271l-361 429h62zM349 781l128 125h48l-134 -125h-42z" />
<glyph unicode="&#xde;" horiz-adv-x="668" d="M75 0v700h48v-107h221q300 0 300 -173v-49q0 -77 -81 -123q-80 -46 -219 -46h-221v-202h-48zM596 371v49q0 133 -251 133h-222v-311h222q117 0 184 34.5t67 94.5z" />
<glyph unicode="&#xdf;" horiz-adv-x="696" d="M123 0h-48v565q0 152 258 152q257 0 257 -152v-64q0 -45 -33.5 -77.5t-93.5 -47.5q169 -30 169 -159v-45q0 -79 -80.5 -125.5t-218.5 -46.5h-131v40h131q118 0 184 35.5t66 96.5v46q0 136 -248 136v36q99 2 152.5 31.5t53.5 79.5v62q0 114 -208 114q-210 0 -210 -114 v-563z" />
<glyph unicode="&#xe0;" horiz-adv-x="656" d="M380 581l-134 125h47l129 -125h-42zM136 372h-43q34 145 244 145q126 0 188.5 -45.5t62.5 -149.5v-322h-40l-2 108q-27 -54 -99 -89.5t-157 -35.5q-107 0 -168 43q-60 43 -59 110q0 43 22 68.5t62 44.5q30 13 84 20q22 4 48 5q40 2 46 2q6 1 23 1.5t25 0.5q34 0 44 1 q56 3 74 6q51 12 51 34v13q0 151 -205 152q-173 0 -201 -112zM542 180v92q-14 -10 -42 -15q-37 -6 -50 -7l-69 -3h-6q-51 -1 -81 -4q-24 -1 -78 -10q-32 -5 -64 -24q-40 -22 -43 -75q1 -52 51.5 -84.5t137.5 -32.5q98 0 168 46q71 46 76 117z" />
<glyph unicode="&#xe1;" horiz-adv-x="656" d="M232 581l129 125h47l-134 -125h-42zM136 372h-43q34 145 244 145q126 0 188.5 -45.5t62.5 -149.5v-322h-40l-2 108q-27 -54 -99 -89.5t-157 -35.5q-107 0 -168 43q-60 43 -59 110q0 43 22 68.5t62 44.5q30 13 84 20q22 4 48 5q40 2 46 2q6 1 23 1.5t25 0.5q123 3 152 18 q17 9 17 23v13q0 151 -205 152q-173 0 -201 -112zM542 180v92q-14 -10 -42 -15q-37 -6 -50 -7l-69 -3h-6q-9 0 -27.5 -0.5t-25.5 -1.5q-18 0 -51 -3q-29 -3 -52 -8q-55 -11 -78 -32q-31 -27 -32 -68q1 -52 51.5 -84.5t137.5 -32.5q98 0 168 46q71 46 76 117z" />
<glyph unicode="&#xe2;" horiz-adv-x="656" d="M136 372h-43q34 145 244 145q126 0 188.5 -45.5t62.5 -149.5v-322h-40l-2 108q-27 -54 -99 -89.5t-157 -35.5q-107 0 -168 43q-60 43 -59 110q0 43 22 68.5t62 44.5q30 13 84 20q22 4 48 5q40 2 46 2q6 1 23 1.5t25 0.5q34 0 44 1q56 3 74 6q51 12 51 34v13 q0 151 -205 152q-173 0 -201 -112zM542 180v92q-14 -10 -42 -15q-37 -6 -50 -7l-69 -3h-6q-51 -1 -81 -4q-24 -1 -78 -10q-32 -5 -64 -24q-40 -22 -43 -75q1 -52 51.5 -84.5t137.5 -32.5q98 0 168 46q71 46 76 117zM205 581l104 125h50l104 -125h-39l-90 108l-90 -108h-39z " />
<glyph unicode="&#xe3;" horiz-adv-x="656" d="M190 639l-24 12q36 58 87 58q21 0 39 -4q3 -1 11 -4t10 -3t11.5 -4t11.5 -5q56 -21 75 -21q24 3 38 12.5t27 29.5l25 -13q-25 -32 -42 -44.5t-40 -13.5h-7q-19 0 -79 20q-4 0 -39 13q-16 6 -40 6q-38 0 -64 -39zM136 372h-43q34 145 244 145q127 0 189.5 -45.5 t62.5 -149.5v-322h-41l-2 108q-27 -56 -99 -90q-72 -35 -157 -35q-107 0 -168 43q-60 43 -59 110q1 43 24 72q16 21 61 41q29 13 83 20q22 4 48 5q42 2 47 2q6 1 22.5 1.5t24.5 0.5q125 3 153 18q16 9 16 23v13q0 150 -204 152q-174 0 -202 -112zM542 180v92 q-14 -10 -42 -15q-37 -6 -49 -7l-70 -3h-6q-9 0 -27.5 -0.5t-25.5 -1.5q-18 0 -51 -3q-29 -3 -52 -8q-55 -11 -78 -32q-31 -27 -31 -68q0 -52 50.5 -84.5t138.5 -32.5q97 0 167 46q71 46 76 117z" />
<glyph unicode="&#xe4;" horiz-adv-x="656" d="M136 372h-43q34 145 244 145q126 0 188.5 -45.5t62.5 -149.5v-322h-40l-2 108q-27 -54 -99 -89.5t-157 -35.5q-107 0 -168 43q-60 43 -59 110q0 43 22 68.5t62 44.5q30 13 84 20q22 4 48 5q40 2 46 2q6 1 23 1.5t25 0.5q34 0 44 1q56 3 74 6q51 12 51 34v13 q0 151 -205 152q-173 0 -201 -112zM542 180v92q-14 -10 -42 -15q-37 -6 -50 -7l-69 -3h-6q-51 -1 -81 -4q-24 -1 -78 -10q-32 -5 -64 -24q-40 -22 -43 -75q1 -52 51.5 -84.5t137.5 -32.5q98 0 168 46q71 46 76 117zM211 641v38h40v-38h-40zM414 641v38h40v-38h-40z" />
<glyph unicode="&#xe5;" horiz-adv-x="656" d="M333 755q42 0 73 -27t31 -64q0 -38 -30.5 -64.5t-73.5 -26.5t-74 27t-31 64t31.5 64t73.5 27zM254 664q0 -26 23.5 -45t55.5 -19q50 -2 71.5 40t-16.5 69q-33 32 -84.5 14t-49.5 -59zM136 372h-43q34 145 244 145q127 0 189.5 -45.5t62.5 -149.5v-322h-41l-2 108 q-27 -54 -99 -89.5t-157 -35.5q-107 0 -168 43q-60 43 -59 110q1 104 149 130q51 9 161 12q34 0 44 1q56 3 74 6q51 12 51 34v13q0 151 -205 152q-173 0 -201 -112zM542 180v92q-14 -10 -42 -15q-37 -6 -50 -7l-69 -3h-6q-9 0 -27.5 -0.5t-25.5 -1.5q-18 0 -51 -3 q-29 -3 -52 -8q-55 -11 -78 -32q-31 -27 -32 -68q1 -52 51.5 -84.5t137.5 -32.5q98 0 168 46q71 46 76 117z" />
<glyph unicode="&#xe6;" horiz-adv-x="1170" d="M136 372h-43q33 145 244 145q100 0 160.5 -29t79.5 -97q55 126 256 126q280 0 280 -237v-15v-11h-512v-44q0 -89 61.5 -141t170.5 -52q99 0 160 43t70 117h46q-13 -90 -86 -142t-190 -52q-177 0 -245 116v-99h-40l-2 108q-27 -54 -99 -89.5t-157 -35.5q-107 0 -168 43 q-60 43 -59 110q0 43 22 68.5t62 44.5q30 13 84 20q22 4 48 5q40 2 46 2q6 1 23 1.5t25 0.5q34 0 44 1q56 3 74 6q51 12 51 34v13q0 151 -205 152q-173 0 -201 -112zM601 284h465q0 103 -58.5 151t-174.5 48t-174 -48t-58 -151zM542 180v92q-14 -10 -42 -15q-37 -6 -50 -7 l-69 -3h-6q-9 0 -27.5 -0.5t-25.5 -1.5q-18 0 -51 -3q-29 -3 -52 -8q-56 -12 -79 -32q-30 -28 -31 -68q1 -52 51.5 -84.5t137.5 -32.5q98 0 168 46q72 47 76 117z" />
<glyph unicode="&#xe7;" horiz-adv-x="643" d="M65 213v67q0 237 271 237q109 0 171 -39.5t79 -124.5h-40q-17 66 -69 96t-141 30q-113 0 -169 -48t-56 -151v-67q0 -89 59 -140.5t166 -51.5q84 0 138 32.5t73 92.5h39q-19 -78 -81.5 -120t-161.5 -43h-7l-31 -34q22 2 28 2h11q39 -1 64 -17t25 -47q0 -69 -106 -75h-8 q-61 0 -108 16l10 24q48 -12 90 -12h7q36 0 58 12.5t22 35.5q0 17 -19.5 27t-47.5 9q-36 0 -61 -11l-21 12l50 59q-110 9 -172 70t-62 159z" />
<glyph unicode="&#xe8;" horiz-adv-x="683" d="M65 214v66q0 237 278 237q280 0 280 -237v-15l-1 -11h-511v-44q0 -89 61.5 -141t170.5 -52q98 0 159.5 43.5t70.5 116.5h46q-14 -91 -86.5 -142.5t-189.5 -51.5q-131 0 -204 63q-74 63 -74 168zM111 284h465q0 103 -58.5 151t-175.5 48q-115 0 -173 -48t-58 -151z M388 581l-133 125h47l128 -125h-42z" />
<glyph unicode="&#xe9;" horiz-adv-x="683" d="M65 214v66q0 237 278 237q280 0 280 -237v-15l-1 -11h-511v-44q0 -89 61.5 -141t170.5 -52q98 0 159.5 43.5t70.5 116.5h46q-14 -91 -86.5 -142.5t-189.5 -51.5q-131 0 -204 63q-74 63 -74 168zM111 284h465q0 103 -58.5 151t-175.5 48q-115 0 -173 -48t-58 -151z M241 581l128 125h48l-134 -125h-42z" />
<glyph unicode="&#xea;" horiz-adv-x="683" d="M213 581l104 125h50l105 -125h-40l-90 108l-90 -108h-39zM65 214v66q0 237 278 237q280 0 280 -237v-15l-1 -11h-511v-44q0 -89 61.5 -141t170.5 -52q98 0 159.5 43.5t70.5 116.5h46q-14 -91 -86.5 -142.5t-189.5 -51.5q-131 0 -204 63q-74 63 -74 168zM111 284h465 q0 103 -58.5 151t-174.5 48t-174 -48t-58 -151z" />
<glyph unicode="&#xeb;" horiz-adv-x="683" d="M220 641v38h40v-38h-40zM423 641v38h40v-38h-40zM65 214v66q0 237 277 237q281 0 281 -237v-15l-1 -11h-511v-44q0 -89 61.5 -141t169.5 -52q99 0 160.5 43.5t70.5 116.5h46q-14 -91 -86.5 -142.5t-189.5 -51.5q-131 0 -204 63q-74 63 -74 168zM111 284h465 q0 103 -58.5 151t-175.5 48q-115 0 -173 -48t-58 -151z" />
<glyph unicode="&#xec;" horiz-adv-x="191" d="M146 581l-134 125h47l129 -125h-42zM76 0v500h46v-500h-46z" />
<glyph unicode="&#xed;" horiz-adv-x="191" d="M-2 581l129 125h47l-133 -125h-43zM76 0v500h46v-500h-46z" />
<glyph unicode="&#xee;" horiz-adv-x="191" d="M-29 581l104 125h50l104 -125h-39l-90 108l-90 -108h-39zM76 0v500h46v-500h-46z" />
<glyph unicode="&#xef;" horiz-adv-x="191" d="M-22 641v38h39v-38h-39zM181 641v38h39v-38h-39zM76 0v500h46v-500h-46z" />
<glyph unicode="&#xf0;" horiz-adv-x="741" d="M666 713l18 -28l-110 -49q54 -57 54 -137v-313q0 -93 -76 -148t-205 -55q-131 0 -207 55t-76 148v83q0 202 272 204q187 0 243 -101v138q0 63 -46 108l-124 -55l-18 28l112 50q-59 37 -147 38q-159 1 -208 -87l-30 25q62 99 239 99q115 -1 189 -56zM579 186v83 q0 87 -57.5 128t-174.5 41q-234 0 -234 -169v-83q0 -75 62.5 -119t171.5 -44t170.5 44.5t61.5 118.5z" />
<glyph unicode="&#xf1;" horiz-adv-x="648" d="M183 639l-23 12q36 58 87 58q21 0 39 -4q2 0 6.5 -1.5t8.5 -3.5t5 -2l24 -9q56 -21 75 -21q24 3 37.5 12.5t27.5 29.5l24 -13q-23 -31 -40.5 -44t-41.5 -14h-6q-21 0 -79 20q-4 0 -39 13q-16 6 -40 6q-38 0 -65 -39zM75 500h42v-99q59 116 234 116q118 0 171.5 -55 t53.5 -179v-283h-46v280q0 109 -41.5 154t-146.5 45q-109 0 -165 -47.5t-56 -151.5v-280h-46v500z" />
<glyph unicode="&#xf2;" horiz-adv-x="687" d="M391 581l-134 125h48l128 -125h-42zM65 214v66q0 237 278 237q280 0 280 -237v-66q0 -104 -75 -168q-75 -63 -205 -63q-129 0 -204 63q-74 63 -74 168zM577 214v66q0 103 -58.5 151t-175.5 48q-116 0 -173.5 -48t-57.5 -151v-66q0 -89 61 -141t170 -52t171.5 52.5 t62.5 140.5z" />
<glyph unicode="&#xf3;" horiz-adv-x="687" d="M65 214v66q0 237 278 237q280 0 280 -237v-66q0 -104 -75 -168q-75 -63 -205 -63q-129 0 -204 63q-74 63 -74 168zM577 214v66q0 103 -58.5 151t-175.5 48q-116 0 -173.5 -48t-57.5 -151v-66q0 -89 61 -141t170 -52t171.5 52.5t62.5 140.5zM244 581l128 125h48l-134 -125 h-42z" />
<glyph unicode="&#xf4;" horiz-adv-x="687" d="M216 581l104 125h50l104 -125h-39l-90 108l-90 -108h-39zM65 214v66q0 237 278 237q280 0 280 -237v-66q0 -104 -75 -168q-75 -63 -205 -63q-129 0 -204 63q-74 63 -74 168zM577 214v66q0 103 -58.5 151t-175.5 48q-116 0 -173.5 -48t-57.5 -151v-66q0 -89 61 -141 t170 -52t171.5 52.5t62.5 140.5z" />
<glyph unicode="&#xf5;" horiz-adv-x="687" d="M201 639l-23 12q34 58 86 58q21 0 39 -4q2 0 6.5 -1.5t9 -3.5t5.5 -2q2 0 11.5 -4t11.5 -5q55 -21 76 -21q15 0 28 7q19 12 37 35l24 -13q-23 -31 -40.5 -44t-41.5 -14h-7q-19 0 -79 20q-4 0 -39 13q-14 6 -39 6q-40 0 -65 -39zM65 214v66q0 237 278 237q280 0 280 -237 v-66q0 -104 -75 -168q-75 -63 -205 -63q-129 0 -204 63q-74 63 -74 168zM577 214v66q0 103 -58.5 151t-175.5 48q-116 0 -173.5 -48t-57.5 -151v-66q0 -89 61 -141t170 -52t171.5 52.5t62.5 140.5z" />
<glyph unicode="&#xf6;" horiz-adv-x="687" d="M65 214v66q0 237 278 237q280 0 280 -237v-66q0 -104 -75 -168q-75 -63 -205 -63q-129 0 -204 63q-74 63 -74 168zM577 214v66q0 103 -58.5 151t-175.5 48q-116 0 -173.5 -48t-57.5 -151v-66q0 -89 61 -141t170 -52t171.5 52.5t62.5 140.5zM223 641v38h39v-38h-39z M426 641v38h39v-38h-39z" />
<glyph unicode="&#xf7;" horiz-adv-x="550" d="M253 409v107h41v-107h-41zM25 296v38h500v-38h-500zM253 110v106h41v-106h-41z" />
<glyph unicode="&#xf8;" horiz-adv-x="688" d="M487 550h34l-30 -57q132 -51 132 -213v-66q0 -104 -75 -168q-75 -63 -205 -63q-65 0 -116 16l-26 -49h-34l32 60q-64 27 -99 80t-35 124v66q0 237 277 237q67 0 120 -14zM111 280v-66q0 -119 107 -169l225 422q-42 12 -100 12q-116 0 -174 -48t-58 -151zM576 214v66 q0 136 -104 178l-226 -423q45 -14 97 -14q109 0 171 52.5t62 140.5z" />
<glyph unicode="&#xf9;" horiz-adv-x="645" d="M368 581l-134 125h48l128 -125h-42zM525 220v280h45v-500h-42v99q-57 -116 -235 -116q-118 0 -170.5 53.5t-52.5 175.5v288h45v-280q0 -109 42.5 -154t146.5 -45q221 0 221 199z" />
<glyph unicode="&#xfa;" horiz-adv-x="645" d="M221 581l128 125h48l-134 -125h-42zM525 220v280h45v-500h-42v99q-57 -116 -235 -116q-118 0 -170.5 53.5t-52.5 175.5v288h45v-280q0 -109 42.5 -154t146.5 -45q221 0 221 199z" />
<glyph unicode="&#xfb;" horiz-adv-x="645" d="M193 581l104 125h50l104 -125h-39l-90 108l-90 -108h-39zM525 220v280h45v-500h-42v99q-57 -116 -235 -116q-118 0 -170.5 53.5t-52.5 175.5v288h45v-280q0 -109 42.5 -154t146.5 -45q221 0 221 199z" />
<glyph unicode="&#xfc;" horiz-adv-x="645" d="M201 641v38h39v-38h-39zM404 641v38h40v-38h-40zM526 220v280h45v-500h-42v99q-57 -116 -235 -116q-118 0 -171 53.5t-53 175.5v288h46v-280q0 -109 42.5 -154t146.5 -45q221 0 221 199z" />
<glyph unicode="&#xfd;" horiz-adv-x="594" d="M198 581l129 125h47l-134 -125h-42zM302 25l209 475h48l-307 -680h-38l77 176h-16l-230 504h49z" />
<glyph unicode="&#xfe;" horiz-adv-x="648" d="M75 -180v880h46v-293q60 110 232 110q128 0 196.5 -58.5t68.5 -178.5v-66q0 -106 -71 -169q-71 -62 -190 -62q-172 0 -236 117v-280h-46zM571 214v66q0 102 -56.5 150t-168.5 48q-225 0 -225 -189v-75q0 -90 59 -141.5t166 -51.5t166 51.5t59 141.5z" />
<glyph unicode="&#xff;" horiz-adv-x="594" d="M302 25l209 475h48l-307 -680h-38l77 176h-16l-230 504h49zM177 641v38h40v-38h-40zM380 641v38h40v-38h-40z" />
<glyph unicode="&#x100;" horiz-adv-x="834" d="M279 870v33h276v-33h-276zM45 0l347 700h51l347 -700h-53l-104 214h-431l-105 -214h-52zM216 251h403l-202 413z" />
<glyph unicode="&#x101;" horiz-adv-x="656" d="M195 670v33h276v-33h-276zM136 372h-43q34 145 244 145q126 0 188.5 -45.5t62.5 -149.5v-322h-40l-2 108q-27 -56 -99 -90q-72 -35 -157 -35q-107 0 -168 43q-60 43 -59 110q0 43 22 68.5t62 44.5q30 13 84 20q22 4 48 5q40 2 46 2q6 1 23 1.5t25 0.5q34 0 44 1 q56 3 74 6q51 12 51 34v13q0 151 -205 152q-173 0 -201 -112zM542 180v92q-14 -10 -42 -15q-37 -6 -50 -7l-69 -3h-6q-51 -1 -81 -4q-24 -1 -78 -10q-32 -5 -64 -24q-40 -22 -43 -75q1 -52 51.5 -84.5t137.5 -32.5q98 0 168 46q71 46 76 117z" />
<glyph unicode="&#x102;" horiz-adv-x="834" d="M544 906h23q-6 -54 -48 -84.5t-106 -30.5t-105.5 31t-47.5 84h23q4 -39 39.5 -62t90.5 -23q57 0 92 22.5t39 62.5zM45 0l347 700h51l346 -700h-52l-104 214h-431l-105 -214h-52zM216 251h403l-202 413z" />
<glyph unicode="&#x103;" horiz-adv-x="656" d="M460 706h23q-6 -54 -48.5 -84.5t-105.5 -30.5q-64 0 -105.5 31t-47.5 84h23q4 -40 39 -62.5t91 -22.5t91 22.5t40 62.5zM136 372h-43q34 145 244 145q126 0 188.5 -45.5t62.5 -149.5v-322h-40l-2 108q-27 -54 -99 -89.5t-157 -35.5q-107 0 -168 43q-60 43 -59 110 q0 43 22 68.5t62 44.5q30 13 84 20q22 4 48 5q40 2 46 2q6 1 23 1.5t25 0.5q123 3 152 18q17 9 17 23v13q0 151 -205 152q-173 0 -201 -112zM542 180v92q-14 -10 -42 -15q-37 -6 -50 -7l-69 -3h-6q-9 0 -27.5 -0.5t-25.5 -1.5q-18 0 -51 -3q-29 -3 -52 -8q-55 -11 -78 -32 q-31 -27 -32 -68q1 -52 51.5 -84.5t137.5 -32.5q98 0 168 46q71 46 76 117z" />
<glyph unicode="&#x104;" horiz-adv-x="834" d="M45 0l347 700h51l346 -700l-21 -2q-52 -23 -79.5 -49t-31.5 -50v-8q0 -24 19.5 -38.5t56.5 -14.5q43 0 83 30l17 -19q-53 -39 -102 -39q-47 -1 -75 20t-28 55q0 3 2 13q4 30 32.5 58t74.5 44l-104 214h-431l-105 -214h-52zM216 251h403l-202 413z" />
<glyph unicode="&#x105;" horiz-adv-x="656" d="M136 372h-43q34 145 244 145q126 0 188.5 -45.5t62.5 -149.5v-322l-17 -4q-95 -46 -103 -97q-1 -3 -1 -8q0 -24 20 -38.5t56 -14.5q43 0 83 30l17 -19q-51 -39 -102 -39q-47 -1 -74.5 20t-27.5 55q0 8 1 13q5 32 33.5 59.5t74.5 42.5l-2 108q-27 -54 -99 -89.5 t-157 -35.5q-107 0 -168 43q-60 43 -59 110q0 43 22 68.5t62 44.5q30 13 84 20q22 4 48 5q40 2 46 2q6 1 23 1.5t25 0.5q34 0 44 1q56 3 74 6q51 12 51 34v13q0 151 -205 152q-173 0 -201 -112zM542 180v92q-14 -10 -42 -15q-37 -6 -50 -7l-69 -3h-6q-9 0 -27.5 -0.5 t-25.5 -1.5q-18 0 -51 -3q-29 -3 -52 -8q-55 -11 -78 -32q-31 -27 -32 -68q1 -52 51.5 -84.5t137.5 -32.5q98 0 168 46q71 46 76 117z" />
<glyph unicode="&#x106;" horiz-adv-x="814" d="M306 781l129 125h47l-134 -125h-42zM65 300v92q0 167 92.5 245.5t273.5 78.5q145 0 224 -52.5t103 -169.5h-46q-24 97 -90 140t-191 43q-160 0 -239.5 -68.5t-79.5 -216.5v-92q0 -129 83.5 -203t235.5 -74q223 0 279 182h47q-55 -222 -326 -222q-172 0 -269 85t-97 232z " />
<glyph unicode="&#x107;" horiz-adv-x="643" d="M220 581l129 125h47l-134 -125h-42zM65 213v67q0 237 271 237q109 0 171 -39.5t79 -124.5h-40q-30 126 -210 126q-112 0 -168.5 -48t-56.5 -151v-67q0 -89 59 -140.5t166 -51.5q84 0 138 32.5t73 92.5h39q-19 -78 -83.5 -120.5t-166.5 -42.5q-126 0 -198.5 62t-72.5 168z " />
<glyph unicode="&#x10a;" horiz-adv-x="814" d="M65 300v92q0 167 92.5 245.5t273.5 78.5q145 0 224 -52.5t103 -169.5h-46q-24 97 -90 140t-191 43q-160 0 -239.5 -68.5t-79.5 -216.5v-92q0 -129 83.5 -203t235.5 -74q223 0 279 182h47q-55 -222 -326 -222q-172 0 -269 85t-97 232zM387 841v38h40v-38h-40z" />
<glyph unicode="&#x10b;" horiz-adv-x="643" d="M65 213v67q0 237 271 237q109 0 171 -39.5t79 -124.5h-40q-30 126 -210 126q-112 0 -168.5 -48t-56.5 -151v-67q0 -89 59 -140.5t166 -51.5q84 0 138 32.5t73 92.5h39q-19 -78 -83.5 -120.5t-166.5 -42.5q-126 0 -198.5 62t-72.5 168zM301 641v38h40v-38h-40z" />
<glyph unicode="&#x10c;" horiz-adv-x="814" d="M65 300v92q0 167 92.5 245.5t273.5 78.5q145 0 224 -52.5t103 -169.5h-46q-24 97 -90 140t-191 43q-160 0 -239.5 -68.5t-79.5 -216.5v-92q0 -129 83.5 -203t235.5 -74q223 0 279 182h47q-55 -222 -326 -222q-172 0 -269 85t-97 232zM407 797l90 109h39l-104 -125h-50 l-104 125h39z" />
<glyph unicode="&#x10d;" horiz-adv-x="643" d="M321 597l90 109h39l-104 -125h-51l-104 125h40zM65 213v67q0 237 271 237q109 0 171 -39.5t79 -124.5h-40q-30 126 -210 126q-112 0 -168.5 -48t-56.5 -151v-67q0 -89 59 -140.5t166 -51.5q84 0 138 32.5t73 92.5h39q-19 -78 -83.5 -120.5t-166.5 -42.5q-126 0 -198.5 62 t-72.5 168z" />
<glyph unicode="&#x10e;" horiz-adv-x="791" d="M394 797l90 109h39l-104 -125h-50l-104 125h39zM75 0v700h268q383 0 383 -311v-86q0 -137 -102 -220q-103 -83 -281 -83h-268zM677 303v86q0 142 -85.5 206.5t-248.5 64.5h-220v-620h220q158 0 246 72t88 191z" />
<glyph unicode="&#x10f;" horiz-adv-x="751" d="M689 609v117h39v-117q0 -31 -18 -52t-50 -28v30q29 15 29 50zM539 405v296h47v-701h-41l-2 103q-68 -119 -236 -119q-120 0 -192 63t-72 169v65q0 235 261 237q178 0 235 -113zM539 216v65q0 104 -56 151.5t-169 47.5q-112 0 -168.5 -48t-56.5 -151v-65q0 -89 60 -141 t166 -52t165 52t59 141z" />
<glyph unicode="&#x110;" horiz-adv-x="857" d="M137 381v319h268q383 0 383 -311v-86q0 -137 -102 -220q-103 -83 -281 -83h-268v343h-77v38h77zM739 303v86q0 142 -85.5 206.5t-248.5 64.5h-220v-279h183v-38h-183v-303h220q156 -1 246 72t88 191z" />
<glyph unicode="&#x112;" horiz-adv-x="662" d="M75 0v700h561v-40h-513v-277h493v-39h-493v-304h519v-40h-567zM219 870v33h275v-33h-275z" />
<glyph unicode="&#x113;" horiz-adv-x="683" d="M204 670v33h275v-33h-275zM65 214v66q0 237 277 237q281 0 281 -237v-15l-1 -11h-511v-44q0 -89 61.5 -141t169.5 -52q99 0 160.5 43.5t70.5 116.5h46q-14 -91 -86.5 -142.5t-189.5 -51.5q-131 0 -204 63q-74 65 -74 168zM111 284h465q0 103 -58.5 151t-175.5 48 q-115 0 -173 -48t-58 -151z" />
<glyph unicode="&#x116;" horiz-adv-x="662" d="M75 0v700h561v-40h-513v-277h493v-39h-493v-304h519v-40h-567zM337 841v38h40v-38h-40z" />
<glyph unicode="&#x117;" horiz-adv-x="683" d="M322 641v38h39v-38h-39zM65 214v66q0 237 278 237q280 0 280 -237v-15l-1 -11h-511v-44q0 -89 61.5 -141t170.5 -52q98 0 159.5 43.5t70.5 116.5h46q-14 -91 -86.5 -142.5t-189.5 -51.5q-131 0 -204 63q-74 63 -74 168zM111 284h465q0 103 -58.5 151t-175.5 48 q-115 0 -173 -48t-58 -151z" />
<glyph unicode="&#x118;" horiz-adv-x="662" d="M75 0v700h561v-40h-513v-277h493v-39h-493v-304h519v-40h-62q-57 -23 -84.5 -50t-30.5 -50q-1 -3 -1 -9q0 -23 20 -37.5t56 -14.5q42 0 83 30l17 -19q-51 -39 -102 -39q-47 -1 -74.5 19.5t-27.5 54.5q0 9 1 13q5 31 33 59t72 43h-467z" />
<glyph unicode="&#x119;" horiz-adv-x="683" d="M65 214v66q0 237 278 237q280 0 280 -237v-14l-1 -12h-511v-44q0 -89 61.5 -141t170.5 -52q99 0 159 43.5t71 116.5h46q-11 -73 -62 -122t-134 -65q-86 -41 -93 -89v-9q0 -23 19.5 -37.5t55.5 -14.5q43 0 84 30l17 -19q-52 -39 -102 -39q-47 -1 -75 19.5t-28 54.5 q0 8 1 13q9 52 69 85q-6 -1 -28 -1q-131 0 -204 63q-74 63 -74 168zM111 284h465q0 103 -58.5 151t-175.5 48q-115 0 -173 -48t-58 -151z" />
<glyph unicode="&#x11a;" horiz-adv-x="662" d="M357 797l90 109h39l-104 -125h-50l-105 125h40zM75 0v700h561v-40h-513v-277h493v-39h-493v-304h519v-40h-567z" />
<glyph unicode="&#x11b;" horiz-adv-x="683" d="M341 597l90 109h40l-105 -125h-50l-104 125h39zM65 214v66q0 237 277 237q281 0 281 -237v-15l-1 -11h-511v-44q0 -89 61.5 -141t169.5 -52q99 0 160.5 43.5t70.5 116.5h46q-14 -91 -87 -142.5t-189 -51.5q-131 0 -204 63q-74 63 -74 168zM111 284h465q0 103 -58.5 151 t-175.5 48q-115 0 -173 -48t-58 -151z" />
<glyph unicode="&#x11e;" horiz-adv-x="866" d="M561 906h23q-6 -54 -48 -84.5t-106 -30.5t-105.5 31t-47.5 84h23q4 -40 39 -62.5t91 -22.5t91 22.5t40 62.5zM65 300v92q0 167 95 245.5t281 78.5q309 0 359 -219h-49q-46 180 -310 180q-165 0 -246.5 -68.5t-81.5 -216.5v-92q0 -126 85 -202q86 -75 243 -75 q146 0 226.5 68t83.5 189v28h-302v35h348v-343h-36l-1 153q-78 -170 -319 -170q-177 0 -277 86q-99 87 -99 231z" />
<glyph unicode="&#x11f;" horiz-adv-x="670" d="M463 706h23q-6 -54 -48.5 -84.5t-105.5 -30.5q-64 0 -105.5 31t-47.5 84h22q5 -40 40 -62.5t91 -22.5t91 22.5t40 62.5zM65 231v54q0 108 66 169.5t185 61.5q168 0 236 -119l2 103h41v-500q0 -104 -63 -149.5t-188 -45.5q-216 0 -244 142h39q27 -111 205 -111 q104 0 154 36.5t50 118.5v118q-57 -112 -235 -112q-123 0 -185.5 56.5t-62.5 177.5zM548 233v54q0 89 -59 141t-165 52q-104 0 -158.5 -51t-54.5 -142v-54q0 -105 51.5 -152t161.5 -47q112 0 168 48t56 151z" />
<glyph unicode="&#x120;" horiz-adv-x="866" d="M65 300v92q0 167 95 245.5t281 78.5q309 0 359 -219h-49q-46 180 -310 180q-165 0 -246.5 -68.5t-81.5 -216.5v-92q0 -126 85 -202q86 -75 243 -75q146 0 226.5 68t83.5 189v28h-302v35h348v-343h-36l-1 153q-78 -170 -319 -170q-176 0 -277 86q-99 87 -99 231zM414 841 v38h40v-38h-40z" />
<glyph unicode="&#x121;" horiz-adv-x="670" d="M65 231v54q0 108 66 169.5t185 61.5q168 0 236 -119l2 103h41v-500q0 -104 -62.5 -149.5t-188.5 -45.5q-216 0 -244 142h39q27 -111 205 -111q104 0 154 36.5t50 118.5v118q-57 -112 -235 -112q-123 0 -185.5 56.5t-62.5 177.5zM548 233v54q0 89 -59 141t-165 52 q-104 0 -158.5 -51t-54.5 -142v-54q0 -105 52 -152t161 -47q112 0 168 48t56 151zM316 641v38h40v-38h-40z" />
<glyph unicode="&#x122;" horiz-adv-x="866" d="M65 300v92q0 167 95 245.5t281 78.5q309 0 359 -219h-49q-46 180 -310 180q-165 0 -246.5 -68.5t-81.5 -216.5v-92q0 -126 85 -202q86 -75 243 -75q146 0 226.5 68t83.5 189v28h-302v35h348v-343h-36l-1 153q-78 -170 -319 -170q-176 0 -277 86q-99 87 -99 231zM431 -129 v65h40v-65q0 -30 -19 -51t-55 -28v29q34 16 34 50z" />
<glyph unicode="&#x123;" horiz-adv-x="670" d="M333 615h-40v65q0 30 19 51t55 28v-29q-34 -16 -34 -50v-65zM65 231v54q0 108 66 169.5t185 61.5q168 0 236 -119l2 103h41v-500q0 -104 -62.5 -149.5t-188.5 -45.5q-216 0 -244 142h39q27 -111 205 -111q104 0 154 36.5t50 118.5v118q-57 -112 -235 -112 q-123 0 -185.5 56.5t-62.5 177.5zM548 233v54q0 89 -59 141t-165 52q-104 0 -158.5 -51t-54.5 -142v-54q0 -105 52 -152t161 -47q112 0 168 48t56 151z" />
<glyph unicode="&#x126;" horiz-adv-x="846" d="M690 560v140h48v-140h93v-36h-93v-524h-48v344h-532v-344h-49v524h-93v36h93v140h49v-140h532zM158 383h532v141h-532v-141z" />
<glyph unicode="&#x127;" horiz-adv-x="683" d="M145 631v69h45v-69h205v-33h-205v-192q56 111 227 111q117 0 169 -54.5t52 -179.5v-283h-45v280q0 108 -41 154q-40 45 -144 45q-218 0 -218 -199v-280h-45v598h-115v33h115z" />
<glyph unicode="&#x128;" horiz-adv-x="192" d="M-46 839l-23 12q34 58 87 58q21 0 39 -4q2 0 6.5 -1.5t8.5 -3.5t5 -2q2 -1 12 -5t11 -4q55 -21 76 -21q15 0 28 7q19 12 37 35l24 -13q-23 -31 -40.5 -44t-41.5 -14h-6q-21 0 -79 20q-4 0 -39 13q-16 6 -40 6q-38 0 -65 -39zM76 0v700h48v-700h-48z" />
<glyph unicode="&#x129;" horiz-adv-x="191" d="M-43 639l-23 12q34 58 86 58q21 0 39 -4q2 0 6.5 -1.5t9 -3.5t5.5 -2q2 0 11.5 -4t11.5 -5q56 -21 76 -21q14 0 27 7q19 11 38 35l24 -13q-25 -32 -42 -44.5t-40 -13.5h-7q-19 0 -79 20q-4 0 -39 13q-16 6 -40 6q-37 0 -64 -39zM77 0v500h46v-500h-46z" />
<glyph unicode="&#x12a;" horiz-adv-x="192" d="M-42 870v33h276v-33h-276zM75 0v700h48v-700h-48z" />
<glyph unicode="&#x12b;" horiz-adv-x="191" d="M-39 670v33h276v-33h-276zM76 0v500h46v-500h-46z" />
<glyph unicode="&#x12e;" horiz-adv-x="192" d="M75 0v700h48v-703q-104 -44 -112 -98v-9q0 -23 19.5 -37.5t56.5 -14.5q43 0 83 30l17 -19q-53 -39 -102 -39q-48 0 -75 20.5t-27 54.5q0 8 1 13q5 31 31 57.5t68 41.5z" />
<glyph unicode="&#x12f;" horiz-adv-x="191" d="M79 641v38h40v-38h-40zM76 0v500h46v-503q-105 -43 -112 -98q-1 -3 -1 -9q0 -22 19.5 -37t56.5 -15q43 0 83 30l17 -19q-51 -39 -102 -39q-47 -1 -74.5 20t-27.5 55q0 8 1 13q6 32 33 59t71 42z" />
<glyph unicode="&#x131;" horiz-adv-x="191" d="M75 0v500h46v-500h-46z" />
<glyph unicode="&#x132;" horiz-adv-x="666" d="M548 201v499h48v-499q0 -98 -72 -158t-193 -60q-69 0 -127 23v36q48 -19 119 -19h8q104 0 160.5 47t56.5 131zM75 0v700h48v-700h-48z" />
<glyph unicode="&#x133;" horiz-adv-x="394" d="M74 594v108h46v-108h-46zM281 594v108h47v-108h-47zM74 0v500h46v-500h-46zM281 -87v587h47v-593q0 -72 -90 -84q-22 -3 -47 -3v35q6 0 36 3q54 9 54 55z" />
<glyph unicode="&#x136;" horiz-adv-x="800" d="M123 299l546 401h70l-406 -298l404 -402h-62l-378 374l-174 -127v-247h-48v700h48v-401zM389 -129v65h39v-65q0 -30 -19 -51t-54 -28v29q34 16 34 50z" />
<glyph unicode="&#x137;" horiz-adv-x="597" d="M75 0v700h46v-458l347 259h67l-267 -198l306 -303h-61l-278 277l-114 -85v-192h-46zM294 -129v65h40v-65q0 -30 -19 -51t-55 -28v29q34 16 34 50z" />
<glyph unicode="&#x139;" horiz-adv-x="613" d="M193 781l129 125h47l-134 -125h-42zM75 0v700h48v-660h479v-40h-527z" />
<glyph unicode="&#x13a;" horiz-adv-x="190" d="M-4 781l128 125h47l-133 -125h-42zM76 0v700h46v-700h-46z" />
<glyph unicode="&#x13b;" horiz-adv-x="613" d="M75 0v700h48v-660h479v-40h-527zM291 -129v65h40v-65q0 -30 -19 -51t-55 -28v29q34 16 34 50z" />
<glyph unicode="&#x13c;" horiz-adv-x="190" d="M93 -129v65h40v-65q0 -30 -19 -51t-55 -28v29q34 16 34 50zM76 0v700h46v-700h-46z" />
<glyph unicode="&#x13d;" horiz-adv-x="613" d="M354 690v65h40v-65q0 -30 -19.5 -51t-54.5 -28v29q34 16 34 50zM75 0v700h48v-660h479v-40h-527z" />
<glyph unicode="&#x13e;" horiz-adv-x="282" d="M219 609v117h39v-117q0 -31 -18 -52t-50 -28v30q29 15 29 50zM75 0v700h46v-700h-46z" />
<glyph unicode="&#x13f;" horiz-adv-x="613" d="M75 0v700h48v-660h479v-40h-527zM340 290v112h46v-112h-46z" />
<glyph unicode="&#x140;" horiz-adv-x="262" d="M75 0v700h46v-700h-46zM190 257v112h47v-112h-47z" />
<glyph unicode="&#x141;" horiz-adv-x="677" d="M139 303v397h48v-369l274 160v-49l-274 -160v-242h479v-40h-527v254l-84 -49v49z" />
<glyph unicode="&#x142;" horiz-adv-x="456" d="M128 301v399h47v-372l270 158v-46l-270 -159v-281h-47v254l-83 -48v47z" />
<glyph unicode="&#x143;" d="M294 781l128 125h47l-133 -125h-42zM665 63v637h48v-700h-55l-536 637v-637h-48v700h55z" />
<glyph unicode="&#x144;" horiz-adv-x="648" d="M226 581l129 125h47l-134 -125h-42zM75 500h42v-99q59 116 234 116q118 0 171.5 -55t53.5 -179v-283h-46v280q0 108 -42 153q-40 46 -146 46q-222 0 -222 -199v-280h-45v500z" />
<glyph unicode="&#x145;" d="M665 63v637h48v-700h-55l-536 637v-637h-48v700h55zM391 -129v65h40v-65q0 -30 -19 -51t-55 -28v29q34 16 34 50z" />
<glyph unicode="&#x146;" horiz-adv-x="648" d="M75 500h42v-99q59 116 234 116q118 0 171.5 -55t53.5 -179v-283h-46v280q0 108 -42 153q-40 46 -146 46q-222 0 -222 -199v-280h-45v500zM324 -129v65h39v-65q0 -30 -19 -51t-54 -28v29q34 16 34 50z" />
<glyph unicode="&#x147;" d="M394 797l90 109h39l-104 -125h-50l-104 125h39zM665 63v637h48v-700h-55l-536 637v-637h-48v700h55z" />
<glyph unicode="&#x148;" horiz-adv-x="648" d="M326 597l90 109h40l-104 -125h-51l-104 125h39zM75 500h42v-99q59 116 234 116q118 0 171.5 -55t53.5 -179v-283h-46v280q0 108 -42 153q-40 46 -146 46q-222 0 -222 -199v-280h-45v500z" />
<glyph unicode="&#x14a;" d="M665 63v637h48v-678q0 -99 -71.5 -158t-193.5 -59q-69 0 -126 22v36q48 -19 126 -19q93 1 149.5 40.5t65.5 109.5l-541 643v-637h-48v700h55z" />
<glyph unicode="&#x14b;" horiz-adv-x="647" d="M75 500h42v-99q59 116 234 116q118 0 171.5 -55t53.5 -179v-376q0 -72 -89 -84q-22 -3 -47 -3v35q15 1 37 4q53 9 53 53v368q0 108 -42 153q-40 46 -146 46q-222 0 -222 -199v-280h-45v500z" />
<glyph unicode="&#x14c;" horiz-adv-x="884" d="M303 870v33h276v-33h-276zM65 300v92q0 167 95 245.5t281 78.5t281.5 -78.5t95.5 -245.5v-92q2 -142 -100 -230t-277 -87q-176 0 -277 86q-99 87 -99 231zM770 300v92q0 148 -82 216.5t-247 68.5t-246.5 -68.5t-81.5 -216.5v-92q0 -126 85 -202q86 -75 243 -75t243 75 q86 77 86 202z" />
<glyph unicode="&#x14d;" horiz-adv-x="687" d="M206 670v33h276v-33h-276zM65 214v66q0 237 278 237q280 0 280 -237v-66q0 -104 -75 -168q-75 -63 -205 -63q-129 0 -204 63q-74 65 -74 168zM577 214v66q0 103 -58.5 151t-175.5 48q-116 0 -173.5 -48t-57.5 -151v-66q0 -89 61 -141t170 -52t171.5 52.5t62.5 140.5z" />
<glyph unicode="&#x150;" horiz-adv-x="884" d="M65 300v92q0 167 95 245.5t281 78.5t281.5 -78.5t95.5 -245.5v-92q2 -142 -100 -230t-277 -87q-176 0 -277 86q-99 87 -99 231zM770 300v92q0 148 -82 216.5t-247 68.5t-246.5 -68.5t-81.5 -216.5v-92q0 -126 85 -202q86 -75 243 -75t243 75q86 77 86 202zM260 781 l129 125h47l-133 -125h-43zM434 781l128 125h48l-134 -125h-42z" />
<glyph unicode="&#x151;" horiz-adv-x="687" d="M164 581l128 125h48l-134 -125h-42zM337 581l129 125h47l-134 -125h-42zM65 214v66q0 237 278 237q280 0 280 -237v-66q0 -104 -75 -168q-75 -63 -205 -63q-129 0 -204 63q-74 63 -74 168zM577 214v66q0 103 -58.5 151t-175.5 48q-116 0 -173.5 -48t-57.5 -151v-66 q0 -89 61 -141t170 -52t171.5 52.5t62.5 140.5z" />
<glyph unicode="&#x152;" horiz-adv-x="1189" d="M-62 300v92q0 167 95 245.5t281 78.5q180 0 274 -75v59h561v-40h-513v-277h493v-39h-493v-304h519v-40h-567v68q-101 -85 -274 -85q-176 0 -277 86q-99 87 -99 231zM582 129v451q-72 97 -268 97q-165 0 -246 -68.5t-81 -216.5v-92q0 -126 85 -202q86 -75 242 -75 q186 0 268 106z" />
<glyph unicode="&#x153;" horiz-adv-x="1200" d="M65 214v66q0 237 278 237q206 0 259 -137q51 137 258 137q280 0 280 -237v-14v-12h-512v-53q0 -84 62 -134t170 -50q98 0 159.5 43.5t70.5 116.5h46q-13 -90 -86 -142t-190 -52q-98 0 -164.5 37t-93.5 106q-26 -67 -94 -105t-165 -38q-131 0 -204 63q-74 63 -74 168z M628 284h465q0 103 -58.5 151t-174.5 48t-172.5 -47t-59.5 -152zM576 206v74q0 103 -58.5 151t-174.5 48t-174 -48t-58 -151v-66q0 -89 61.5 -141t170.5 -52q107 0 169 52q64 52 64 133z" />
<glyph unicode="&#x154;" horiz-adv-x="753" d="M271 781l129 125h47l-133 -125h-43zM75 0v700h303q138 0 213 -41.5t75 -125.5v-46q0 -63 -55.5 -104t-154.5 -53l234 -330h-58l-229 323h-280v-323h-48zM619 488v44q0 129 -240 129h-256v-299h256q110 0 175 34.5t65 91.5z" />
<glyph unicode="&#x155;" horiz-adv-x="349" d="M67 581l129 125h47l-134 -125h-42zM75 500h42v-120q29 69 83 101.5t139 35.5v-39q-105 -3 -162 -60t-57 -161v-257h-45v500z" />
<glyph unicode="&#x156;" horiz-adv-x="753" d="M75 0v700h303q138 0 213 -41.5t75 -125.5v-46q0 -63 -55.5 -104t-154.5 -53l234 -330h-58l-229 323h-280v-323h-48zM619 488v44q0 129 -240 129h-256v-299h256q110 0 175 34.5t65 91.5zM369 -129v65h40v-65q0 -30 -19 -51t-55 -28v29q34 16 34 50z" />
<glyph unicode="&#x157;" horiz-adv-x="349" d="M75 500h42v-120q29 69 83 101.5t139 35.5v-39q-105 -3 -162 -60t-57 -161v-257h-45v500zM165 -129v65h40v-65q0 -30 -19 -51t-55 -28v29q34 16 34 50z" />
<glyph unicode="&#x158;" horiz-adv-x="753" d="M75 0v700h303q138 0 213 -41.5t75 -125.5v-46q0 -63 -55.5 -104t-154.5 -53l234 -330h-58l-229 323h-280v-323h-48zM619 488v44q0 129 -240 129h-256v-299h256q110 0 175 34.5t65 91.5zM372 797l90 109h39l-104 -125h-50l-104 125h39z" />
<glyph unicode="&#x159;" horiz-adv-x="349" d="M167 597l90 109h39l-104 -125h-50l-104 125h39zM74 500h42v-120q29 69 83 101.5t139 35.5v-39q-105 -3 -162 -60t-57 -161v-257h-45v500z" />
<glyph unicode="&#x15a;" horiz-adv-x="770" d="M89 521v19q0 176 295 176q302 0 302 -176v-19h-46v21q0 134 -256 134q-249 0 -249 -134v-19q0 -30 28.5 -54.5t80.5 -40.5l320 -87q144 -41 144 -154v-16q0 -87 -86 -137.5t-238 -50.5q-150 0 -235.5 50.5t-85.5 137.5v51h46v-52q0 -67 72.5 -106.5t202.5 -39.5 q131 0 204.5 39.5t73.5 106.5v17q0 84 -115 115l-323 88q-135 37 -135 131zM284 781l128 125h48l-134 -125h-42z" />
<glyph unicode="&#x15b;" horiz-adv-x="605" d="M202 581l128 125h47l-133 -125h-42zM87 373v15q0 129 215 129q218 0 220 -128v-14h-41v14q-1 93 -179 93q-173 0 -173 -92v-14q0 -19 22.5 -36.5t59.5 -28.5l223 -61q111 -32 111 -118v-5q0 -66 -64.5 -105t-178.5 -39q-113 0 -176.5 38t-64.5 104v31h42v-31 q0 -49 53 -78.5t146 -29.5t146 28.5t54 77.5v6q2 60 -86 86l-231 63q-98 27 -98 95z" />
<glyph unicode="&#x15e;" horiz-adv-x="770" d="M89 521v19q0 176 295 176q302 0 302 -176v-19h-46v21q0 134 -256 134q-249 0 -249 -134v-19q0 -63 109 -95l320 -87q144 -41 144 -154v-16q0 -83 -81 -134t-225 -53l-32 -35q22 2 28 2h11q39 -1 64 -17t25 -47q0 -69 -106 -75h-8q-61 0 -108 16l10 24q48 -12 90 -12h7 q35 0 57.5 12t22.5 36q0 17 -19.5 27t-47.5 9q-36 0 -61 -11l-21 12l50 59q-142 4 -221.5 53.5t-79.5 133.5v51h46v-52q0 -67 72.5 -106.5t202.5 -39.5q131 0 204.5 39.5t73.5 106.5v17q0 84 -115 115l-323 88q-135 37 -135 131z" />
<glyph unicode="&#x15f;" horiz-adv-x="605" d="M87 373v15q0 129 215 129q218 0 220 -128v-14h-42v14q0 93 -178 93q-173 0 -173 -92v-14q0 -19 22.5 -36.5t59.5 -28.5l223 -61q111 -32 111 -118v-5q0 -63 -59.5 -102t-165.5 -42l-32 -34q22 2 29 2h11q39 -1 64 -17t25 -47q0 -69 -106 -75h-8q-61 0 -108 16l9 24 q50 -12 91 -12h7q79 0 79 48q0 18 -19 28t-47 8q-36 0 -61 -11l-22 12l50 58q-104 4 -162 41.5t-59 100.5v31h42v-31q0 -49 53 -78.5t146 -29.5t146 28.5t54 77.5v6q2 60 -86 86l-231 63q-98 27 -98 95z" />
<glyph unicode="&#x160;" horiz-adv-x="770" d="M384 797l90 109h40l-105 -125h-50l-104 125h39zM89 521v19q0 176 295 176q302 0 302 -176v-19h-46v21q0 134 -256 134q-249 0 -249 -134v-19q0 -30 28.5 -54.5t80.5 -40.5l320 -87q144 -41 144 -154v-16q0 -87 -86 -137.5t-238 -50.5q-150 0 -235.5 50.5t-85.5 137.5v51 h46v-52q0 -67 72.5 -106.5t202.5 -39.5q131 0 204.5 39.5t73.5 106.5v17q0 84 -115 115l-323 88q-135 37 -135 131z" />
<glyph unicode="&#x161;" horiz-adv-x="605" d="M302 597l90 109h39l-104 -125h-50l-104 125h39zM87 373v15q0 129 215 129q218 0 220 -128v-14h-42v14q0 93 -178 93q-173 0 -173 -92v-14q0 -19 22.5 -36.5t59.5 -28.5l223 -61q111 -32 111 -118v-5q0 -66 -64.5 -105t-178.5 -39q-113 0 -176.5 38t-64.5 104v31h42v-31 q0 -49 53 -78.5t146 -29.5t146 28.5t54 77.5v6q2 60 -86 86l-231 63q-98 27 -98 95z" />
<glyph unicode="&#x164;" horiz-adv-x="704" d="M351 797l90 109h39l-104 -125h-50l-104 125h39zM24 660v40h655v-40h-307v-660h-49v660h-299z" />
<glyph unicode="&#x165;" horiz-adv-x="378" d="M316 609v117h39v-117q0 -31 -18 -52t-50 -28v30q29 15 29 50zM122 500v108h46v-108h118v-33h-118v-394q0 -24 19.5 -39.5t52.5 -15.5h46v-33h-59q-48 0 -76.5 22t-28.5 61v399h-98v33h98z" />
<glyph unicode="&#x166;" horiz-adv-x="704" d="M214 870v33h276v-33h-276zM25 660v40h655v-40h-307v-660h-49v660h-299z" />
<glyph unicode="&#x167;" horiz-adv-x="321" d="M122 500v108h46v-108h118v-33h-118v-128h118v-32h-118v-234q0 -24 19.5 -39.5t52.5 -15.5h46v-33h-59q-48 0 -76.5 22t-28.5 61v239h-98v32h98v128h-98v33h98z" />
<glyph unicode="&#x168;" d="M249 839l-23 12q36 58 87 58q21 0 39 -4q3 -1 11 -4t10 -3t11.5 -4t11.5 -5q56 -21 75 -21q24 3 38 12.5t27 29.5l25 -13q-25 -32 -42 -44.5t-40 -13.5h-7q-19 0 -79 20q-4 0 -39 13q-16 6 -40 6q-38 0 -65 -39zM670 250v450h49v-450q0 -120 -87 -194q-86 -73 -239 -73 q-152 0 -238 73q-87 74 -87 194v450h48v-450q0 -105 73.5 -166t203.5 -61t203.5 61t73.5 166z" />
<glyph unicode="&#x169;" horiz-adv-x="645" d="M178 639l-23 12q34 58 87 58q20 0 38 -4l21 -7q2 -1 12 -5t11 -4q55 -21 76 -21q15 0 28 7q19 12 37 35l24 -13q-23 -31 -40.5 -44t-41.5 -14h-6q-21 0 -79 20q-4 0 -39 13q-16 6 -40 6q-40 0 -65 -39zM525 220v280h45v-500h-42v99q-57 -116 -235 -116 q-118 0 -170.5 53.5t-52.5 175.5v288h45v-280q0 -109 42.5 -154t146.5 -45q221 0 221 199z" />
<glyph unicode="&#x16a;" d="M255 870v33h275v-33h-275zM670 250v450h49v-450q0 -121 -88 -194q-86 -73 -238 -73t-238 73q-87 74 -87 194v450h48v-450q0 -105 73.5 -166t203.5 -61t203.5 61t73.5 166z" />
<glyph unicode="&#x16b;" horiz-adv-x="645" d="M184 670v33h276v-33h-276zM526 220v280h45v-500h-42v99q-57 -116 -235 -116q-118 0 -171 53.5t-53 175.5v288h46v-280q0 -109 42.5 -154t146.5 -45q221 0 221 199z" />
<glyph unicode="&#x16e;" d="M393 955q42 0 73 -27t31 -64q0 -38 -30.5 -64.5t-73.5 -26.5t-74 27t-31 64t31.5 64t73.5 27zM314 864q0 -26 23.5 -45t55.5 -19q50 -2 71.5 40t-16.5 69q-33 32 -84.5 14t-49.5 -59zM670 250v450h49v-450q0 -120 -87 -194q-86 -73 -239 -73q-152 0 -238 73 q-87 74 -87 194v450h48v-450q0 -105 73.5 -166t203.5 -61t203.5 61t73.5 166z" />
<glyph unicode="&#x16f;" horiz-adv-x="645" d="M321 755q42 0 73 -27q32 -27 32 -64q0 -38 -31.5 -64.5t-73.5 -26.5q-41 0 -72.5 27t-31.5 64t31.5 64t72.5 27zM243 664q0 -26 23 -45t55 -19q50 -2 72 40t-17 69q-25 20 -55 20t-55 -19.5t-23 -45.5zM525 220v280h45v-500h-42v99q-57 -116 -235 -116 q-118 0 -170.5 53.5t-52.5 175.5v288h45v-280q0 -109 42.5 -154t146.5 -45q221 0 221 199z" />
<glyph unicode="&#x170;" d="M212 781l129 125h47l-134 -125h-42zM386 781l128 125h48l-134 -125h-42zM670 250v450h48v-450q0 -120 -87 -194q-86 -73 -238 -73t-238 73q-87 74 -87 194v450h48v-450q0 -105 73.5 -166t203.5 -61t203.5 61t73.5 166z" />
<glyph unicode="&#x171;" horiz-adv-x="645" d="M142 581l129 125h47l-134 -125h-42zM315 581l129 125h47l-134 -125h-42zM526 220v280h45v-500h-42v99q-57 -116 -235 -116q-118 0 -171 53.5t-53 175.5v288h46v-280q0 -109 42.5 -154t146.5 -45q221 0 221 199z" />
<glyph unicode="&#x172;" d="M670 250v450h48v-450q0 -100 -60.5 -168t-168.5 -90q-91 -42 -99 -93q-1 -3 -1 -8q0 -24 20 -38.5t56 -14.5q43 0 83 30l17 -19q-53 -39 -102 -39q-47 -1 -74.5 20t-27.5 55q0 8 1 13q9 52 72 87q-36 -2 -41 -2q-152 0 -238 73q-87 74 -87 194v450h48v-450 q0 -105 73.5 -166t203.5 -61t203.5 61t73.5 166z" />
<glyph unicode="&#x173;" horiz-adv-x="645" d="M526 220v280h45v-485l-11 -18q-102 -43 -111 -98v-8q0 -24 19.5 -38.5t55.5 -14.5q44 0 84 30l17 -19q-53 -39 -102 -39q-47 -1 -75 20t-28 55q0 8 1 13q6 32 34 59.5t74 42.5v99q-57 -116 -235 -116q-118 0 -171 53.5t-53 175.5v288h46v-280q0 -109 42.5 -154t146.5 -45 q221 0 221 199z" />
<glyph unicode="&#x174;" horiz-adv-x="1208" d="M476 781l104 125h50l105 -125h-40l-90 108l-90 -108h-39zM866 47l235 653h52l-261 -700h-54l-235 641l-233 -641h-55l-260 700h51l235 -653l233 653h60z" />
<glyph unicode="&#x175;" horiz-adv-x="908" d="M327 581l105 125h50l104 -125h-39l-90 108l-90 -108h-40zM646 37l170 463h47l-192 -500h-51l-166 448l-167 -448h-51l-191 500h48l169 -463l165 463h54z" />
<glyph unicode="&#x176;" horiz-adv-x="900" d="M448 314l324 386h63l-362 -429v-271h-48v271l-361 429h62zM321 781l104 125h50l104 -125h-39l-90 108l-90 -108h-39z" />
<glyph unicode="&#x177;" horiz-adv-x="594" d="M170 581l104 125h51l104 -125h-39l-90 108l-90 -108h-40zM302 25l209 475h48l-307 -680h-38l77 176h-16l-230 504h49z" />
<glyph unicode="&#x178;" horiz-adv-x="900" d="M328 841v38h39v-38h-39zM531 841v38h40v-38h-40zM448 314l324 386h63l-362 -429v-271h-48v271l-361 429h62z" />
<glyph unicode="&#x179;" horiz-adv-x="666" d="M232 781l129 125h47l-133 -125h-43zM41 660v40h585v-34l-525 -626h531v-40h-597v34l524 626h-518z" />
<glyph unicode="&#x17a;" horiz-adv-x="508" d="M154 581l129 125h47l-134 -125h-42zM45 462v38h419v-32l-361 -430h367v-38h-431v32l361 430h-355z" />
<glyph unicode="&#x17b;" horiz-adv-x="666" d="M41 660v40h585v-34l-525 -626h531v-40h-597v34l524 626h-518zM313 841v38h40v-38h-40z" />
<glyph unicode="&#x17c;" horiz-adv-x="508" d="M45 462v38h419v-32l-361 -430h367v-38h-431v32l361 430h-355zM235 641v38h40v-38h-40z" />
<glyph unicode="&#x17d;" horiz-adv-x="666" d="M332 797l90 109h39l-104 -125h-50l-104 125h39zM40 660v40h585v-34l-525 -626h531v-40h-597v34l524 626h-518z" />
<glyph unicode="&#x17e;" horiz-adv-x="508" d="M255 597l90 109h39l-104 -125h-50l-104 125h39zM45 462v38h419v-32l-361 -430h367v-38h-431v32l361 430h-355z" />
<glyph unicode="&#x192;" horiz-adv-x="342" d="M254 702h59v-33h-46q-33 0 -52.5 -15t-19.5 -41v-122h118v-33h-118v-551q0 -36 -20 -55t-65 -26q-33 -6 -81 -6v35q37 0 69 5q29 6 39.5 18t10.5 35v545h-97v33h97v122q0 41 29 65t77 24z" />
<glyph unicode="&#x1e6;" horiz-adv-x="866" d="M434 797l90 109h39l-104 -125h-50l-104 125h39zM65 300v92q0 167 95 245.5t281 78.5q309 0 359 -219h-49q-46 180 -310 180q-165 0 -246.5 -68.5t-81.5 -216.5v-92q0 -126 85 -202q86 -75 243 -75q146 0 226.5 68t83.5 189v28h-302v35h348v-343h-36l-1 153 q-78 -170 -319 -170q-176 0 -277 86q-99 87 -99 231z" />
<glyph unicode="&#x1e7;" horiz-adv-x="670" d="M336 597l90 109h39l-104 -125h-50l-105 125h40zM65 231v54q0 108 66 169.5t185 61.5q168 0 236 -119l2 103h41v-500q0 -104 -63 -149.5t-188 -45.5q-216 0 -244 142h39q27 -111 205 -111q104 0 154 36.5t50 118.5v118q-57 -112 -235 -112q-123 0 -185.5 56.5t-62.5 177.5 zM548 233v54q0 89 -59 141t-165 52q-104 0 -158.5 -51t-54.5 -142v-54q0 -105 51.5 -152t161.5 -47q112 0 168 48t56 151z" />
<glyph unicode="&#x1fe;" horiz-adv-x="884" d="M468 906h47l-134 -125h-42zM633 750h43l-35 -65q177 -69 177 -293v-92q2 -142 -100 -230t-277 -87q-87 0 -161 23l-30 -56h-43l37 70q-87 38 -133 111t-46 169v92q0 167 95 245.5t281 78.5q95 0 164 -19zM113 392v-92q0 -84 38.5 -146.5t112.5 -96.5l321 603 q-63 17 -144 17q-165 0 -246.5 -68.5t-81.5 -216.5zM770 300v92q0 194 -149 256l-321 -605q63 -20 141 -20q157 0 243 75q86 77 86 202z" />
<glyph unicode="&#x1ff;" horiz-adv-x="688" d="M369 706h48l-134 -125h-42zM487 550h34l-30 -57q132 -51 132 -213v-66q0 -104 -75 -168q-75 -63 -205 -63q-65 0 -116 16l-26 -49h-34l32 60q-64 27 -99 80t-35 124v66q0 237 277 237q67 0 120 -14zM111 280v-66q0 -119 107 -169l225 422q-42 12 -100 12q-116 0 -174 -48 t-58 -151zM576 214v66q0 136 -104 178l-226 -423q45 -14 97 -14q109 0 171 52.5t62 140.5z" />
<glyph unicode="&#x218;" horiz-adv-x="770" d="M89 521v19q0 176 295 176q302 0 302 -176v-19h-46v21q0 134 -256 134q-249 0 -249 -134v-19q0 -30 28.5 -54.5t80.5 -40.5l320 -87q144 -41 144 -154v-16q0 -87 -86 -137.5t-238 -50.5q-150 0 -235.5 50.5t-85.5 137.5v51h46v-52q0 -67 72.5 -106.5t202.5 -39.5 q131 0 204.5 39.5t73.5 106.5v17q0 84 -115 115l-323 88q-135 37 -135 131zM383 -129v65h39v-65q0 -30 -19 -51t-54 -28v29q34 16 34 50z" />
<glyph unicode="&#x219;" horiz-adv-x="605" d="M87 373v15q0 129 215 129q218 0 220 -128v-14h-41v14q-1 93 -179 93q-173 0 -173 -92v-14q0 -19 22.5 -36.5t59.5 -28.5l223 -61q111 -32 111 -118v-5q0 -66 -64.5 -105t-178.5 -39q-113 0 -176.5 38t-64.5 104v31h42v-31q0 -49 53 -78.5t146 -29.5t146 28.5t54 77.5v6 q2 60 -86 86l-231 63q-98 27 -98 95zM302 -129v65h39v-65q0 -30 -19 -51t-55 -28v29q35 17 35 50z" />
<glyph unicode="&#x21a;" horiz-adv-x="704" d="M25 660v40h655v-40h-307v-660h-49v660h-299zM349 -129v65h40v-65q0 -30 -19 -51t-55 -28v29q34 16 34 50z" />
<glyph unicode="&#x21b;" horiz-adv-x="321" d="M122 500v108h46v-108h118v-33h-118v-394q0 -24 19.5 -39.5t52.5 -15.5h46v-33h-59q-48 0 -76.5 22t-28.5 61v399h-98v33h98zM152 -129v65h40v-65q0 -30 -19 -51t-55 -28v29q34 16 34 50z" />
<glyph unicode="&#x228;" horiz-adv-x="662" d="M75 0v700h561v-40h-513v-277h493v-39h-493v-304h519v-40h-254l-47 -51q17 3 29 3h10q39 -1 64 -17.5t25 -46.5q0 -70 -105 -75h-9q-57 0 -107 15l9 25q45 -13 90 -13h7q80 2 80 48q0 18 -18.5 27.5t-48.5 9.5q-34 0 -61 -12l-21 13l64 74h-274z" />
<glyph unicode="&#x22a;" horiz-adv-x="884" d="M303 907v33h276v-33h-276zM319 816v37h40v-37h-40zM522 816v37h40v-37h-40zM65 300v92q0 167 95 245.5t281 78.5t281.5 -78.5t95.5 -245.5v-92q2 -142 -100 -230t-277 -87q-176 0 -277 86q-99 87 -99 231zM770 300v92q0 148 -82 216.5t-247 68.5t-246.5 -68.5 t-81.5 -216.5v-92q0 -126 85 -202q86 -75 243 -75t243 75q86 77 86 202z" />
<glyph unicode="&#x2c6;" horiz-adv-x="328" d="M36 581l104 125h50l104 -125h-39l-90 108l-90 -108h-39z" />
<glyph unicode="&#x2c7;" horiz-adv-x="323" d="M161 597l90 109h39l-104 -125h-50l-104 125h39z" />
<glyph unicode="&#x2d8;" horiz-adv-x="378" d="M316 706h23q-6 -54 -48 -84.5t-106 -30.5t-105.5 31t-47.5 84h23q4 -40 39 -62.5t91 -22.5t91 22.5t40 62.5z" />
<glyph unicode="&#x2d9;" horiz-adv-x="182" d="M74 641v38h40v-38h-40z" />
<glyph unicode="&#x2da;" horiz-adv-x="304" d="M257 664q0 -38 -30.5 -64.5t-73.5 -26.5t-74 27t-31 64t31 64t74 27q42 0 73 -27t31 -64zM208 709q-23 20 -55 20t-56 -20q-23 -19 -23 -45t23 -45q24 -19 56 -19t55 19t23 45t-23 45z" />
<glyph unicode="&#x2db;" horiz-adv-x="278" d="M152 0h38q-109 -44 -118 -101v-8q0 -24 19.5 -38.5t55.5 -14.5q43 0 84 30l17 -19q-52 -39 -102 -39q-47 -1 -75 20t-28 55q0 8 1 13q6 32 34 59.5t74 42.5z" />
<glyph unicode="&#x2dc;" horiz-adv-x="414" d="M64 639l-24 12q36 58 87 58q21 0 39 -4q2 0 6.5 -1.5t9 -3.5t5.5 -2q2 0 11.5 -4t11.5 -5q56 -21 75 -21q24 3 37.5 12t28.5 30l24 -13q-25 -32 -42 -44.5t-40 -13.5h-7q-19 0 -79 20q-4 0 -39 13q-16 6 -40 6q-38 0 -64 -39z" />
<glyph unicode="&#x2dd;" horiz-adv-x="422" d="M33 581l129 125h47l-133 -125h-43zM207 581l128 125h48l-134 -125h-42z" />
<glyph unicode="&#x323;" horiz-adv-x="0" d="M74 -182v37h40v-37h-40z" />
<glyph unicode="&#x3c0;" horiz-adv-x="124" />
<glyph unicode="&#x1e80;" horiz-adv-x="1208" d="M651 781l-134 125h48l128 -125h-42zM866 47l235 653h52l-261 -700h-54l-235 641l-233 -641h-55l-260 700h51l235 -653l233 653h60z" />
<glyph unicode="&#x1e81;" horiz-adv-x="908" d="M503 581l-134 125h47l129 -125h-42zM646 37l170 463h47l-192 -500h-51l-166 448l-167 -448h-51l-191 500h48l169 -463l165 463h54z" />
<glyph unicode="&#x1e82;" horiz-adv-x="1208" d="M866 47l235 653h52l-261 -700h-54l-235 641l-233 -641h-55l-260 700h51l235 -653l233 653h60zM504 781l128 125h48l-134 -125h-42z" />
<glyph unicode="&#x1e83;" horiz-adv-x="908" d="M355 581l129 125h47l-134 -125h-42zM646 37l170 463h47l-192 -500h-51l-166 448l-167 -448h-51l-191 500h48l169 -463l165 463h54z" />
<glyph unicode="&#x1e84;" horiz-adv-x="1208" d="M866 47l235 653h52l-261 -700h-54l-235 641l-233 -641h-55l-260 700h51l235 -653l233 653h60zM483 841v38h40v-38h-40zM686 841v38h40v-38h-40z" />
<glyph unicode="&#x1e85;" horiz-adv-x="908" d="M646 37l170 463h47l-192 -500h-51l-166 448l-167 -448h-51l-191 500h48l169 -463l165 463h54zM334 641v38h40v-38h-40zM537 641v38h40v-38h-40z" />
<glyph unicode="&#x1ef2;" horiz-adv-x="900" d="M496 781l-134 125h48l128 -125h-42zM448 314l324 386h63l-362 -429v-271h-48v271l-361 429h62z" />
<glyph unicode="&#x1ef3;" horiz-adv-x="594" d="M346 581l-134 125h47l129 -125h-42zM302 25l209 475h48l-307 -680h-38l77 176h-16l-230 504h49z" />
<glyph unicode="&#x2013;" horiz-adv-x="600" d="M74 252v38h453v-38h-453z" />
<glyph unicode="&#x2014;" horiz-adv-x="791" d="M74 252v38h643v-38h-643z" />
<glyph unicode="&#x2018;" horiz-adv-x="184" d="M112 525h-47v128q0 32 21 55t60 29v-32q-34 -16 -34 -51v-129z" />
<glyph unicode="&#x2019;" horiz-adv-x="184" d="M78 609v129h46v-129q0 -31 -21 -54t-60 -29v32q35 17 35 51z" />
<glyph unicode="&#x201a;" horiz-adv-x="184" d="M78 -16v128h46v-128q0 -33 -21 -55t-60 -29v32q35 17 35 52z" />
<glyph unicode="&#x201c;" horiz-adv-x="362" d="M115 525h-46v128q0 33 21 55t60 29v-32q-35 -17 -35 -51v-129zM267 525h-47v128q0 32 21 55t60 29v-32q-34 -16 -34 -52v-128z" />
<glyph unicode="&#x201d;" horiz-adv-x="366" d="M100 609v129h46v-129q0 -31 -21 -54t-60 -29v32q35 17 35 51zM251 609v129h47v-129q0 -32 -21 -54t-60 -29v32q34 16 34 51z" />
<glyph unicode="&#x201e;" horiz-adv-x="366" d="M100 -16v128h46v-128q0 -33 -21 -55t-60 -29v32q35 17 35 52zM251 -16v128h47v-128q0 -33 -21 -55t-60 -29v32q34 16 34 52z" />
<glyph unicode="&#x2020;" horiz-adv-x="358" d="M155 475v220h47v-220h131v-39h-131v-571h-47v571h-130v39h130z" />
<glyph unicode="&#x2021;" horiz-adv-x="359" d="M155 475v220h47v-220h131v-39h-131v-312h131v-38h-131v-221h-47v221h-130v38h130v312h-130v39h130z" />
<glyph unicode="&#x2022;" horiz-adv-x="376" d="M315 311q0 -46 -37.5 -78t-90.5 -32t-90 32t-37 78q0 48 37 79q38 32 90 32t90 -32t38 -79z" />
<glyph unicode="&#x2026;" horiz-adv-x="486" d="M74 0v112h46v-112h-46zM220 0v112h47v-112h-47zM367 0v112h46v-112h-46z" />
<glyph unicode="&#x2030;" horiz-adv-x="1389" d="M185 -36l556 738h46l-556 -738h-46zM65 489v41q0 152 179 152q181 0 181 -152v-41q0 -67 -49 -107t-132 -40q-81 0 -130 40.5t-49 106.5zM390 489v41q0 121 -146 121q-144 0 -144 -121v-41q0 -53 39 -85t105 -32q68 0 107 31.5t39 85.5zM557 133v42q0 151 179 151 q180 0 180 -151v-42q0 -66 -49 -106.5t-131 -40.5q-81 0 -130 40.5t-49 106.5zM983 133v42q0 151 179 151q180 0 180 -151v-42q0 -66 -49 -106.5t-131 -40.5q-81 0 -130 40.5t-49 106.5zM881 133v42q0 120 -145 120q-144 0 -144 -120v-42q0 -52 39 -84.5t105 -32.5 q67 0 106 32.5t39 84.5zM1307 133v42q0 120 -145 120q-144 0 -144 -120v-42q0 -52 39 -84.5t105 -32.5q67 0 106 32t39 85z" />
<glyph unicode="&#x2039;" horiz-adv-x="247" d="M30 236v59l148 122v-50l-122 -102l122 -101v-50z" />
<glyph unicode="&#x203a;" horiz-adv-x="251" d="M196 265l-122 102v50l148 -122v-59l-148 -122v50z" />
<glyph unicode="&#x2044;" horiz-adv-x="405" d="M25 -2l314 704h42l-312 -704h-44z" />
<glyph unicode="&#x20ac;" horiz-adv-x="748" d="M56 411v33h62q10 127 88.5 200t207.5 73q101 0 172 -45t103 -127h-47q-28 63 -86.5 97.5t-141.5 34.5q-111 0 -175 -64q-65 -64 -71 -169h375v-33h-377v-123h377v-33h-375q6 -107 71.5 -169.5t174.5 -62.5q83 0 141.5 34.5t86.5 97.5h47q-32 -82 -103 -127t-172 -45 q-129 0 -207.5 72.5t-88.5 199.5h-62v33h61v123h-61z" />
<glyph unicode="&#x2122;" horiz-adv-x="1031" d="M56 666v34h383v-34h-174v-376h-38v376h-171zM729 333l182 367h47v-410h-36v352l-175 -352h-35l-174 352v-352h-35v410h46z" />
<glyph unicode="&#x2126;" horiz-adv-x="833" />
<glyph unicode="&#x215b;" horiz-adv-x="975" d="M177 -17l392 734h43l-392 -734h-43zM146 700h31v-412h-36v369q-47 -45 -126 -63v32q47 12 74 28t57 46zM575 300v25q0 94 155 94t155 -94v-25q0 -54 -60 -73q85 -22 85 -95v-32q0 -49 -48.5 -77.5t-131.5 -28.5t-131 28.5t-48 77.5v32q0 72 84 95q-60 21 -60 73zM850 300 v25q0 62 -120 62q-119 0 -119 -62v-25q0 -27 31.5 -43.5t87.5 -16.5q58 0 89 16t31 44zM874 100v33q0 75 -144 75q-143 0 -143 -75v-33q0 -33 38 -53t105 -20q69 0 106.5 19.5t37.5 53.5z" />
<glyph unicode="&#x215c;" horiz-adv-x="1152" d="M356 -17l392 734h43l-391 -734h-44zM109 583h-35v28q0 93 154 93q156 0 156 -93v-26q0 -49 -60 -72q84 -19 84 -94v-29q0 -49 -48 -77.5t-132 -28.5q-83 0 -130.5 28.5t-47.5 77.5v33h36v-33q0 -35 37.5 -55t104.5 -20q69 0 107 20t38 55v29q0 73 -135 75h-27v31h25 q52 0 82 16t30 43v27q0 63 -120 63q-119 0 -119 -63v-28zM755 300v25q0 94 154 94q156 0 156 -94v-25q0 -53 -61 -73q85 -22 85 -95v-32q0 -49 -48 -77.5t-132 -28.5q-82 0 -130.5 28.5t-48.5 77.5v32q0 72 84 95q-59 21 -59 73zM1029 300v25q0 62 -120 62q-119 0 -119 -62 v-25q0 -27 31.5 -43.5t87.5 -16.5q58 0 89 16t31 44zM1053 100v33q0 75 -144 75q-143 0 -143 -75v-33q0 -34 38 -53.5t105 -19.5q69 0 106.5 19.5t37.5 53.5z" />
<glyph unicode="&#x215d;" horiz-adv-x="1143" d="M348 -17l392 734h43l-391 -734h-44zM62 475l55 225h261v-33h-233l-38 -144q43 38 129 38q165 0 165 -124v-35q0 -56 -46 -90t-124 -34q-77 0 -123 34t-46 90v24h36v-24q0 -42 35 -66.5t98 -24.5t98.5 24.5t35.5 66.5v35q0 95 -134 95q-105 0 -128 -57h-41zM746 300v25 q0 94 155 94q156 0 156 -94v-25q0 -24 -16.5 -43.5t-44.5 -29.5q85 -22 85 -95v-32q0 -49 -48.5 -77.5t-131.5 -28.5q-82 0 -130.5 28.5t-48.5 77.5v32q0 72 84 95q-60 21 -60 73zM1021 300v25q0 62 -120 62q-119 0 -119 -62v-25q0 -27 31.5 -43.5t87.5 -16.5q58 0 89 16 t31 44zM1045 100v33q0 75 -144 75q-143 0 -143 -75v-33q0 -33 38 -53t105 -20q68 0 106 19.5t38 53.5z" />
<glyph unicode="&#x215e;" horiz-adv-x="1012" d="M217 -17l392 734h43l-391 -734h-44zM27 667v33h318v-31q-108 -89 -160 -180.5t-51 -200.5h-36q-2 209 198 379h-269zM615 300v25q0 94 155 94t155 -94v-25q0 -52 -60 -73q85 -22 85 -95v-32q0 -49 -48.5 -77.5t-131.5 -28.5q-82 0 -130.5 28.5t-48.5 77.5v32q0 72 84 95 q-60 21 -60 73zM890 300v25q0 62 -120 62q-119 0 -119 -61v-26q0 -27 31.5 -43.5t87.5 -16.5q58 0 89 16t31 44zM914 100v33q0 75 -144 75q-143 0 -143 -75v-33q0 -34 37.5 -53.5t105.5 -19.5q69 0 106.5 19.5t37.5 53.5z" />
<glyph unicode="&#x2202;" horiz-adv-x="847" />
<glyph unicode="&#x220f;" horiz-adv-x="847" />
<glyph unicode="&#x2211;" horiz-adv-x="847" />
<glyph unicode="&#x2212;" horiz-adv-x="647" d="M74 296v38h500v-38h-500z" />
<glyph unicode="&#x221a;" horiz-adv-x="847" />
<glyph unicode="&#x221e;" horiz-adv-x="840" />
<glyph unicode="&#x222b;" horiz-adv-x="840" />
<glyph unicode="&#x2248;" horiz-adv-x="551" />
<glyph unicode="&#x2260;" horiz-adv-x="559" d="M316 392l102 191h43l-102 -191h170v-37h-190l-72 -135h262v-37h-282l-97 -183h-44l98 183h-175v37h195l73 135h-268v37h287z" />
<glyph unicode="&#x2264;" horiz-adv-x="665" d="M21 344v53l607 234v-44l-557 -217l557 -216v-44zM21 0v39h607v-39h-607z" />
<glyph unicode="&#x2265;" horiz-adv-x="665" d="M594 370l-556 217v44l606 -234v-53l-606 -234v44zM38 0v39h606v-39h-606z" />
<glyph unicode="&#x25ca;" horiz-adv-x="847" />
<glyph unicode="&#x25fc;" horiz-adv-x="500" d="M0 500h500v-500h-500v500z" />
<glyph unicode="&#xe000;" horiz-adv-x="600" d="M31 0l247 500h43l247 -500h-48l-71 146h-299l-71 -146h-48zM163 178h273l-136 283z" />
<glyph unicode="&#xe001;" horiz-adv-x="834" d="M417 797l90 109h39l-104 -125h-50l-104 125h39zM45 0l347 700h51l346 -700h-52l-104 214h-431l-105 -214h-52zM216 251h403l-202 413z" />
<glyph unicode="&#xe002;" horiz-adv-x="834" d="M289 781l104 125h50l104 -125h-39l-90 108l-90 -108h-39zM45 0l347 700h51l347 -700h-53l-104 214h-431l-105 -214h-52zM216 251h403l-202 413zM400 -182v37h40v-37h-40z" />
<glyph unicode="&#xe003;" horiz-adv-x="834" d="M279 912v34h276v-34h-276zM296 819v37h39v-37h-39zM499 819v37h39v-37h-39zM45 0l347 700h51l347 -700h-53l-104 214h-431l-105 -214h-52zM216 251h403l-202 413z" />
<glyph unicode="&#xe004;" horiz-adv-x="541" d="M70 0v500h227q189 0 189 -116v-28q0 -71 -87 -96q47 -12 73.5 -40t26.5 -68v-32q0 -55 -59 -87.5t-158 -32.5h-212zM444 355v28q0 81 -145 81h-188v-188h188q71 0 108 21.5t37 57.5zM458 123v30q0 90 -173 90h-174v-207h174q80 0 126.5 24t46.5 63z" />
<glyph unicode="&#xe005;" horiz-adv-x="732" d="M75 0v700h314q130 0 195 -37.5t65 -119.5v-42q0 -52 -37 -88t-106 -50q76 -15 118.5 -53.5t42.5 -98.5v-48q0 -75 -81 -119q-82 -44 -218 -44h-293zM602 499v42q0 120 -210 120h-269v-278h269q101 0 155.5 31t54.5 85zM620 167v46q0 132 -249 132h-248v-306h248 q114 0 181.5 35.5t67.5 92.5zM311 -182v37h40v-37h-40z" />
<glyph unicode="&#xe006;" horiz-adv-x="603" d="M59 214v65q0 236 265 236q107 0 164.5 -40.5t73.5 -128.5h-43q-16 70 -61.5 100t-133.5 30q-112 0 -166.5 -47t-54.5 -150v-65q0 -90 57.5 -141t163.5 -51q157 0 194 131h43q-38 -170 -237 -170q-124 0 -194.5 62t-70.5 169z" />
<glyph unicode="&#xe007;" horiz-adv-x="333" />
<glyph unicode="&#xe008;" horiz-adv-x="600" d="M70 0v500h194q277 0 277 -226v-54q0 -100 -74 -160q-73 -60 -203 -60h-194zM496 220v54q0 97 -57.5 142t-174.5 45h-150v-422h150q110 0 171 48.5t61 132.5z" />
<glyph unicode="&#xe009;" horiz-adv-x="791" d="M260 -189l104 125h50l104 -125h-39l-90 108l-90 -108h-39zM75 0v700h268q383 0 383 -311v-86q0 -137 -102 -220q-103 -83 -281 -83h-268zM677 303v86q0 142 -85.5 206.5t-248.5 64.5h-220v-620h220q158 0 246 72t88 191z" />
<glyph unicode="&#xe00a;" horiz-adv-x="791" d="M75 0v700h268q383 0 383 -311v-86q0 -137 -102 -220q-103 -83 -281 -83h-268zM677 303v86q0 142 -85.5 206.5t-248.5 64.5h-220v-620h220q158 0 246 72t88 191zM369 -182v37h40v-37h-40z" />
<glyph unicode="&#xe00b;" horiz-adv-x="791" d="M75 0v700h268q383 0 383 -311v-86q0 -137 -102 -220q-103 -83 -281 -83h-268zM677 303v86q0 142 -85.5 206.5t-248.5 64.5h-220v-620h220q158 0 246 72t88 191zM251 -180v34h275v-34h-275z" />
<glyph unicode="&#xe00c;" horiz-adv-x="532" d="M70 0v500h407v-36h-363v-185h349v-33h-349v-210h367v-36h-411z" />
<glyph unicode="&#xe00d;" horiz-adv-x="662" d="M228 781l105 125h50l104 -125h-39l-90 108l-90 -108h-40zM75 0v700h561v-40h-513v-277h493v-39h-493v-304h519v-40h-567zM337 -182v37h39v-37h-39z" />
<glyph unicode="&#xe00e;" horiz-adv-x="662" d="M75 0v700h561v-40h-513v-277h493v-39h-493v-304h519v-40h-567zM337 -182v37h39v-37h-39z" />
<glyph unicode="&#xe00f;" horiz-adv-x="662" d="M213 839l-23 12q36 58 87 58q21 0 39 -4q2 0 6.5 -1.5t8.5 -3.5t5 -2l24 -9q56 -21 75 -21q24 3 37.5 12.5t27.5 29.5l25 -13q-25 -32 -42.5 -44.5t-40.5 -13.5h-6q-21 0 -79 20q-4 0 -39 13q-16 6 -40 6q-38 0 -65 -39zM75 0v700h561v-40h-513v-277h493v-39h-493v-304 h519v-40h-567z" />
<glyph unicode="&#xe010;" horiz-adv-x="504" d="M70 0v500h383v-36h-339v-188h325v-33h-325v-243h-44z" />
<glyph unicode="&#xe011;" horiz-adv-x="656" d="M59 217v65q0 235 271 235q226 0 261 -164h-43q-32 126 -218 126q-115 0 -171 -47t-56 -150v-65q0 -88 60 -139.5t167 -51.5q103 0 158.5 47t57.5 130v17h-211v32h253v-252h-36l-1 96q-60 -109 -223 -109q-127 -1 -198 62q-71 65 -71 168z" />
<glyph unicode="&#xe012;" horiz-adv-x="596" d="M481 279v221h44v-500h-44v240h-367v-240h-44v500h44v-221h367z" />
<glyph unicode="&#xe013;" horiz-adv-x="778" d="M656 383v317h48v-700h-48v344h-533v-344h-48v700h48v-317h533zM365 -182v37h40v-37h-40z" />
<glyph unicode="&#xe014;" horiz-adv-x="185" d="M70 0v500h44v-500h-44z" />
<glyph unicode="&#xe015;" horiz-adv-x="192" d="M96 797l90 109h40l-105 -125h-50l-104 125h40zM75 0v700h48v-700h-48z" />
<glyph unicode="&#xe016;" horiz-adv-x="192" d="M-4 910l129 125h47l-134 -125h-42zM-25 820v38h40v-38h-40zM178 820v38h40v-38h-40zM75 0v700h48v-700h-48z" />
<glyph unicode="&#xe017;" horiz-adv-x="192" d="M75 0v700h48v-700h-48zM77 841v38h40v-38h-40z" />
<glyph unicode="&#xe018;" horiz-adv-x="192" d="M75 0v700h48v-700h-48zM79 -182v37h39v-37h-39z" />
<glyph unicode="&#xe019;" horiz-adv-x="386" d="M270 144v356h45v-357q0 -72 -52.5 -116t-140.5 -44q-53 0 -95 19v35q35 -15 88 -15h6q71 0 110 32.5t39 89.5z" />
<glyph unicode="&#xe01a;" horiz-adv-x="598" d="M114 225l376 275h67l-293 -214l288 -286h-58l-263 259l-117 -85v-174h-44v500h44v-275z" />
<glyph unicode="&#xe01b;" horiz-adv-x="494" d="M70 0v500h44v-461h339v-39h-383z" />
<glyph unicode="&#xe01c;" horiz-adv-x="613" d="M165 -189l104 125h50l104 -125h-39l-90 108l-90 -108h-39zM75 0v700h48v-660h479v-40h-527z" />
<glyph unicode="&#xe01d;" horiz-adv-x="613" d="M75 0v700h48v-660h479v-40h-527zM274 -182v37h40v-37h-40z" />
<glyph unicode="&#xe01e;" horiz-adv-x="703" d="M349 47l230 453h54v-500h-41v433l-223 -433h-38l-223 432v-432h-42v500h55z" />
<glyph unicode="&#xe01f;" horiz-adv-x="928" d="M362 781l129 125h47l-134 -125h-42zM463 48l326 652h64v-700h-44v635l-322 -635h-48l-320 636v-636h-45v700h64z" />
<glyph unicode="&#xe020;" horiz-adv-x="593" d="M483 64v436h44v-500h-46l-372 436v-436h-44v500h46z" />
<glyph unicode="&#xe021;" horiz-adv-x="0" />
<glyph unicode="&#xe022;" d="M265 -189l104 125h50l104 -125h-39l-90 108l-90 -108h-39zM665 63v637h48v-700h-55l-536 637v-637h-48v700h55z" />
<glyph unicode="&#xe023;" d="M665 63v637h48v-700h-55l-536 637v-637h-48v700h55zM374 841v38h40v-38h-40z" />
<glyph unicode="&#xe024;" d="M665 63v637h48v-700h-55l-536 637v-637h-48v700h55zM374 -182v37h40v-37h-40z" />
<glyph unicode="&#xe025;" horiz-adv-x="663" d="M59 215v65q0 236 272 236q273 0 273 -236v-65q0 -104 -73 -168q-72 -63 -200 -63t-200 63q-72 65 -72 168zM559 215v65q0 103 -56.5 150t-172.5 47q-115 0 -171 -47t-56 -150v-65q0 -89 60 -140t168 -51t168 51t60 140z" />
<glyph unicode="&#xe026;" horiz-adv-x="884" d="M441 797l90 109h39l-104 -125h-50l-104 125h39zM65 300v92q0 167 95 245.5t281 78.5t281.5 -78.5t95.5 -245.5v-92q2 -142 -100 -230t-277 -87q-176 0 -277 86q-99 87 -99 231zM770 300v92q0 148 -82 216.5t-247 68.5t-246.5 -68.5t-81.5 -216.5v-92q0 -126 85 -202 q86 -75 243 -75t243 75q86 77 86 202z" />
<glyph unicode="&#xe027;" horiz-adv-x="884" d="M313 781l104 125h50l104 -125h-39l-90 108l-90 -108h-39zM65 300v92q0 167 95 245.5t281 78.5t281.5 -78.5t95.5 -245.5v-92q0 -144 -100 -231q-100 -86 -277 -86q-176 0 -277 86q-99 87 -99 231zM770 300v92q0 148 -82 216.5t-247 68.5t-246.5 -68.5t-81.5 -216.5v-92 q0 -126 85 -202q86 -75 243 -75t243 75q86 77 86 202zM420 -182v37h40v-37h-40z" />
<glyph unicode="&#xe028;" horiz-adv-x="884" d="M65 300v92q0 167 95 245.5t281 78.5t281.5 -78.5t95.5 -245.5v-92q2 -142 -100 -230t-277 -87q-176 0 -277 86q-99 87 -99 231zM770 300v92q0 148 -82 216.5t-247 68.5t-246.5 -68.5t-81.5 -216.5v-92q0 -126 85 -202q86 -75 243 -75t243 75q86 77 86 202zM420 -182v37 h40v-37h-40z" />
<glyph unicode="&#xe029;" horiz-adv-x="884" d="M340 859l129 125h47l-134 -125h-42zM303 786v34h276v-34h-276zM65 300v92q0 167 95 245.5t281 78.5t281.5 -78.5t95.5 -245.5v-92q2 -142 -100 -230t-277 -87q-176 0 -277 86q-99 87 -99 231zM770 300v92q0 148 -82 216.5t-247 68.5t-246.5 -68.5t-81.5 -216.5v-92 q0 -126 85 -202q86 -75 243 -75t243 75q86 77 86 202z" />
<glyph unicode="&#xe02a;" horiz-adv-x="884" d="M488 859l-134 125h47l129 -125h-42zM303 786v34h276v-34h-276zM65 300v92q0 167 95 245.5t281 78.5t281.5 -78.5t95.5 -245.5v-92q0 -144 -100 -231q-100 -86 -277 -86q-176 0 -277 86q-99 87 -99 231zM770 300v92q0 148 -82 216.5t-247 68.5t-246.5 -68.5t-81.5 -216.5 v-92q0 -126 85 -202q86 -75 243 -75t243 75q86 77 86 202z" />
<glyph unicode="&#xe02b;" horiz-adv-x="884" d="M340 859l129 125h47l-134 -125h-42zM298 760l-24 12q36 57 87 57q19 0 39 -4q3 0 12 -3l9 -3q2 -1 11.5 -5t11.5 -4q56 -21 75 -21q39 3 65 41l25 -13q-25 -32 -42 -44.5t-40 -12.5q-3 -1 -7 -1q-19 0 -79 20l-17 6q-17 6 -22 7q-19 7 -40 7q-38 0 -64 -39zM65 300v92 q0 167 95 245.5t281 78.5t281.5 -78.5t95.5 -245.5v-92q2 -142 -100 -230t-277 -87q-176 0 -277 86q-99 87 -99 231zM770 300v92q0 148 -82 216.5t-247 68.5t-246.5 -68.5t-81.5 -216.5v-92q0 -126 85 -202q86 -75 243 -75t243 75q86 77 86 202z" />
<glyph unicode="&#xe02c;" horiz-adv-x="535" d="M70 0v500h196q218 0 218 -128v-31q0 -57 -59 -91t-159 -34h-155v-216h-41zM443 341v31q0 91 -172 91h-160v-211h160q80 0 126 24t46 65z" />
<glyph unicode="&#xe02d;" horiz-adv-x="665" d="M59 215v65q0 236 272 236q273 0 273 -236v-65q0 -115 -84 -177l85 -61l-21 -20l-90 64q-68 -36 -163 -36q-128 0 -200 63t-72 167zM559 215v65q0 104 -57 150.5t-171 46.5q-116 0 -172 -47t-56 -150v-65q0 -89 60 -140t168 -51q74 0 128 26l-99 70l21 20l104 -74 q74 53 74 149z" />
<glyph unicode="&#xe02e;" horiz-adv-x="556" d="M70 0v500h219q99 0 154 -31t55 -93v-29q0 -45 -39.5 -75.5t-107.5 -38.5l164 -233h-50l-157 226h-197v-226h-41zM459 347v29q0 88 -164 88h-184v-202h184q76 0 120 23t44 62z" />
<glyph unicode="&#xe02f;" horiz-adv-x="534" d="M51 371v14q0 131 216 131q217 0 219 -129v-16h-42v15q0 94 -177 94q-173 0 -173 -92v-13q0 -40 74 -64l228 -62q106 -30 106 -115v-11q0 -64 -63 -101.5t-172 -37.5q-110 0 -172 37.5t-62 101.5v39h42v-38q0 -47 50.5 -74.5t141.5 -27.5q89 -1 140.5 26t51.5 73v11 q0 56 -80 79l-228 62q-100 30 -100 98z" />
<glyph unicode="&#xe030;" horiz-adv-x="770" d="M89 521v19q0 176 295 176q302 0 302 -176v-19h-46v21q0 134 -256 134q-249 0 -249 -134v-19q0 -30 28.5 -54.5t80.5 -40.5l320 -87q144 -41 144 -154v-16q0 -87 -86 -137.5t-238 -50.5q-150 0 -235.5 50.5t-85.5 137.5v51h46v-52q0 -67 72.5 -106.5t202.5 -39.5 q131 0 204.5 39.5t73.5 106.5v17q0 84 -115 115l-323 88q-135 37 -135 131zM366 -182v37h39v-37h-39z" />
<glyph unicode="&#xe031;" horiz-adv-x="528" d="M27 461v39h474v-39h-218v-461h-44v461h-212z" />
<glyph unicode="&#xe032;" horiz-adv-x="704" d="M25 660v40h655v-40h-307v-668l-13 -5l-35 -38q22 2 29 2h10q40 -1 64.5 -17t24.5 -47q0 -69 -105 -75h-9q-60 0 -107 16l9 24q50 -12 91 -12h7q79 0 79 48q0 17 -20 27.5t-47 8.5q-34 0 -61 -11l-21 12l61 71l-6 4v660h-299z" />
<glyph unicode="&#xe033;" horiz-adv-x="704" d="M223 -189l104 125h50l104 -125h-39l-90 108l-90 -108h-39zM25 660v40h655v-40h-307v-660h-49v660h-299z" />
<glyph unicode="&#xe034;" horiz-adv-x="704" d="M25 660v40h655v-40h-307v-660h-49v660h-299zM332 -182v37h40v-37h-40z" />
<glyph unicode="&#xe035;" horiz-adv-x="704" d="M25 660v40h655v-40h-307v-660h-49v660h-299zM214 -180v34h275v-34h-275z" />
<glyph unicode="&#xe036;" horiz-adv-x="607" d="M497 178v322h44v-322q0 -89 -63.5 -142t-172.5 -53q-108 0 -171.5 53.5t-63.5 141.5v322h44v-322q0 -73 50.5 -114.5t140.5 -41.5q91 0 141.5 41.5t50.5 114.5z" />
<glyph unicode="&#xe037;" d="M393 797l90 109h39l-104 -125h-50l-105 125h40zM670 250v450h48v-450q0 -120 -87 -194q-86 -73 -238 -73t-238 73q-87 74 -87 194v450h48v-450q0 -105 73.5 -166t203.5 -61t203.5 61t73.5 166z" />
<glyph unicode="&#xe038;" d="M292 913l129 125h47l-134 -125h-42zM271 819v37h40v-37h-40zM474 819v37h40v-37h-40zM670 250v450h48v-450q0 -120 -87 -194q-86 -73 -238 -73t-238 73q-87 74 -87 194v450h48v-450q0 -105 73.5 -166t203.5 -61t203.5 61t73.5 166z" />
<glyph unicode="&#xe039;" d="M393 930l90 108h39l-104 -125h-50l-105 125h40zM271 819v37h40v-37h-40zM474 819v37h40v-37h-40zM670 250v450h48v-450q0 -120 -87 -194q-86 -73 -238 -73t-238 73q-87 74 -87 194v450h48v-450q0 -105 73.5 -166t203.5 -61t203.5 61t73.5 166z" />
<glyph unicode="&#xe03a;" d="M440 913l-134 125h47l129 -125h-42zM271 819v37h40v-37h-40zM474 819v37h40v-37h-40zM670 250v450h48v-450q0 -120 -87 -194q-86 -73 -238 -73t-238 73q-87 74 -87 194v450h48v-450q0 -105 73.5 -166t203.5 -61t203.5 61t73.5 166z" />
<glyph unicode="&#xe03b;" d="M255 913v34h275v-34h-275zM271 819v37h40v-37h-40zM474 819v37h40v-37h-40zM670 250v450h49v-450q0 -121 -88 -194q-86 -73 -238 -73t-238 73q-87 74 -87 194v450h48v-450q0 -105 73.5 -166t203.5 -61t203.5 61t73.5 166z" />
<glyph unicode="&#xe03c;" d="M670 250v450h48v-450q0 -120 -87 -194q-86 -73 -238 -73t-238 73q-87 74 -87 194v450h48v-450q0 -105 73.5 -166t203.5 -61t203.5 61t73.5 166zM373 -182v37h40v-37h-40z" />
<glyph unicode="&#xe03d;" horiz-adv-x="559" d="M279 43l204 457h49l-228 -500h-50l-227 500h48z" />
<glyph unicode="&#xe03e;" horiz-adv-x="847" d="M609 51l165 449h45l-187 -500h-45l-165 438l-164 -438h-44l-187 500h45l164 -449l163 449h47z" />
<glyph unicode="&#xe03f;" horiz-adv-x="602" d="M300 281l213 219h60l-243 -250l244 -250h-60l-214 219l-213 -219h-60l244 250l-243 250h60z" />
<glyph unicode="&#xe040;" horiz-adv-x="618" d="M307 234l225 266h58l-260 -308v-192h-44v192l-259 308h57z" />
<glyph unicode="&#xe041;" horiz-adv-x="498" d="M37 461v39h425v-31l-366 -430h370v-39h-433v31l365 430h-361z" />
<glyph unicode="&#xe042;" horiz-adv-x="666" d="M41 660v40h585v-34l-525 -626h531v-40h-597v34l524 626h-518zM324 -182v37h39v-37h-39z" />
<glyph unicode="&#xe043;" horiz-adv-x="660" d="M538 405v95h47v-500h-41l-2 103q-68 -119 -235 -119q-121 0 -193 63t-72 169v65q0 235 261 237q178 0 235 -113zM538 216v65q0 104 -55.5 151.5t-168.5 47.5t-169.5 -48t-56.5 -151v-65q0 -89 60 -141t166 -52t165 52t59 141z" />
<glyph unicode="&#xe044;" horiz-adv-x="656" d="M333 597l90 109h39l-104 -125h-50l-104 125h39zM136 372h-43q33 145 244 145q126 0 188.5 -45.5t62.5 -149.5v-322h-40l-2 108q-27 -54 -99 -89.5t-158 -35.5q-105 0 -166.5 42.5t-59.5 110.5q0 43 22 68.5t62 44.5q30 13 84 20q22 4 48 5q40 2 46 2q6 1 23 1.5t25 0.5 q34 0 44 1q56 3 74 6q51 12 51 34v13q0 151 -205 152q-173 0 -201 -112zM542 180v92q-14 -10 -42 -15q-37 -6 -50 -7l-69 -3h-6q-51 -1 -81 -4q-24 -1 -78 -10q-32 -5 -64 -24q-40 -22 -43 -75q1 -52 51.5 -84.5t137.5 -32.5q98 0 168 46q72 47 76 117z" />
<glyph unicode="&#xe045;" horiz-adv-x="656" d="M205 581l104 125h50l104 -125h-39l-90 108l-90 -108h-39zM136 372h-43q34 145 244 145q126 0 188.5 -45.5t62.5 -149.5v-322h-40l-2 108q-27 -54 -99 -89.5t-157 -35.5q-107 0 -168 43q-60 43 -59 110q0 43 22 68.5t62 44.5q30 13 84 20q22 4 48 5q40 2 46 2q6 1 23 1.5 t25 0.5q34 0 44 1q56 3 74 6q51 12 51 34v13q0 151 -205 152q-173 0 -201 -112zM542 180v92q-14 -10 -42 -15q-37 -6 -50 -7l-69 -3h-6q-51 -1 -81 -4q-24 -1 -78 -10q-32 -5 -64 -24q-40 -22 -43 -75q1 -52 51.5 -84.5t137.5 -32.5q98 0 168 46q71 46 76 117zM321 -182v37 h40v-37h-40z" />
<glyph unicode="&#xe046;" horiz-adv-x="656" d="M195 689v33h276v-33h-276zM211 598v38h40v-38h-40zM414 598v38h40v-38h-40zM136 372h-43q34 145 244 145q126 0 188.5 -45.5t62.5 -149.5v-322h-40l-2 108q-27 -56 -99 -90q-72 -35 -157 -35q-107 0 -168 43q-60 43 -59 110q0 43 22 68.5t62 44.5q30 13 84 20q22 4 48 5 q40 2 46 2q6 1 23 1.5t25 0.5q34 0 44 1q56 3 74 6q51 12 51 34v13q0 151 -205 152q-173 0 -201 -112zM542 180v92q-14 -10 -42 -15q-37 -6 -50 -7l-69 -3h-6q-51 -1 -81 -4q-24 -1 -78 -10q-32 -5 -64 -24q-40 -22 -43 -75q1 -52 51.5 -84.5t137.5 -32.5q98 0 168 46 q71 46 76 117z" />
<glyph unicode="&#xe047;" horiz-adv-x="656" d="M136 372h-43q34 145 244 145q126 0 188.5 -45.5t62.5 -149.5v-322h-40l-2 108q-27 -54 -99 -89.5t-157 -35.5q-107 0 -168 43q-60 43 -59 110q0 43 22 68.5t62 44.5q30 13 84 20q22 4 48 5q40 2 46 2q6 1 23 1.5t25 0.5q34 0 44 1q56 3 74 6q51 12 51 34v13 q0 151 -205 152q-173 0 -201 -112zM542 180v92q-14 -10 -42 -15q-37 -6 -50 -7l-69 -3h-6q-51 -1 -81 -4q-24 -1 -78 -10q-32 -5 -64 -24q-40 -22 -43 -75q1 -52 51.5 -84.5t137.5 -32.5q98 0 168 46q71 46 76 117zM321 -182v37h40v-37h-40z" />
<glyph unicode="&#xe048;" horiz-adv-x="14" />
<glyph unicode="&#xe049;" horiz-adv-x="656" d="M70 214v486h46v-295q57 112 236 112q261 0 261 -237v-66q0 -104 -73 -168q-74 -63 -199 -63t-199 63q-72 64 -72 168zM566 214v66q0 103 -56.5 151t-169.5 48q-112 0 -168 -48t-56 -151v-66q0 -89 59.5 -141t165.5 -52q107 0 166 52.5t59 140.5zM320 -182v37h40v-37h-40z " />
<glyph unicode="&#xe04a;" horiz-adv-x="0" d="M29 -189l104 125h50l104 -125h-39l-90 108l-90 -108h-39z" />
<glyph unicode="&#xe04b;" horiz-adv-x="660" d="M539 405v296h47v-701h-41l-2 103q-68 -119 -236 -119q-120 0 -192 63t-72 169v65q0 235 261 237q178 0 235 -113zM539 216v65q0 104 -56 151.5t-169 47.5q-112 0 -168.5 -48t-56.5 -151v-65q0 -89 60 -141t166 -52t165 52t59 141zM182 -189l104 125h50l104 -125h-39 l-90 108l-90 -108h-39z" />
<glyph unicode="&#xe04c;" horiz-adv-x="660" d="M539 405v296h47v-701h-41l-2 103q-68 -119 -236 -119q-120 0 -192 63t-72 169v65q0 235 261 237q178 0 235 -113zM539 216v65q0 104 -56 151.5t-169 47.5q-112 0 -168.5 -48t-56.5 -151v-65q0 -89 60 -141t166 -52t165 52t59 141zM291 -182v37h40v-37h-40z" />
<glyph unicode="&#xe04d;" horiz-adv-x="660" d="M539 405v296h47v-701h-41l-2 103q-68 -119 -236 -119q-120 0 -192 63t-72 169v65q0 235 261 237q178 0 235 -113zM539 216v65q0 104 -56 151.5t-169 47.5q-112 0 -168.5 -48t-56.5 -151v-65q0 -89 60 -141t166 -52t165 52t59 141zM173 -180v34h275v-34h-275z" />
<glyph unicode="&#xe04e;" horiz-adv-x="698" d="M538 620v81h47v-81h90v-34h-90v-586h-41l-2 103q-68 -119 -235 -119q-121 0 -193 63t-72 169v65q0 235 261 237q178 0 235 -113v181h-146v34h146zM538 216v65q0 104 -55.5 151.5t-168.5 47.5t-169.5 -48t-56.5 -151v-65q0 -89 60 -141t166 -52t165 52t59 141z" />
<glyph unicode="&#xe04f;" horiz-adv-x="681" d="M65 214v66q0 237 278 237q106 0 178.5 -36.5t79.5 -108.5q7 -81 -59 -123q-89 -51 -253 -49q-70 0 -178 11q1 -91 62 -142.5t170 -51.5q98 0 159.5 43.5t70.5 116.5h46q-14 -91 -86.5 -142.5t-189.5 -51.5q-131 0 -204 63q-74 63 -74 168zM111 286v-45q93 -9 165 -9 q280 0 280 125q0 6 -2 16q-7 53 -63.5 81.5t-148.5 28.5q-231 0 -231 -197z" />
<glyph unicode="&#xe050;" horiz-adv-x="683" d="M65 214v66q0 237 277 237q281 0 281 -237v-15l-1 -11h-511v-44q0 -89 61.5 -141t169.5 -52q99 0 160.5 43.5t70.5 116.5h46q-13 -87 -82 -138.5t-180 -55.5l-32 -34q22 2 29 2h11q39 -1 64 -17t25 -47q0 -69 -106 -75h-8q-61 0 -108 16l9 24q50 -12 91 -12h7q79 0 79 48 q0 17 -19 27t-47 9q-36 0 -61 -11l-22 12l51 58q-119 7 -187 69t-68 162zM111 284h465q0 103 -58.5 151t-175.5 48q-115 0 -173 -48t-58 -151z" />
<glyph unicode="&#xe051;" horiz-adv-x="683" d="M213 581l104 125h50l105 -125h-40l-90 108l-90 -108h-39zM65 214v66q0 237 278 237q280 0 280 -237v-15l-1 -11h-511v-44q0 -89 61.5 -141t170.5 -52q98 0 159.5 43.5t70.5 116.5h46q-14 -91 -86.5 -142.5t-189.5 -51.5q-131 0 -204 63q-74 63 -74 168zM111 284h465 q0 103 -58.5 151t-174.5 48t-174 -48t-58 -151zM321 -182v37h40v-37h-40z" />
<glyph unicode="&#xe052;" horiz-adv-x="683" d="M65 214v66q0 237 278 237q280 0 280 -237v-15l-1 -11h-511v-44q0 -89 61.5 -141t170.5 -52q98 0 159.5 43.5t70.5 116.5h46q-14 -91 -86.5 -142.5t-189.5 -51.5q-131 0 -204 63q-74 63 -74 168zM111 284h465q0 103 -58.5 151t-175.5 48q-115 0 -173 -48t-58 -151z M321 -182v37h40v-37h-40z" />
<glyph unicode="&#xe053;" horiz-adv-x="486" d="M87 300v25q0 94 155 94t155 -94v-25q0 -52 -60 -73q85 -22 85 -95v-32q0 -49 -48.5 -77.5t-131.5 -28.5t-131 28.5t-48 77.5v32q0 72 84 95q-60 21 -60 73zM362 300v25q0 62 -120 62t-120 -62v-25q0 -27 32 -43.5t88 -16.5q58 0 89 16t31 44zM386 100v33q0 75 -144 75 q-143 0 -143 -75v-33q0 -33 38 -53t105 -20q68 0 106 19.5t38 53.5z" />
<glyph unicode="&#xe054;" horiz-adv-x="723" d="M104 495v44q0 152 256 152q257 0 257 -152v-44q0 -45 -33.5 -77.5t-93.5 -47.5q169 -30 169 -158v-56q0 -78 -80.5 -124.5t-218.5 -46.5q-137 0 -217 46.5t-80 124.5v56q0 128 166 158q-60 15 -92.5 47.5t-32.5 77.5zM569 497v42q0 113 -209 113q-106 0 -157.5 -27 t-51.5 -86v-42q0 -51 55.5 -80.5t153.5 -29.5q101 0 155 29t54 81zM611 156v57q0 135 -251 135q-126 0 -187.5 -32.5t-61.5 -102.5v-57q0 -60 66.5 -95.5t182.5 -35.5q117 0 184 35.5t67 95.5z" />
<glyph unicode="&#xe055;" horiz-adv-x="486" d="M87 586v26q0 94 155 94t155 -94v-26q0 -52 -60 -73q85 -21 85 -94v-33q0 -48 -48.5 -76.5t-131.5 -28.5t-131 28.5t-48 76.5v33q0 73 84 94q-60 21 -60 73zM362 587v25q0 62 -120 62t-120 -62v-25q0 -27 32 -43.5t88 -16.5q58 0 89 16t31 44zM386 386v33q0 76 -144 76 q-143 0 -143 -76v-33q0 -33 38 -53t105 -20t105.5 20t38.5 53z" />
<glyph unicode="&#xe056;" horiz-adv-x="723" d="M104 495v44q0 152 256 152q257 0 257 -152v-44q0 -45 -33.5 -77.5t-93.5 -47.5q169 -30 169 -158v-56q0 -78 -80.5 -124.5t-218.5 -46.5q-137 0 -217 46.5t-80 124.5v56q0 128 166 158q-60 15 -92.5 47.5t-32.5 77.5zM569 497v42q0 113 -209 113q-106 0 -157.5 -27 t-51.5 -86v-42q0 -51 55.5 -80.5t153.5 -29.5q101 0 155 29t54 81zM611 156v57q0 135 -251 135q-126 0 -187.5 -32.5t-61.5 -102.5v-57q0 -60 66.5 -95.5t182.5 -35.5q117 0 184 35.5t67 95.5z" />
<glyph unicode="&#xe057;" horiz-adv-x="723" d="M104 495v44q0 152 256 152q257 0 257 -152v-44q0 -45 -33.5 -77.5t-93.5 -47.5q169 -30 169 -158v-56q0 -78 -80.5 -124.5t-218.5 -46.5q-137 0 -217 46.5t-80 124.5v56q0 128 166 158q-60 15 -92.5 47.5t-32.5 77.5zM570 497v42q0 113 -210 113q-208 0 -208 -113v-42 q0 -51 55.5 -80.5t152.5 -29.5q101 0 155.5 29t54.5 81zM610 156v57q0 135 -250 135q-126 0 -187.5 -32.5t-61.5 -102.5v-57q0 -60 66.5 -95.5t182.5 -35.5q117 0 183.5 35.5t66.5 95.5z" />
<glyph unicode="&#xe058;" horiz-adv-x="697" d="M91 495v44q0 152 256 152q257 0 257 -152v-44q0 -45 -33.5 -77.5t-93.5 -47.5q168 -30 168 -158v-56q0 -78 -80 -124.5t-218 -46.5t-217.5 46.5t-79.5 124.5v56q0 128 166 158q-60 15 -92.5 47.5t-32.5 77.5zM557 497v42q0 113 -210 113q-106 0 -157.5 -27t-51.5 -86v-42 q0 -51 55.5 -80.5t153.5 -29.5q101 0 155.5 29t54.5 81zM597 156v57q0 135 -251 135q-125 0 -186.5 -32.5t-61.5 -102.5v-57q0 -60 66 -95.5t182 -35.5q118 0 184.5 35t66.5 96z" />
<glyph unicode="&#xe059;" horiz-adv-x="683" d="M198 639l-23 12q34 58 87 58q21 0 39 -4q2 0 6.5 -1.5t8.5 -3.5t5 -2q2 -1 12 -5t11 -4q56 -21 76 -21q15 0 28 7q19 12 37 35l24 -13q-23 -31 -40.5 -44t-41.5 -14h-6q-21 0 -79 20q-4 0 -39 13q-16 6 -40 6q-39 0 -65 -39zM65 214v66q0 237 278 237q280 0 280 -237v-15 l-1 -11h-511v-44q0 -89 61.5 -141t170.5 -52q98 0 159.5 43.5t70.5 116.5h46q-13 -90 -86 -142t-190 -52q-131 0 -204 63q-74 63 -74 168zM111 284h465q0 103 -58.5 151t-174.5 48t-174 -48t-58 -151z" />
<glyph unicode="&#xe05a;" horiz-adv-x="1005" d="M232 702h59v-33h-45q-33 0 -53 -15t-20 -41v-113h118v-33h-118v-467h-46v467h-98v33h98v113q0 41 29.5 65t75.5 24zM421 214v486h47v-295q57 112 235 112q261 0 261 -237v-66q0 -104 -73 -168q-73 -63 -199 -63t-199 63q-72 64 -72 168zM918 214v66q0 103 -56.5 151 t-169.5 48t-168.5 -48t-55.5 -151v-66q0 -89 59 -141t165 -52t166 52t60 141z" />
<glyph unicode="&#xe05b;" horiz-adv-x="662" d="M232 702h59v-33h-45q-33 0 -53 -15t-20 -41v-113h118v-33h-118v-467h-46v467h-98v33h98v113q0 41 29.5 65t75.5 24zM573 702h59v-33h-45q-33 0 -53 -15t-20 -41v-113h118v-33h-118v-467h-46v467h-98v33h98v113q0 41 29.5 65t75.5 24z" />
<glyph unicode="&#xe05d;" horiz-adv-x="885" d="M232 702h59v-33h-45q-33 0 -53 -15t-20 -41v-113h118v-33h-118v-467h-46v467h-98v33h98v113q0 41 29.5 65t75.5 24zM573 702h59v-33h-45q-33 0 -53 -15t-20 -41v-113h118v-33h-118v-467h-46v467h-98v33h98v113q0 41 29.5 65t75.5 24zM773 594v108h46v-108h-46zM773 -87 v587h46v-593q0 -72 -90 -84q-21 -3 -47 -3v35q8 0 37 3q54 11 54 55z" />
<glyph unicode="&#xe05f;" horiz-adv-x="974" d="M232 702h59v-33h-45q-33 0 -53 -15t-20 -41v-113h118v-33h-118v-467h-46v467h-98v33h98v113q0 41 29.5 65t75.5 24zM426 0v700h45v-299q59 116 233 116q118 0 170.5 -54.5t52.5 -179.5v-283h-46v280q0 108 -42 153q-40 46 -146 46q-222 0 -222 -199v-280h-45z" />
<glyph unicode="&#xe060;" horiz-adv-x="548" d="M234 702h61v-33h-47q-31 0 -51 -15t-20 -41v-113h118v-33h-118v-467h-50v467h-98v33h98v113q0 41 29.5 65t77.5 24zM432 594v108h50v-108h-50zM432 -87v587h50v-593q0 -72 -91 -84q-23 -3 -50 -3v35q7 0 39 3q52 10 52 55z" />
<glyph unicode="&#xe061;" horiz-adv-x="951" d="M234 702h61v-33h-47q-31 0 -51 -15t-20 -41v-113h118v-33h-118v-467h-50v467h-98v33h98v113q0 41 29.5 65t77.5 24zM426 0v700h51v-456l343 257h70l-267 -198l305 -303h-63l-277 276l-111 -83v-193h-51z" />
<glyph unicode="&#xe062;" horiz-adv-x="448" d="M63 191l55 225h261v-33h-233l-38 -144q44 38 130 38q78 0 121.5 -31t43.5 -93v-34q0 -57 -46.5 -91t-124.5 -34q-77 0 -123 34t-46 91v23h36v-23q0 -42 35.5 -67t97.5 -25q64 0 99.5 24.5t35.5 67.5v34q0 95 -135 95q-104 0 -127 -57h-42z" />
<glyph unicode="&#xe063;" horiz-adv-x="671" d="M64 317l90 366h431v-40h-393l-76 -289q57 93 235 93q274 0 274 -202v-59q0 -93 -76 -148t-207 -55q-129 0 -205 55q-75 56 -75 148v33h48v-33q0 -75 62 -119t170 -44q111 0 172.5 44.5t61.5 118.5v59q0 168 -234 168q-176 0 -220 -96h-58z" />
<glyph unicode="&#xe064;" horiz-adv-x="448" d="M63 475l55 225h261v-33h-233l-38 -144q44 38 130 38q78 0 121.5 -31t43.5 -93v-35q0 -56 -46.5 -90t-124.5 -34q-77 0 -123 34t-46 90v24h36v-24q0 -42 35 -66.5t98 -24.5t99 24.5t36 66.5v35q0 95 -135 95q-104 0 -127 -57h-42z" />
<glyph unicode="&#xe065;" horiz-adv-x="671" d="M64 134l90 366h431v-40h-393l-76 -289q57 93 235 93q128 0 201 -49t73 -153v-59q0 -92 -76 -147q-77 -56 -207 -56q-128 0 -205 56q-75 56 -75 147v33h48v-33q0 -73 62 -118t170 -45q110 0 172 44t62 119v59q0 168 -234 168q-176 0 -220 -96h-58z" />
<glyph unicode="&#xe066;" horiz-adv-x="690" d="M65 317l90 366h431v-40h-393l-76 -289q57 93 235 93q274 0 274 -202v-59q0 -93 -76 -148t-207 -55q-129 0 -205 55q-75 56 -75 148v33h48v-33q0 -75 62 -119t170 -44q111 0 172.5 44.5t61.5 118.5v59q0 168 -234 168q-178 0 -220 -96h-58z" />
<glyph unicode="&#xe067;" horiz-adv-x="691" d="M67 134l90 366h431v-40h-393l-76 -289q30 49 87 71t148 22q274 0 274 -202v-59q0 -92 -76 -147q-77 -56 -207 -56q-128 0 -205 56q-76 55 -76 147v33h49v-33q0 -73 61.5 -118t170.5 -45t171.5 44t62.5 119v59q0 168 -234 168q-178 0 -220 -96h-58z" />
<glyph unicode="&#xe068;" horiz-adv-x="438" d="M26 132l243 280h37v-278h89v-33h-89v-101h-34v101h-246v31zM70 134h202v236z" />
<glyph unicode="&#xe069;" horiz-adv-x="681" d="M28 211l408 472h53v-472h149v-39h-149v-172h-45v172h-416v39zM81 211h363v425z" />
<glyph unicode="&#xe06a;" horiz-adv-x="438" d="M26 420l243 280h37v-278h89v-32h-89v-102h-34v102h-246v30zM70 422h202v237z" />
<glyph unicode="&#xe06b;" horiz-adv-x="680" d="M26 39l408 473h54v-472h149v-40h-149v-172h-46v172h-416v39zM79 40h363v424z" />
<glyph unicode="&#xe06c;" horiz-adv-x="701" d="M44 211l408 472h53v-472h149v-39h-149v-172h-45v172h-416v39zM97 211h363v425z" />
<glyph unicode="&#xe06d;" horiz-adv-x="708" d="M49 39l408 473h54v-472h149v-40h-149v-172h-46v172h-416v39zM102 40h363v424z" />
<glyph unicode="&#xe06e;" horiz-adv-x="623" d="M75 0v700h45v-299q59 116 233 116q118 0 170.5 -54.5t52.5 -179.5v-283h-46v280q0 108 -42 153q-40 46 -146 46q-222 0 -222 -199v-280h-45zM311 -182v37h40v-37h-40z" />
<glyph unicode="&#xe06f;" horiz-adv-x="191" d="M99 597l90 109h39l-104 -125h-50l-105 125h40zM76 0v500h46v-500h-46z" />
<glyph unicode="&#xe070;" horiz-adv-x="191" d="M-2 706l129 125h47l-133 -125h-43zM-22 620v38h39v-38h-39zM181 620v38h39v-38h-39zM76 0v500h46v-500h-46z" />
<glyph unicode="&#xe071;" horiz-adv-x="183" d="M73 594v108h46v-108h-46zM73 0v500h46v-500h-46zM72 -182v37h39v-37h-39z" />
<glyph unicode="&#xe072;" horiz-adv-x="833" />
<glyph unicode="&#xe073;" horiz-adv-x="190" d="M77 0v700h46v-700h-46zM-33 -189l105 125h50l104 -125h-39l-90 108l-90 -108h-40z" />
<glyph unicode="&#xe074;" horiz-adv-x="190" d="M75 0v700h46v-700h-46zM75 -182v37h40v-37h-40z" />
<glyph unicode="&#xe075;" horiz-adv-x="0" d="M54 -180v34h275v-34h-275z" />
<glyph unicode="&#xe076;" horiz-adv-x="961" d="M384 581l129 125h47l-134 -125h-42zM75 500h43v-100q27 61 74 89t121 28q128 0 167 -92q51 92 195 92q114 0 164 -54.5t50 -179.5v-283h-47v280q-2 113 -38.5 155.5t-139.5 43.5q-73 0 -113 -23.5t-55 -74.5q9 -44 9 -101v-280h-46v280q0 111 -35 155t-120 44 q-182 0 -182 -199v-280h-47v500z" />
<glyph unicode="&#xe077;" horiz-adv-x="187" d="M74 257v112h46v-112h-46z" />
<glyph unicode="&#xe078;" horiz-adv-x="648" d="M75 500h42v-99q59 116 234 116q118 0 171.5 -55t53.5 -179v-283h-46v280q0 108 -42 153q-40 46 -146 46q-222 0 -222 -199v-280h-45v500zM197 -189l104 125h51l104 -125h-40l-90 108l-89 -108h-40z" />
<glyph unicode="&#xe079;" horiz-adv-x="648" d="M307 641v38h40v-38h-40zM75 500h42v-99q59 116 234 116q118 0 171.5 -55t53.5 -179v-283h-46v280q0 108 -42 153q-40 46 -146 46q-222 0 -222 -199v-280h-45v500z" />
<glyph unicode="&#xe07a;" horiz-adv-x="648" d="M75 500h42v-99q59 116 234 116q118 0 171.5 -55t53.5 -179v-283h-46v280q0 108 -42 153q-40 46 -146 46q-222 0 -222 -199v-280h-45v500zM307 -182v37h39v-37h-39z" />
<glyph unicode="&#xe07b;" horiz-adv-x="471" d="M63 263v33q0 56 46.5 90.5t124.5 34.5q77 0 123 -34.5t46 -90.5v-172q0 -130 -164 -130q-140 0 -160 101h33q17 -71 127 -71q65 1 96.5 23.5t31.5 72.5v66q-38 -45 -135 -47q-169 0 -169 124zM367 263v33q0 42 -35.5 67t-97.5 25q-64 0 -99.5 -24.5t-35.5 -67.5v-33 q0 -95 135 -95q133 0 133 95z" />
<glyph unicode="&#xe07c;" horiz-adv-x="695" d="M63 432v55q0 93 76 148q77 56 207 56q128 0 204 -56q76 -55 76 -148v-292q0 -111 -68.5 -161.5t-202.5 -50.5q-225 0 -263 156h42q33 -120 220 -120q109 0 166.5 39t57.5 131v139q-29 -52 -85.5 -75.5t-149.5 -23.5q-280 0 -280 203zM578 432v55q0 75 -62 119.5 t-170 44.5q-110 0 -172.5 -44t-62.5 -120v-55q0 -169 235 -169q115 0 173.5 40.5t58.5 128.5z" />
<glyph unicode="&#xe07d;" horiz-adv-x="471" d="M63 549v32q0 57 46.5 91t124.5 34q77 0 123 -34t46 -91v-172q0 -130 -164 -130q-140 0 -160 102h33q17 -71 127 -71q65 0 96.5 22t31.5 74v66q-39 -47 -135 -47q-169 -2 -169 124zM367 549v32q0 43 -35 67.5t-98 24.5q-65 0 -100 -24.5t-35 -67.5v-32q0 -95 135 -95 q67 0 100 22.5t33 72.5z" />
<glyph unicode="&#xe07e;" horiz-adv-x="695" d="M63 257v56q0 92 76 147q77 56 207 56q128 0 204 -56q76 -55 76 -147v-292q0 -112 -68.5 -162.5t-202.5 -50.5q-226 0 -263 157h42q33 -121 220 -120q109 0 166.5 39t57.5 131v139q-29 -53 -85 -76t-150 -24q-280 0 -280 203zM578 257v56q0 75 -62 119t-170 44 q-110 0 -172.5 -44t-62.5 -119v-56q0 -168 235 -168q115 0 173.5 40.5t58.5 127.5z" />
<glyph unicode="&#xe07f;" horiz-adv-x="689" d="M63 432v55q0 93 76 148q77 56 207 56q128 0 204 -56q76 -55 76 -148v-292q0 -111 -68.5 -161.5t-202.5 -50.5q-225 0 -263 156h42q33 -120 220 -120q109 0 166.5 39t57.5 131v139q-29 -52 -85.5 -75.5t-149.5 -23.5q-280 0 -280 203zM578 432v55q0 75 -62 119.5 t-170 44.5q-110 0 -172.5 -44t-62.5 -120v-55q0 -169 235 -169q115 0 173.5 40.5t58.5 128.5z" />
<glyph unicode="&#xe080;" horiz-adv-x="691" d="M64 257v56q0 92 76 147q77 56 207 56q128 0 205 -56q76 -55 76 -147v-292q0 -112 -68.5 -162.5t-203.5 -50.5q-226 0 -263 157h42q33 -121 220 -120q112 0 168 40t56 130v139q-29 -53 -85 -76t-150 -24q-280 0 -280 203zM579 257v56q0 75 -62 119t-170 44 q-109 0 -171.5 -44t-62.5 -119v-56q0 -168 234 -168q116 0 174 40.5t58 127.5z" />
<glyph unicode="&#xe081;" horiz-adv-x="687" d="M344 597l90 109h39l-104 -125h-50l-104 125h39zM65 214v66q0 237 278 237q280 0 280 -237v-66q0 -104 -75 -168q-75 -63 -205 -63q-129 0 -204 63q-74 63 -74 168zM577 214v66q0 103 -58.5 151t-175.5 48q-116 0 -174 -48t-58 -151v-66q0 -89 61.5 -141t170.5 -52 t171.5 52.5t62.5 140.5z" />
<glyph unicode="&#xe082;" horiz-adv-x="687" d="M216 581l104 125h50l104 -125h-39l-90 108l-90 -108h-39zM65 214v66q0 237 278 237q280 0 280 -237v-66q0 -104 -75 -168q-75 -63 -205 -63q-129 0 -204 63q-74 63 -74 168zM577 214v66q0 103 -58.5 151t-175.5 48q-116 0 -173.5 -48t-57.5 -151v-66q0 -89 61 -141 t170 -52t171.5 52.5t62.5 140.5zM323 -182v37h40v-37h-40z" />
<glyph unicode="&#xe083;" horiz-adv-x="687" d="M206 689v33h276v-33h-276zM223 603v38h39v-38h-39zM426 603v38h39v-38h-39zM65 214v66q0 237 278 237q280 0 280 -237v-66q0 -104 -75 -168q-75 -63 -205 -63q-129 0 -204 63q-74 63 -74 168zM577 214v66q0 103 -58.5 151t-175.5 48q-116 0 -173.5 -48t-57.5 -151v-66 q0 -89 61 -141t170 -52t171.5 52.5t62.5 140.5z" />
<glyph unicode="&#xe084;" horiz-adv-x="687" d="M65 214v66q0 237 278 237q280 0 280 -237v-66q0 -104 -75 -168q-75 -63 -205 -63q-129 0 -204 63q-74 63 -74 168zM577 214v66q0 103 -58.5 151t-175.5 48q-116 0 -173.5 -48t-57.5 -151v-66q0 -89 61 -141t170 -52t171.5 52.5t62.5 140.5zM323 -182v37h40v-37h-40z" />
<glyph unicode="&#xe085;" horiz-adv-x="687" d="M244 750l128 125h48l-134 -125h-42zM206 632v33h276v-33h-276zM65 214v66q0 237 278 237q280 0 280 -237v-66q0 -104 -75 -168q-75 -63 -205 -63q-129 0 -204 63q-74 63 -74 168zM577 214v66q0 103 -58.5 151t-175.5 48q-116 0 -173.5 -48t-57.5 -151v-66q0 -89 61 -141 t170 -52t171.5 52.5t62.5 140.5z" />
<glyph unicode="&#xe086;" horiz-adv-x="687" d="M391 750l-134 125h48l128 -125h-42zM206 631v34h276v-34h-276zM65 214v66q0 237 278 237q280 0 280 -237v-66q0 -104 -75 -168q-75 -63 -205 -63q-129 0 -204 63q-74 63 -74 168zM577 214v66q0 103 -58.5 151t-175.5 48q-116 0 -173.5 -48t-57.5 -151v-66q0 -89 61 -141 t170 -52t171.5 52.5t62.5 140.5z" />
<glyph unicode="&#xe087;" horiz-adv-x="249" d="M144 412h30v-412h-36v368q-47 -46 -126 -62v32q44 11 72 27t60 47z" />
<glyph unicode="&#xe088;" horiz-adv-x="343" d="M226 683h44v-683h-48v636q-35 -39 -94 -70t-119 -45v37q73 18 119 46q49 30 98 79z" />
<glyph unicode="&#xe089;" horiz-adv-x="249" d="M144 700h30v-412h-36v369q-46 -45 -126 -63v32q47 12 73 27.5t59 46.5z" />
<glyph unicode="&#xe08a;" horiz-adv-x="288" d="M175 500h39v-500h-44v451q-57 -60 -159 -81v36q58 14 91 34t73 60z" />
<glyph unicode="&#xe08b;" horiz-adv-x="436" d="M303 683h44v-683h-48v636q-36 -40 -94.5 -71t-118.5 -44v37q73 18 119 46q49 30 98 79z" />
<glyph unicode="&#xe08c;" horiz-adv-x="416" d="M270 500h39v-500h-44v451q-57 -60 -159 -81v36q58 14 91 34t73 60z" />
<glyph unicode="&#xe08d;" horiz-adv-x="687" d="M244 750l128 125h48l-134 -125h-42zM201 620l-23 12q34 56 86 58q14 0 26 -2t18.5 -4t19 -7t19.5 -7q55 -21 76 -21q15 0 28 7q16 9 37 35l24 -13q-23 -31 -40.5 -44t-41.5 -14h-7q-22 0 -79 19q-1 0 -6.5 2t-11.5 4.5t-12 4.5t-9 2q-16 7 -39 7q-40 0 -65 -39zM65 214 v66q0 237 278 237q280 0 280 -237v-66q0 -104 -75 -168q-75 -63 -205 -63q-129 0 -204 63q-74 63 -74 168zM577 214v66q0 103 -58.5 151t-175.5 48q-116 0 -173.5 -48t-57.5 -151v-66q0 -89 61 -141t170 -52t171.5 52.5t62.5 140.5z" />
<glyph unicode="&#xe08e;" horiz-adv-x="384" d="M54 670v33h275v-33h-275z" />
<glyph unicode="&#xe08f;" horiz-adv-x="605" d="M87 373v15q0 129 215 129q218 0 220 -128v-14h-41v14q-1 93 -179 93q-173 0 -173 -92v-14q0 -19 22.5 -36.5t59.5 -28.5l223 -61q111 -32 111 -118v-5q0 -66 -64.5 -105t-178.5 -39q-113 0 -176.5 38t-64.5 104v31h42v-31q0 -49 53 -78.5t146 -29.5t146 28.5t54 77.5v6 q2 60 -86 86l-231 63q-98 27 -98 95zM284 -182v37h40v-37h-40z" />
<glyph unicode="&#xe090;" horiz-adv-x="347" d="M15 380v32h318v-31q-108 -90 -160 -180.5t-51 -200.5h-36q-2 209 198 380h-269z" />
<glyph unicode="&#xe091;" horiz-adv-x="584" d="M28 643v40h526v-41q-169 -140 -260 -289q-97 -159 -97 -353h-48q0 354 349 643h-470z" />
<glyph unicode="&#xe092;" horiz-adv-x="348" d="M15 667v33h318v-31q-108 -89 -160 -180.5t-51 -200.5h-36q-2 209 198 379h-269z" />
<glyph unicode="&#xe093;" horiz-adv-x="584" d="M28 460v40h526v-41q-169 -140 -260 -289q-97 -159 -97 -353h-48q0 354 349 643h-470z" />
<glyph unicode="&#xe094;" horiz-adv-x="685" d="M79 643v40h526v-41q-169 -140 -260 -289q-97 -159 -97 -353h-48q0 354 349 643h-470z" />
<glyph unicode="&#xe095;" horiz-adv-x="685" d="M79 460v40h526v-41q-169 -140 -260 -289q-97 -159 -97 -353h-48q0 354 349 643h-470z" />
<glyph unicode="&#xe096;" horiz-adv-x="471" d="M69 119v174q0 128 164 128q140 0 160 -101h-32q-17 73 -128 71q-65 0 -96.5 -22.5t-31.5 -73.5v-60q40 45 135 47q169 0 169 -124v-39q0 -56 -46.5 -90t-124.5 -34q-77 0 -123 34t-46 90zM373 119v39q0 95 -135 95q-133 0 -133 -95v-39q0 -42 35.5 -67t97.5 -25 q64 0 99.5 24.5t35.5 67.5z" />
<glyph unicode="&#xe097;" horiz-adv-x="694" d="M69 186v295q0 114 70 162t201 48q226 0 263 -157h-42q-32 122 -220 120q-109 0 -166 -39t-57 -131v-129q53 99 234 99q130 2 205 -47t75 -155v-66q0 -93 -76 -148t-206 -55q-129 0 -205 55t-76 148zM584 186v66q0 168 -234 168q-233 0 -233 -168v-66q0 -75 62.5 -119 t170.5 -44q110 0 172 44.5t62 118.5z" />
<glyph unicode="&#xe098;" horiz-adv-x="471" d="M69 404v174q0 128 164 128q140 0 160 -101h-32q-17 71 -128 71q-65 -1 -96.5 -23t-31.5 -73v-61q41 47 135 47q169 2 169 -124v-38q0 -57 -46.5 -91t-124.5 -34q-77 0 -123 34.5t-46 90.5zM373 404v38q0 95 -135 95q-68 0 -100.5 -22.5t-32.5 -72.5v-38q0 -42 35.5 -67 t97.5 -25q64 0 99.5 24.5t35.5 67.5z" />
<glyph unicode="&#xe099;" horiz-adv-x="694" d="M69 186v295q0 114 70 162t201 48q226 0 263 -157h-42q-32 122 -220 120q-109 0 -166 -39t-57 -131v-129q53 99 234 99q130 2 205 -47t75 -155v-66q0 -93 -76 -148t-206 -55q-129 0 -205 55t-76 148zM584 186v66q0 168 -234 168q-233 0 -233 -168v-66q0 -75 62.5 -119 t170.5 -44q110 0 172 44.5t62 118.5z" />
<glyph unicode="&#xe09a;" horiz-adv-x="691" d="M64 186v295q0 114 70 162t201 48q226 0 263 -157h-41q-33 122 -221 120q-109 0 -166 -39t-57 -131v-129q53 99 234 99q129 2 205 -47t76 -155v-66q0 -92 -77 -148q-76 -55 -206 -55q-129 0 -205 55t-76 148zM579 186v66q0 168 -234 168q-116 0 -174 -40.5t-58 -127.5v-66 q0 -75 62 -119t170 -44q110 0 172 44.5t62 118.5z" />
<glyph unicode="&#xe09b;" horiz-adv-x="691" d="M64 186v295q0 114 70 162t201 48q226 0 263 -157h-41q-33 122 -221 120q-109 0 -166 -39t-57 -131v-129q53 99 234 99q129 2 205 -47t76 -155v-66q0 -92 -77 -148q-76 -55 -206 -55q-129 0 -205 55t-76 148zM579 186v66q0 168 -234 168q-116 0 -174 -40.5t-58 -127.5v-66 q0 -75 62 -119t170 -44q110 0 172 44.5t62 118.5z" />
<glyph unicode="&#xe09c;" horiz-adv-x="321" d="M122 500v108h46v-108h118v-33h-118v-394q0 -24 19 -39.5t53 -15.5h46v-33h-59q-33 0 -55 12l-32 -35q14 3 39 3q39 -1 64 -17.5t25 -46.5q0 -70 -106 -75h-8q-58 0 -108 15l10 24q48 -12 90 -12h7q80 2 80 48q0 17 -19 27t-48 10q-34 0 -61 -12l-21 13l62 73 q-24 20 -24 56v399h-98v33h98z" />
<glyph unicode="&#xe09d;" horiz-adv-x="321" d="M26 -189l104 125h50l104 -125h-39l-90 108l-90 -108h-39zM122 500v108h46v-108h118v-33h-118v-394q0 -24 19.5 -39.5t52.5 -15.5h46v-33h-59q-48 0 -76.5 22t-28.5 61v399h-98v33h98z" />
<glyph unicode="&#xe09e;" horiz-adv-x="321" d="M122 500v108h46v-108h118v-33h-118v-394q0 -24 19.5 -39.5t52.5 -15.5h46v-33h-59q-48 0 -76.5 22t-28.5 61v399h-98v33h98zM135 -182v37h40v-37h-40z" />
<glyph unicode="&#xe09f;" horiz-adv-x="483" d="M121 298h-35v28q0 93 153 93q156 0 156 -93v-31q0 -48 -59 -73q84 -18 84 -94v-29q0 -48 -48.5 -76.5t-132.5 -28.5q-83 0 -130.5 28.5t-47.5 76.5v34h36v-34q0 -34 38 -54t104 -20q69 0 107.5 20t38.5 54v30q0 73 -135 75h-27v30h24q53 1 82.5 17t29.5 43v32 q0 63 -120 63q-118 0 -118 -63v-28z" />
<glyph unicode="&#xe0a0;" horiz-adv-x="719" d="M149 499h-48v40q0 152 255 152q258 0 258 -152v-43q0 -45 -33.5 -77.5t-93.5 -47.5q169 -28 169 -158v-57q0 -78 -80.5 -124.5t-219.5 -46.5q-137 0 -216.5 46.5t-79.5 124.5v50h48v-50q0 -61 66 -97t182 -36q121 0 186 36t65 97v58q0 132 -234 135h-39v36h34 q93 1 145 31t52 79v44q0 114 -209 114q-105 0 -156 -27.5t-51 -86.5v-40z" />
<glyph unicode="&#xe0a1;" horiz-adv-x="483" d="M121 584h-35v27q0 94 153 94q156 0 156 -94v-31q0 -48 -59 -72q84 -19 84 -94v-29q0 -49 -48 -77t-133 -28q-83 0 -130.5 28t-47.5 77v33h36v-33q0 -35 38 -55t104 -20q69 0 107.5 20t38.5 55v29q0 74 -135 76h-27v30h24q53 1 82.5 17t29.5 43v31q0 63 -120 63 q-118 0 -118 -63v-27z" />
<glyph unicode="&#xe0a2;" horiz-adv-x="719" d="M149 324h-48v40q0 152 255 152q258 0 258 -152v-43q0 -45 -33.5 -77.5t-93.5 -47.5q169 -28 169 -158v-57q0 -78 -80 -125t-220 -47q-137 0 -216.5 46.5t-79.5 125.5v50h48v-50q0 -62 65.5 -98t182.5 -36q119 0 185 36t66 98v58q0 132 -234 135h-39v36h34q93 1 145 31 t52 79v44q0 114 -209 114q-105 0 -156 -27.5t-51 -86.5v-40z" />
<glyph unicode="&#xe0a3;" horiz-adv-x="695" d="M138 499h-48v40q0 152 256 152q257 0 257 -152v-43q0 -45 -33 -77.5t-93 -47.5q168 -29 168 -158v-57q0 -79 -80 -125t-219 -46q-137 0 -217 46.5t-80 124.5v50h49v-50q0 -61 66 -97t182 -36q120 0 185.5 36t65.5 97v58q0 132 -234 135h-39v36h34q92 1 144.5 31t52.5 79 v44q0 114 -209 114q-208 0 -208 -114v-40z" />
<glyph unicode="&#xe0a4;" horiz-adv-x="695" d="M138 324h-48v40q0 152 256 152q257 0 257 -152v-43q0 -45 -33 -77.5t-93 -47.5q168 -28 168 -158v-57q0 -78 -79.5 -125t-219.5 -47q-138 0 -217.5 46.5t-79.5 125.5v50h49v-50q0 -62 65.5 -98t182.5 -36q119 0 185 36t66 98v58q0 132 -234 135h-39v36h34q92 1 144.5 31 t52.5 79v44q0 114 -209 114q-105 0 -156.5 -27.5t-51.5 -86.5v-40z" />
<glyph unicode="&#xe0a5;" horiz-adv-x="321" d="M121 500v108h46v-108h118v-33h-118v-394q0 -24 19.5 -39.5t52.5 -15.5h46v-33h-59q-48 0 -76.5 22t-28.5 61v399h-98v33h98zM16 -180v34h276v-34h-276z" />
<glyph unicode="&#xe0a6;" horiz-adv-x="438" d="M116 288h-34v35q0 94 150 94q79 0 117.5 -22.5t38.5 -71.5v-21q0 -37 -27 -71q-11 -13 -30 -30q-29 -24 -74 -50q-24 -14 -68 -40q-63 -41 -78 -77h277v-34h-325q10 56 40 86q32 30 53 43l32 20q26 15 37 22q56 33 89 60q40 33 40 71v21q0 62 -122 62q-116 0 -116 -62 v-35z" />
<glyph unicode="&#xe0a7;" horiz-adv-x="646" d="M118 489h-46v48q0 154 249 154q259 0 259 -154v-33q0 -59 -45 -117q-23 -27 -52 -49q-50 -40 -127 -86q-9 -6 -33.5 -20.5t-34.5 -20.5q-26 -15 -60 -39q-86 -59 -121 -130h473v-42h-537q13 85 68 137q27 27 38 36q18 15 49 34q35 24 51 32l57 33l8 4q76 46 125 82 q91 67 96 146v33q0 115 -214 115q-203 0 -203 -115v-48z" />
<glyph unicode="&#xe0a8;" horiz-adv-x="438" d="M116 576h-34v35q0 95 150 95q156 0 156 -95v-21q0 -48 -42 -87q-34 -31 -89 -64q-24 -14 -68 -40q-63 -41 -78 -77h277v-34h-325q5 38 17 55q2 3 9 14t12 16.5t14 12.5q28 24 49 37l29 17l32 19q56 33 89 60q40 34 40 71v21q0 63 -122 63q-116 0 -116 -63v-35z" />
<glyph unicode="&#xe0a9;" horiz-adv-x="520" d="M106 359h-41v37q0 120 190 120q199 0 199 -120v-14q0 -47 -36 -90q-14 -19 -39 -38q-28 -23 -96 -65q-84 -49 -124 -81t-53 -68h348v-40h-411q12 72 52 110l30 28q12 10 39 27l39 24q29 16 45 26q69 40 112 76q52 42 52 91v14q0 83 -156 83q-150 0 -150 -83v-37z" />
<glyph unicode="&#xe0aa;" horiz-adv-x="686" d="M150 489h-46v48q0 154 249 154q259 0 259 -154v-33q0 -59 -45 -117q-23 -27 -52 -49q-47 -37 -128 -86q-9 -6 -33.5 -20.5t-34.5 -20.5q-19 -11 -59 -39q-91 -64 -121 -130h473v-42h-538q15 87 68 137q48 45 88 70q35 24 51 32l57 33l8 4q76 46 125 82q88 65 95 146v33 q0 115 -213 115q-203 0 -203 -115v-48z" />
<glyph unicode="&#xe0ab;" horiz-adv-x="559" d="M139 359h-42v37q0 120 191 120q198 0 198 -120v-14q0 -47 -36 -90q-14 -19 -39 -38q-28 -23 -96 -65q-84 -49 -124 -81t-53 -68h348v-40h-411q12 72 52 110l30 28q12 10 39 27l39 24q29 16 45 26q68 40 113 76q51 41 51 91v14q0 83 -156 83q-149 0 -149 -83v-37z" />
<glyph unicode="&#xe0ac;" horiz-adv-x="645" d="M322 597l90 109h39l-104 -125h-50l-104 125h39zM526 220v280h45v-500h-42v99q-57 -116 -235 -116q-116 0 -170 53.5t-54 175.5v288h46v-280q0 -109 42.5 -154t146.5 -45q221 0 221 199z" />
<glyph unicode="&#xe0ad;" horiz-adv-x="645" d="M222 750l128 125h48l-134 -125h-42zM201 638v37h39v-37h-39zM404 638v37h40v-37h-40zM526 220v280h45v-500h-42v99q-57 -116 -235 -116q-118 0 -171 53.5t-53 175.5v288h46v-280q0 -109 42.5 -154t146.5 -45q221 0 221 199z" />
<glyph unicode="&#xe0ae;" horiz-adv-x="645" d="M322 767l90 108h39l-104 -125h-50l-104 125h39zM201 638v37h39v-37h-39zM404 638v37h40v-37h-40zM526 220v280h45v-500h-42v99q-57 -116 -235 -116q-118 0 -171 53.5t-53 175.5v288h46v-280q0 -109 42.5 -154t146.5 -45q221 0 221 199z" />
<glyph unicode="&#xe0af;" horiz-adv-x="645" d="M368 750l-134 125h48l128 -125h-42zM200 638v37h40v-37h-40zM403 638v37h40v-37h-40zM525 220v280h45v-500h-42v99q-57 -116 -235 -116q-118 0 -170.5 53.5t-52.5 175.5v288h45v-280q0 -109 42.5 -154t146.5 -45q221 0 221 199z" />
<glyph unicode="&#xe0b0;" horiz-adv-x="645" d="M183 750v34h276v-34h-276zM200 638v37h40v-37h-40zM403 638v37h40v-37h-40zM525 220v280h45v-500h-42v99q-57 -116 -235 -116q-118 0 -170.5 53.5t-52.5 175.5v288h45v-280q0 -109 42.5 -154t146.5 -45q221 0 221 199z" />
<glyph unicode="&#xe0b1;" horiz-adv-x="645" d="M526 220v280h45v-500h-42v99q-57 -116 -235 -116q-118 0 -171 53.5t-53 175.5v288h46v-280q0 -109 42.5 -154t146.5 -45q221 0 221 199zM306 -182v37h39v-37h-39z" />
<glyph unicode="&#xe0b2;" horiz-adv-x="508" d="M45 462v38h419v-32l-361 -430h367v-38h-431v32l361 430h-355zM242 -182v37h39v-37h-39z" />
<glyph unicode="&#xe0b3;" horiz-adv-x="489" d="M65 177v56q0 188 179 188t179 -188v-56q0 -83 -48.5 -133t-130.5 -50t-130.5 50t-48.5 133zM387 176v57q0 82 -35 118.5t-108 36.5t-108 -36.5t-35 -118.5v-57q0 -70 37.5 -109.5t105.5 -39.5t105.5 39.5t37.5 109.5z" />
<glyph unicode="&#xe0b4;" horiz-adv-x="725" d="M65 285v96q0 310 296 310q298 0 298 -310v-96q0 -137 -79 -219q-80 -83 -219 -83q-137 0 -217 83q-79 82 -79 219zM611 284v97q0 141 -62.5 205.5t-187.5 64.5q-124 0 -186 -65t-62 -205v-97q0 -121 66 -191t182 -70q118 0 184 70t66 191z" />
<glyph unicode="&#xe0b5;" horiz-adv-x="485" d="M63 462v56q0 188 179 188t179 -188v-56q0 -83 -48.5 -133t-130.5 -50t-130.5 50t-48.5 133zM385 461v57q0 82 -35 118.5t-108 36.5t-108 -36.5t-35 -118.5v-57q0 -70 37.5 -109.5t105.5 -39.5t105.5 39.5t37.5 109.5z" />
<glyph unicode="&#xe0b6;" horiz-adv-x="584" d="M65 214v66q0 237 226 237q227 0 227 -237v-66q0 -104 -61 -168q-61 -63 -166 -63t-165.5 63.5t-60.5 167.5zM474 213v67q0 104 -45 151t-138 47q-92 0 -137 -47t-45 -151v-67q0 -89 48 -140t134 -51t134.5 51.5t48.5 139.5z" />
<glyph unicode="&#xe0b7;" horiz-adv-x="695" d="M50 285v96q0 310 297 310t297 -310v-96q0 -137 -79 -219q-80 -83 -218 -83t-218 83q-79 82 -79 219zM596 284v97q0 141 -62 205.5t-187 64.5t-187 -64.5t-62 -205.5v-97q0 -121 66 -191t183 -70q118 0 183.5 70.5t65.5 190.5z" />
<glyph unicode="&#xe0b8;" horiz-adv-x="568" d="M57 214v66q0 237 226 237q227 0 227 -237v-66q0 -104 -61 -168q-61 -63 -166 -63t-165.5 63.5t-60.5 167.5zM466 213v67q0 104 -45 151t-138 47q-92 0 -137 -47t-45 -151v-67q0 -89 48 -140t134 -51t134.5 51.5t48.5 139.5z" />
<glyph unicode="&#xf6c3;" horiz-adv-x="0" d="M73 -129v65h40v-65q0 -30 -19 -51t-55 -28v29q34 16 34 50z" />
</font>
</defs>
</svg>
