<?xml version="1.0" standalone="no"?>
<!DOCTYPE svg PUBLIC "-//W3C//DTD SVG 1.1//EN" "http://www.w3.org/Graphics/SVG/1.1/DTD/svg11.dtd" >
<svg xmlns="http://www.w3.org/2000/svg" xmlns:xlink="http://www.w3.org/1999/xlink" version="1.1">
<metadata></metadata>
<defs>
<font id="neogramregular" horiz-adv-x="765" >
<font-face units-per-em="1000" ascent="785" descent="-215" />
<missing-glyph horiz-adv-x="300" />
<glyph unicode="ffi" horiz-adv-x="797" d="M206 704h63v-46h-40q-25 0 -39.5 -14t-14.5 -40v-104h94v-46h-94v-454h-69v454h-78v46h78v104q0 45 27.5 72.5t72.5 27.5zM506 704h63v-46h-41q-25 0 -39.5 -14t-14.5 -40v-104h95v-46h-95v-454h-69v454h-78v46h78v104q0 45 28 72.5t73 27.5zM668 591v113h69v-113h-69z M668 0v500h69v-500h-69z" />
<glyph unicode="ffl" horiz-adv-x="803" d="M206 704h63v-46h-40q-25 0 -39.5 -14t-14.5 -40v-104h94v-46h-94v-454h-69v454h-78v46h78v104q0 45 27.5 72.5t72.5 27.5zM506 704h63v-46h-41q-25 0 -39.5 -14t-14.5 -40v-104h95v-46h-95v-454h-69v454h-78v46h78v104q0 45 28 72.5t73 27.5zM669 0v700h69v-700h-69z" />
<glyph unicode="fi" horiz-adv-x="513" d="M218 704h63v-46h-40q-25 0 -39.5 -14t-14.5 -40v-104h94v-46h-94v-454h-69v454h-78v46h78v104q0 45 27.5 72.5t72.5 27.5zM375 591v113h69v-113h-69zM375 0v500h69v-500h-69z" />
<glyph unicode="fl" horiz-adv-x="514" d="M218 704h63v-46h-40q-25 0 -39.5 -14t-14.5 -40v-104h94v-46h-94v-454h-69v454h-78v46h78v104q0 45 27.5 72.5t72.5 27.5zM375 0v700h69v-700h-69z" />
<glyph unicode=" "  horiz-adv-x="300" />
<glyph unicode="&#x09;" horiz-adv-x="300" />
<glyph unicode="&#xa0;" horiz-adv-x="300" />
<glyph unicode="!" horiz-adv-x="194" d="M66 221v483h69v-483h-69zM66 0l5 130h59l5 -130h-69z" />
<glyph unicode="&#x22;" horiz-adv-x="338" d="M67 465v247h56v-247h-56zM215 465v247h55v-247h-55z" />
<glyph unicode="#" horiz-adv-x="558" d="M369 463l50 237h53l-51 -237h95v-52h-106l-39 -184h145v-53h-156l-37 -174h-53l37 174h-119l-37 -174h-53l37 174h-96v53h107l40 184h-147v52h158l50 237h53l-51 -237h120zM199 227h119l40 184h-120z" />
<glyph unicode="$" horiz-adv-x="662" d="M303 714v85h57v-85q231 -10 231 -179v-19h-71v22q0 120 -189 120q-185 0 -185 -120v-18q0 -56 82 -86l253 -83q128 -42 128 -159v-15q0 -82 -66 -134t-183 -58v-84h-57v84q-117 6 -183 57.5t-66 134.5v44h71v-47q0 -63 53 -97t153 -34q101 0 154 34t53 97v17 q0 74 -83 103l-259 85q-121 40 -121 137v19q0 169 228 179z" />
<glyph unicode="%" horiz-adv-x="831" d="M151 -34l463 738h61l-463 -738h-61zM54 493v40q0 75 40.5 113t113.5 38q74 0 115 -38t41 -113v-40q0 -66 -42 -107t-113 -41t-113 41t-42 107zM314 493v40q0 58 -26.5 84t-78.5 26q-53 0 -79 -26t-26 -84v-40q0 -49 28 -78t77 -29t77 29t28 78zM468 136v39q0 76 40.5 114 t114.5 38t114.5 -38t40.5 -114v-39q0 -66 -42 -107t-113 -41q-70 0 -112.5 41.5t-42.5 106.5zM728 136v39q0 58 -26 84.5t-79 26.5t-79 -26.5t-26 -84.5v-39q0 -49 28 -78t77 -29t77 29t28 78z" />
<glyph unicode="&#x26;" horiz-adv-x="723" d="M134 543v38q0 65 40.5 98t115.5 33q165 0 165 -131v-38q0 -69 -60 -104l-82 -49l226 -239q41 50 81 152l53 -20q-42 -114 -92 -176l102 -107h-82l-63 67q-85 -82 -227 -82q-116 0 -186 50q-68 51 -68 134v42q0 99 81 148l80 48l-55 58q-29 32 -29 78zM397 545v36 q0 78 -104 78q-99 0 -99 -78v-38q0 -29 19 -48l60 -64l93 57q31 19 31 57zM494 113l-234 246l-82 -49q-52 -31 -52 -101v-40q1 -57 49.5 -91.5t131.5 -35.5q116 0 187 71z" />
<glyph unicode="'" horiz-adv-x="186" d="M67 465v247h56v-247h-56z" />
<glyph unicode="(" horiz-adv-x="265" d="M163 731h58q-113 -228 -113 -451q0 -233 114 -458h-59q-123 234 -123 458q0 229 123 451z" />
<glyph unicode=")" horiz-adv-x="266" d="M43 731h59q123 -225 123 -451q0 -225 -124 -458h-58q113 226 113 458q0 223 -113 451z" />
<glyph unicode="*" horiz-adv-x="410" d="M175 580v120h57v-121l116 39l22 -54l-114 -37l73 -95l-46 -36l-78 102l-69 -100l-49 30l67 98l-115 38l22 54z" />
<glyph unicode="+" horiz-adv-x="484" d="M213 343v188h59v-188h187v-56h-187v-188h-59v188h-187v56h187z" />
<glyph unicode="," horiz-adv-x="192" d="M67 -12v138h68v-138q0 -38 -24.5 -64t-71.5 -32v41q28 18 28 55z" />
<glyph unicode="-" horiz-adv-x="413" d="M67 287v56h278v-56h-278z" />
<glyph unicode="." horiz-adv-x="198" d="M67 0v126h69v-126h-69z" />
<glyph unicode="/" horiz-adv-x="418" d="M24 0l312 700h58l-311 -700h-59z" />
<glyph unicode="0" horiz-adv-x="637" d="M61 287v93q0 311 257 311q258 0 258 -311v-93q0 -136 -69 -220q-67 -84 -189 -84q-120 0 -189 84q-68 85 -68 220zM503 284v96q0 135 -46.5 193.5t-138.5 58.5t-138 -60t-46 -192v-96q0 -112 49 -176.5t135 -64.5q87 0 136 64.5t49 176.5z" />
<glyph unicode="1" horiz-adv-x="325" d="M193 684h62v-684h-73v603q-60 -70 -172 -98v54q64 15 102 42q41 30 81 83z" />
<glyph unicode="2" horiz-adv-x="569" d="M134 483h-71v49q0 79 56.5 119t161.5 40q227 0 227 -159v-32q0 -76 -55 -137q-29 -31 -54 -54q-17 -15 -67 -52l-65 -48l-53 -44q-55 -48 -78 -104h372v-61h-467q6 84 54 145q35 43 72 71q28 23 42 32l48 32q4 4 8 6l66 49q24 18 52 48q54 54 54 117v32q0 103 -156 103 q-147 0 -147 -103v-49z" />
<glyph unicode="3" horiz-adv-x="631" d="M162 496h-73v37q0 158 224 158q107 0 165.5 -39.5t58.5 -118.5v-42q0 -42 -26.5 -74t-73.5 -46q134 -32 134 -155v-54q0 -81 -69.5 -129t-188.5 -48q-118 0 -188 48q-69 49 -69 129v48h73v-48q0 -59 47 -90.5t137 -31.5q186 0 186 122v55q0 119 -168 121h-44v52h36 q68 1 105 27t37 71v45q0 102 -152 102q-78 0 -114.5 -24.5t-36.5 -77.5v-37z" />
<glyph unicode="4" horiz-adv-x="599" d="M25 222l339 461h73v-457h120v-60h-120v-166h-68v166h-344v56zM98 226h271v378z" />
<glyph unicode="5" horiz-adv-x="591" d="M62 313l75 370h375v-60h-318l-54 -246q50 71 177 71q109 0 169.5 -50.5t60.5 -150.5v-56q0 -93 -67 -151q-66 -57 -179 -57q-111 0 -177 57q-66 59 -66 151v29h73v-29q0 -69 44.5 -108.5t125.5 -39.5q83 0 128 39t45 109v56q0 80 -43 116.5t-130 36.5q-130 0 -163 -87 h-76z" />
<glyph unicode="6" horiz-adv-x="611" d="M64 191v285q0 214 236 214q95 0 155 -40.5t75 -120.5h-63q-25 111 -165 109q-82 -1 -123.5 -38t-41.5 -117v-109q44 80 175 81q241 0 241 -202v-62q0 -93 -67 -151q-66 -57 -178 -57q-110 0 -178 57q-66 59 -66 151zM481 191v62q0 81 -44 117t-129 36q-87 0 -129 -36.5 t-42 -116.5v-62q0 -69 45 -108.5t126 -39.5q82 0 127.5 39.5t45.5 108.5z" />
<glyph unicode="7" horiz-adv-x="517" d="M29 624v59h458v-53q-146 -144 -216.5 -295t-70.5 -335h-73q0 344 280 624h-378z" />
<glyph unicode="8" horiz-adv-x="634" d="M92 489v44q0 158 224 158q104 0 164 -38.5t60 -119.5v-44q0 -42 -26.5 -73.5t-74.5 -46.5q135 -33 135 -155v-52q0 -80 -70 -129q-70 -48 -188 -48q-117 0 -188 48q-69 49 -69 129v52q0 122 133 155q-48 15 -74 46.5t-26 73.5zM469 491v42q0 52 -38 75.5t-115 23.5 q-79 0 -116 -23t-37 -76v-42q0 -45 39.5 -70.5t113.5 -25.5q75 0 114 25t39 71zM502 162v54q0 64 -45.5 92.5t-140.5 28.5q-96 0 -140 -28t-44 -93v-54q0 -55 48 -86t136 -31q90 0 138 30.5t48 86.5z" />
<glyph unicode="9" horiz-adv-x="613" d="M59 431v52q0 93 66.5 150t179.5 57q111 0 177 -57t66 -150v-280q0 -220 -236 -220q-94 0 -154 41t-75 121h62q27 -110 166 -109q83 1 123.5 37.5t40.5 117.5v119q-41 -80 -175 -80q-108 -2 -174.5 46t-66.5 155zM475 431v52q0 69 -44.5 108.5t-125.5 39.5q-83 0 -128 -39 t-45 -109v-52q0 -80 44 -116.5t129 -36.5q87 0 128.5 36.5t41.5 116.5z" />
<glyph unicode=":" horiz-adv-x="198" d="M67 374v126h69v-126h-69zM67 0v126h69v-126h-69z" />
<glyph unicode=";" horiz-adv-x="185" d="M56 374v126h69v-126h-69zM56 -12v138h69v-138q0 -38 -24.5 -64t-72.5 -32v41q28 18 28 55z" />
<glyph unicode="&#x3c;" horiz-adv-x="602" d="M25 298v60l519 250v-64l-452 -217l452 -216v-63z" />
<glyph unicode="=" horiz-adv-x="523" d="M45 347v57h433v-57h-433zM45 276v56h433v-56h-433z" />
<glyph unicode="&#x3e;" horiz-adv-x="603" d="M512 327l-452 217v64l518 -250v-60l-518 -250v63z" />
<glyph unicode="?" horiz-adv-x="484" d="M112 542h-71v35q0 139 198 139q206 0 206 -139v-24q0 -66 -44 -119q-17 -21 -22 -25q-5 -5 -13.5 -12.5t-13.5 -12.5l-6 -5q-47 -46 -68 -86q-17 -36 -19 -95h-71q2 73 23 117q22 47 83 105l15 14q11 9 27 25q38 41 38 94v24q0 85 -135 85q-127 0 -127 -85v-35zM187 1 v126h73v-126h-73z" />
<glyph unicode="@" horiz-adv-x="636" d="M60 220v87q0 156 68 233.5t194 77.5t194 -77.5t68 -233.5v-87q0 -69 -20 -129h-134v51q-36 -48 -108 -48q-71 0 -113 40.5t-42 106.5v41q0 76 40.5 114t114.5 38t115 -38t41 -114v-154h45q10 41 10 92v87q0 269 -211 269t-211 -269v-87q0 -118 56 -191q57 -71 155 -71 q64 0 111 33l5 -47q-47 -28 -116 -28q-122 0 -192 84q-70 83 -70 220zM428 242v40q0 111 -106 111q-52 0 -78.5 -26t-26.5 -85v-40q0 -49 28 -78t77 -29t77.5 29t28.5 78z" />
<glyph unicode="A" horiz-adv-x="727" d="M42 0l285 700h74l285 -700h-76l-79 198h-334l-79 -198h-76zM213 251h302l-151 381z" />
<glyph unicode="B" horiz-adv-x="644" d="M70 0v700h272q227 0 227 -161v-40q0 -49 -31.5 -85t-86.5 -51q63 -14 98 -53.5t35 -96.5v-48q0 -76 -71 -121q-71 -44 -188 -44h-255zM498 495v39q0 108 -156 108h-199v-251h199q75 0 115.5 28t40.5 76zM513 173v43q0 119 -188 119h-182v-277h182q86 0 137 31.5t51 83.5z " />
<glyph unicode="C" horiz-adv-x="710" d="M61 302v89q0 325 314 325q124 0 193 -55.5t88 -174.5h-69q-19 91 -68.5 130.5t-143.5 39.5q-123 0 -182.5 -63.5t-59.5 -202.5v-88q0 -122 63 -191t179 -69q88 0 139 42.5t72 128.5h69q-44 -230 -280 -230q-147 0 -231 85q-83 86 -83 234z" />
<glyph unicode="D" horiz-adv-x="689" d="M70 0v700h233q327 0 327 -312v-83q0 -137 -87 -221t-240 -84h-233zM557 305v83q0 132 -63 192t-191 60h-160v-580h160q120 0 187 65.5t67 179.5z" />
<glyph unicode="E" horiz-adv-x="581" d="M70 0v700h487v-60h-414v-247h398v-60h-398v-273h419v-60h-492z" />
<glyph unicode="F" horiz-adv-x="550" d="M70 0v700h460v-60h-387v-247h371v-60h-371v-333h-73z" />
<glyph unicode="G" horiz-adv-x="753" d="M61 302l1 88q0 326 320 326q268 0 307 -225h-73q-18 88 -75.5 126.5t-158.5 38.5q-126 0 -187 -62.5t-61 -203.5v-88q0 -120 65 -189t183 -69q110 0 171 60.5t66 169.5v25h-230v49h298v-348h-51l-2 128q-72 -144 -252 -144q-150 0 -236 87q-85 88 -85 231z" />
<glyph unicode="H" horiz-adv-x="689" d="M547 393v307h73v-700h-73v333h-404v-333h-73v700h73v-307h404z" />
<glyph unicode="I" horiz-adv-x="207" d="M70 0v700h73v-700h-73z" />
<glyph unicode="J" horiz-adv-x="423" d="M285 205v495h72v-495q0 -99 -63 -161q-62 -61 -168 -61q-63 0 -114 27v53q50 -21 103 -21h11q75 1 117 44t42 119z" />
<glyph unicode="K" horiz-adv-x="707" d="M143 328l414 372h92l-328 -294l329 -406h-86l-293 358l-128 -114v-244h-73v700h73v-372z" />
<glyph unicode="L" horiz-adv-x="538" d="M70 0v700h73v-640h387v-60h-460z" />
<glyph unicode="M" horiz-adv-x="815" d="M407 90l247 610h91v-700h-66v581l-238 -581h-68l-237 581v-581h-67v700h92z" />
<glyph unicode="N" horiz-adv-x="697" d="M556 113v587h73v-700h-78l-409 587v-587h-73v700h77z" />
<glyph unicode="O" d="M61 302l1 89q0 325 320 325q322 0 322 -326v-88q0 -143 -85 -231q-85 -87 -237 -87q-150 0 -236 87q-85 88 -85 231zM631 302v88q0 139 -61.5 202.5t-187.5 63.5t-187 -63t-61 -202v-89q0 -120 65 -189t183 -69q119 0 184 68.5t65 189.5z" />
<glyph unicode="P" horiz-adv-x="593" d="M70 0v700h236q119 0 189.5 -43.5t70.5 -135.5v-47q0 -77 -71 -127q-71 -48 -189 -48h-163v-299h-73zM495 476v44q0 122 -189 122h-163v-285h163q88 0 138.5 32t50.5 87z" />
<glyph unicode="Q" d="M59 299v89q0 325 321 325q322 0 322 -325v-89q0 -149 -93 -234l93 -77l-34 -37l-97 81q-79 -51 -191 -51q-150 0 -236 87q-85 88 -85 231zM629 299v89q0 139 -61.5 202.5t-187.5 63.5q-124 0 -186 -62t-62 -204v-89q0 -120 65 -189t183 -69q80 0 138 35l-110 92l34 38 l112 -95q75 64 75 188z" />
<glyph unicode="R" horiz-adv-x="666" d="M70 0v700h263q117 0 183.5 -43.5t66.5 -129.5v-44q0 -60 -44 -101.5t-122 -55.5l192 -326h-82l-185 314h-199v-314h-73zM512 484v42q0 116 -179 116h-190v-271h190q83 0 131 31t48 82z" />
<glyph unicode="S" horiz-adv-x="672" d="M80 516v19q0 181 256 181q121 0 190.5 -44t69.5 -137v-19h-71v22q0 120 -189 120q-185 0 -185 -120v-18q0 -56 82 -86l253 -82q128 -44 128 -160v-15q0 -88 -75 -140.5t-203 -52.5t-202.5 52.5t-74.5 140.5v44h71v-47q0 -63 53 -97t153 -34q101 0 154 34t53 97v17 q0 74 -83 103l-259 85q-121 40 -121 137z" />
<glyph unicode="T" horiz-adv-x="615" d="M26 640v60h563v-60h-249v-640h-73v640h-241z" />
<glyph unicode="U" horiz-adv-x="691" d="M554 253v447h73v-447q0 -121 -75 -196q-76 -74 -206 -74q-128 0 -204 74q-75 75 -75 196v447h73v-447q0 -99 54 -154.5t152 -55.5q99 0 153.5 55.5t54.5 154.5z" />
<glyph unicode="V" horiz-adv-x="681" d="M341 75l221 625h77l-261 -700h-75l-261 700h77z" />
<glyph unicode="W" horiz-adv-x="1035" d="M730 89l176 611h75l-212 -700h-73l-180 598l-178 -598h-73l-212 700h74l176 -611l178 611h72z" />
<glyph unicode="X" horiz-adv-x="764" d="M382 404l232 296h89l-276 -350l279 -350h-89l-235 296l-235 -296h-89l280 350l-277 350h89z" />
<glyph unicode="Y" horiz-adv-x="741" d="M369 340l246 360h87l-296 -428v-272h-73v272l-295 428h86z" />
<glyph unicode="Z" horiz-adv-x="583" d="M39 640v60h507v-44l-417 -596h421v-60h-516v44l416 596h-411z" />
<glyph unicode="[" horiz-adv-x="234" d="M67 -180v939h151v-46h-82v-847h82v-46h-151z" />
<glyph unicode="\" horiz-adv-x="418" d="M334 0l-311 700h59l312 -700h-60z" />
<glyph unicode="]" horiz-adv-x="233" d="M15 713v46h151v-939h-151v46h82v847h-82z" />
<glyph unicode="^" horiz-adv-x="545" d="M45 322l192 378h71l192 -378h-65l-163 318l-162 -318h-65z" />
<glyph unicode="_" horiz-adv-x="684" d="M67 -184v56h549v-56h-549z" />
<glyph unicode="`" horiz-adv-x="263" d="M160 578l-123 134h65l114 -134h-56z" />
<glyph unicode="a" horiz-adv-x="576" d="M146 369h-63q29 148 212 148q217 0 217 -197v-320h-59l-2 89q-24 -47 -80.5 -76.5t-121.5 -29.5q-88 0 -141 44q-52 43 -49 114q2 59 42 91t96 39.5t111.5 9.5t95 10.5t40.5 31.5v13q0 133 -149 135q-131 0 -149 -102zM444 182v78q-16 -11 -50 -15q-31 -4 -67 -5 q-7 0 -16 -0.5t-14.5 -1t-9.5 -0.5l-38 -4q-25 -2 -39 -6q-46 -13 -59 -30q-23 -25 -23 -61q0 -45 36.5 -74t99.5 -29q72 0 124 40q51 40 56 108z" />
<glyph unicode="b" horiz-adv-x="575" d="M67 216v484h69v-280q49 97 183 97q107 1 161 -59t54 -179v-63q0 -104 -63 -169q-63 -64 -171 -64t-171 64q-62 65 -62 169zM466 216v63q0 95 -41 138t-125 43q-83 0 -123.5 -43t-40.5 -138v-63q0 -82 43 -129t121 -47t122 47t44 129z" />
<glyph unicode="c" horiz-adv-x="565" d="M61 215l1 64q0 120 60 179t173 59q191 0 217 -170h-61q-12 61 -50 87t-106 26q-83 0 -124 -43t-41 -138v-64q0 -84 42.5 -130.5t122.5 -46.5q127 0 156 114h61q-15 -81 -71.5 -125.5t-145.5 -44.5q-108 0 -171 62.5t-63 170.5z" />
<glyph unicode="d" horiz-adv-x="577" d="M439 421v280h69v-701h-59l-2 85q-57 -101 -184 -101q-100 0 -161 64t-61 170v63q0 119 56.5 178t159.5 59q134 0 182 -97zM439 218v63q0 95 -40.5 138t-123.5 43t-124 -43t-41 -138v-63q0 -82 43.5 -129t121.5 -47t121 47t43 129z" />
<glyph unicode="e" horiz-adv-x="597" d="M61 216v63q0 120 62 179t177 59q116 0 178.5 -59t62.5 -179v-19l-1 -14h-410v-39q0 -82 44.5 -129t125.5 -47q72 0 116 37.5t52 104.5h68q-13 -88 -75.5 -139t-160.5 -51q-110 0 -173.5 64.5t-65.5 168.5zM130 288h342q0 94 -43 137.5t-129 43.5t-128 -43.5t-42 -137.5z " />
<glyph unicode="f" horiz-adv-x="299" d="M206 704h63v-46h-40q-25 0 -39.5 -14t-14.5 -40v-104h94v-46h-94v-454h-69v454h-78v46h78v104q0 45 27.5 72.5t72.5 27.5z" />
<glyph unicode="g" horiz-adv-x="584" d="M59 232v52q0 107 56.5 169.5t154.5 62.5q126 0 185 -101l1 85h60v-496q0 -197 -217 -197q-89 0 -144.5 36t-66.5 106h58q19 -102 153 -100q75 0 111.5 32.5t36.5 106.5v107q-47 -95 -182 -95q-206 2 -206 232zM447 235v52q0 82 -43 129t-121 47q-76 0 -115.5 -46 t-39.5 -130v-52q0 -97 37 -139.5t118 -42.5q83 0 123.5 43.5t40.5 138.5z" />
<glyph unicode="h" horiz-adv-x="552" d="M71 0v700h68v-280q49 97 181 97q97 0 142.5 -55t45.5 -177v-285h-68v279q0 100 -30.5 140.5t-107.5 40.5q-82 0 -122.5 -43.5t-40.5 -137.5v-279h-68z" />
<glyph unicode="i" horiz-adv-x="198" d="M70 591v113h69v-113h-69zM70 0v500h69v-500h-69z" />
<glyph unicode="j" horiz-adv-x="210" d="M78 591v113h69v-113h-69zM78 -70v570h69v-583q0 -82 -91 -94q-24 -2 -38 -2h-16v50q25 0 30 1q46 7 46 58z" />
<glyph unicode="k" horiz-adv-x="536" d="M71 0v700h69v-435l259 237h85l-216 -197l246 -305h-81l-210 259l-83 -74v-185h-69z" />
<glyph unicode="l" horiz-adv-x="204" d="M71 0v700h69v-700h-69z" />
<glyph unicode="m" horiz-adv-x="842" d="M70 500h64v-80q43 96 154 97q107 2 140 -83q47 83 163 83q95 0 139 -55t44 -177v-285h-69v280q0 101 -29 142q-28 40 -103 40q-54 -1 -83 -22t-40 -68q6 -41 6 -92v-280h-68v280q0 101 -25.5 141.5t-88.5 40.5q-135 0 -135 -182v-280h-69v500z" />
<glyph unicode="n" horiz-adv-x="573" d="M70 500h63v-80q48 97 183 97q98 0 144.5 -55.5t46.5 -176.5v-285h-68v279q0 100 -30.5 140.5t-108.5 40.5q-79 0 -120.5 -43t-41.5 -138v-279h-68v500z" />
<glyph unicode="o" horiz-adv-x="599" d="M60 216v63q0 120 62 179t177 59q116 0 178 -59t62 -179v-63q0 -104 -65 -169q-64 -64 -175 -64t-175 64t-64 169zM471 216v63q0 95 -42.5 138t-129.5 43q-85 0 -127.5 -42t-42.5 -139v-63q0 -82 44.5 -129t125.5 -47t126.5 47t45.5 129z" />
<glyph unicode="p" horiz-adv-x="580" d="M71 500h60l2 -84q54 101 184 101q100 0 161 -64t61 -170v-63q0 -119 -56.5 -178t-159.5 -59q-135 0 -183 97v-260h-69v680zM470 220v63q0 82 -44 129t-122 47t-121 -47t-43 -129v-63q0 -95 41 -138.5t124 -43.5t124 43.5t41 138.5z" />
<glyph unicode="q" horiz-adv-x="576" d="M42 221v63q0 104 63 168q63 65 171 65t170 -65q63 -64 63 -168v-464h-69v260q-49 -97 -183 -97q-215 0 -215 238zM440 221v63q0 82 -43 129t-121 47q-79 0 -122.5 -47t-43.5 -129v-63q0 -95 41 -138t124 -43q85 0 125 43t40 138z" />
<glyph unicode="r" horiz-adv-x="327" d="M70 500h63v-107q46 121 181 124v-57q-86 -3 -131 -54.5t-45 -150.5v-255h-68v500z" />
<glyph unicode="s" horiz-adv-x="536" d="M77 369v14q0 134 189 134q91 0 141 -33t51 -100v-12h-63v12q-1 85 -129 85q-122 0 -124 -81l-1 -12q0 -19 18 -36t48 -26l168 -55q102 -35 102 -122v-6q0 -67 -56.5 -107.5t-154.5 -40.5q-95 0 -151 39t-58 105v28h63v-27q1 -45 39.5 -71.5t106.5 -26.5t106 25t39 67l1 7 q2 56 -65 79l-180 59q-90 30 -90 102z" />
<glyph unicode="t" horiz-adv-x="302" d="M101 500v114h69v-114h94v-46h-94v-368q0 -23 13.5 -38t39.5 -15h41v-47h-63q-46 0 -73 24t-27 67v377h-78v46h78z" />
<glyph unicode="u" horiz-adv-x="572" d="M435 221v279h68v-500h-63v80q-48 -97 -185 -97q-97 0 -143 53t-46 169v295h68v-279q0 -100 31 -140.5t108 -40.5q162 0 162 181z" />
<glyph unicode="v" horiz-adv-x="526" d="M263 64l153 436h71l-187 -500h-75l-187 500h71z" />
<glyph unicode="w" horiz-adv-x="787" d="M551 64l129 436h68l-160 -500h-66l-129 409l-130 -409h-66l-159 500h68l128 -436l129 436h60z" />
<glyph unicode="x" horiz-adv-x="597" d="M297 305l155 195h82l-194 -242l203 -258h-80l-165 212l-165 -212h-80l203 258l-194 242h83z" />
<glyph unicode="y" horiz-adv-x="527" d="M267 54l160 446h69l-254 -680h-55l62 176h-20l-189 504h70z" />
<glyph unicode="z" horiz-adv-x="452" d="M43 445v55h367v-41l-282 -404h287v-55h-377v41l282 404h-277z" />
<glyph unicode="{" horiz-adv-x="296" d="M196 759h71v-46h-45q-27 0 -39.5 -21t-12.5 -71v-179q0 -48 -16.5 -91t-45.5 -60q29 -20 45.5 -61.5t16.5 -92.5v-177q0 -55 12.5 -74.5t39.5 -19.5h45v-46h-71q-95 0 -95 123v178q0 61 -13.5 94t-50.5 52l-3 1v47l4 1q29 5 46 45t17 97v180q0 121 95 121z" />
<glyph unicode="|" horiz-adv-x="190" d="M67 -47v783h60v-783h-60z" />
<glyph unicode="}" horiz-adv-x="296" d="M29 713v46h71q50 0 72.5 -29.5t22.5 -91.5v-180q0 -54 16 -95t45 -47l6 -1v-47l-6 -2q-37 -19 -49 -53t-12 -92v-178q0 -123 -95 -123h-71v46h44q28 0 40.5 20.5t12.5 73.5v177q0 50 16.5 92t45.5 62q-29 17 -45.5 60t-16.5 91v179q0 52 -12.5 72t-40.5 20h-44z" />
<glyph unicode="~" horiz-adv-x="585" d="M108 181l-48 27q46 85 109 93q19 4 38 4q29 0 80 -17q19 -5 44 -15t42 -15t30 -4q25 2 42.5 18.5t38.5 50.5l45 -30q-21 -33 -42 -58q-24 -26 -58 -33q-7 -1 -20 -1q-35 0 -106 27q-11 3 -30.5 10.5t-35 11t-32.5 3.5h-6q-52 -1 -91 -72z" />
<glyph unicode="&#xa1;" horiz-adv-x="192" d="M71 394l-5 130h69l-5 -130h-59zM66 -180v483h69v-483h-69z" />
<glyph unicode="&#xa2;" horiz-adv-x="541" d="M248 514v85h57v-84q172 -9 196 -168h-61q-13 61 -49.5 87t-106.5 26q-83 0 -123.5 -43t-40.5 -138v-64q0 -84 43 -130.5t121 -46.5q128 0 157 114h60q-14 -76 -65 -120t-131 -48v-66h-57v67q-92 10 -144.5 71t-52.5 159v64q0 215 197 235z" />
<glyph unicode="&#xa3;" horiz-adv-x="627" d="M61 326v54h64q-37 62 -47 90q-10 30 -10 84q0 162 223 162q207 0 210 -172h-58q-4 115 -152 114q-78 0 -115.5 -28t-35.5 -85q0 -46 11 -76q11 -26 51 -89h234v-54h-216q19 -44 19 -99v-14q-5 -73 -66 -135q30 12 65 12h5q29 0 83 -20q52 -19 82 -21q74 0 144 77l28 -45 q-80 -94 -178 -94q-40 0 -104 24q-63 24 -89 24q-57 0 -122 -48l-26 46q111 86 112 179q1 65 -26 114h-86z" />
<glyph unicode="&#xa5;" horiz-adv-x="745" d="M371 340l246 360h87l-214 -308h101v-46h-131l-52 -74v-44h183v-46h-183v-182h-73v182h-182v46h182v44l-52 74h-130v46h100l-213 308h86z" />
<glyph unicode="&#xa6;" horiz-adv-x="190" d="M67 420v316h60v-316h-60zM67 -47v316h60v-316h-60z" />
<glyph unicode="&#xa7;" horiz-adv-x="538" d="M78 427v14q0 134 189 134q191 0 192 -132v-12h-64v12q-1 84 -128 84q-122 0 -124 -80l-1 -12q0 -19 17.5 -35.5t46.5 -26.5l170 -56q101 -33 101 -122v-5q0 -66 -53 -105q53 -35 53 -99v-5q0 -67 -56.5 -107.5t-153.5 -40.5q-96 0 -152 39t-57 105v27h63v-27 q1 -45 39.5 -71.5t106.5 -26.5q69 0 107 26t38 68l1 6q1 56 -65 79l-180 59q-90 30 -90 101v14q0 76 63 107q-63 30 -63 88zM348 267l-137 45q-68 -17 -68 -74l-1 -12q0 -40 57 -60l158 -52l10 -4q45 26 45 73l1 5q1 56 -65 79z" />
<glyph unicode="&#xa8;" horiz-adv-x="370" d="M67 635v50h57v-50h-57zM245 635v50h58v-50h-58z" />
<glyph unicode="&#xa9;" horiz-adv-x="848" d="M424 717q152 0 259.5 -107.5t107.5 -259.5q3 -149 -107.5 -259.5t-259.5 -107.5q-152 0 -259.5 107.5t-107.5 259.5q-3 149 107.5 259.5t259.5 107.5zM586 630q-74 44 -162 44t-162.5 -43.5t-117.5 -118.5q-67 -110 -31.5 -245.5t148.5 -197.5q74 -43 163 -43 q87 0 162 43t118 118q34 54 41.5 120t-8.5 127t-55.5 114t-95.5 82zM250 326v49q0 187 179 187q72 0 111.5 -33.5t49.5 -104.5h-43q-12 53 -39 75t-79 22q-67 0 -100 -34.5t-33 -111.5v-49q0 -68 34 -105.5t99 -37.5q50 0 76.5 24.5t39.5 72.5h44q-24 -137 -160 -137 q-83 0 -131 49t-48 134z" />
<glyph unicode="&#xaa;" horiz-adv-x="397" d="M116 605h-45q18 95 130 95q133 0 133 -120v-193h-44l-1 41q-37 -51 -115 -51q-54 0 -86 27t-30 70q0 46 50 71q12 6 32 9q9 1 68 7q29 1 52 5t25 16v7q0 76 -84 76q-73 1 -85 -60zM285 498v40q-12 -6 -60 -9q-5 0 -11.5 -0.5t-10.5 -1t-7 -0.5q-34 0 -52 -8 q-38 -15 -38 -48q1 -25 21.5 -40.5t55.5 -15.5q42 0 71 22.5t31 60.5z" />
<glyph unicode="&#xab;" horiz-adv-x="430" d="M49 229v68l137 128v-67l-99 -95l99 -94v-67zM228 229v68l137 128v-67l-99 -95l99 -94v-67z" />
<glyph unicode="&#xac;" horiz-adv-x="847" />
<glyph unicode="&#xae;" horiz-adv-x="848" d="M424 717q152 0 259.5 -107.5t107.5 -259.5q3 -149 -107.5 -259.5t-259.5 -107.5q-152 0 -259.5 107.5t-107.5 259.5q-3 149 107.5 259.5t259.5 107.5zM586 630q-74 44 -162 44t-162.5 -43.5t-117.5 -118.5q-67 -110 -31.5 -245.5t148.5 -197.5q74 -43 163 -43 q87 0 162 43t118 118q34 54 41.5 120t-8.5 127t-55.5 114t-95.5 82zM279 149v410h155q68 0 106.5 -25.5t38.5 -76.5v-26q0 -35 -25 -59.5t-69 -33.5l111 -189h-51l-108 182h-112v-182h-46zM535 432v24q0 65 -102 65h-108v-153h108q48 0 75 17t27 47z" />
<glyph unicode="&#xb0;" horiz-adv-x="400" d="M343 574q0 -59 -41 -103q-40 -42 -102 -42q-60 0 -102 42q-41 43 -41 103q0 59 42 101t101 42q60 0 101 -42q42 -42 42 -101zM200 676q-41 0 -72 -31q-30 -31 -30 -71q0 -44 30 -74t72 -30q44 0 73.5 30t29.5 74q0 42 -29.5 72t-73.5 30z" />
<glyph unicode="&#xb1;" horiz-adv-x="847" />
<glyph unicode="&#xb2;" horiz-adv-x="392" d="M123 574h-49v34q0 97 132 97q138 0 138 -97v-21q0 -40 -24.5 -72.5t-79.5 -73.5q-39 -27 -51 -37q-46 -32 -64 -72h219v-44h-285q-1 47 41 101q6 8 28 27q12 10 30 23l36 25q30 20 51 38q49 43 49 85v21q0 56 -88 56q-83 0 -83 -56v-34z" />
<glyph unicode="&#xb3;" horiz-adv-x="430" d="M127 582h-50v26q0 97 135 97q137 0 137 -97v-30q0 -48 -49 -70q69 -20 69 -92v-29q0 -49 -42 -78.5t-115 -29.5q-71 0 -113 30t-42 78v33h51v-33q0 -68 104 -68q107 0 107 68v30q0 65 -96 67h-30v39h26q79 2 79 53v32q0 57 -86 57q-85 0 -85 -57v-26z" />
<glyph unicode="&#xb4;" horiz-adv-x="263" d="M37 578l114 134h65l-123 -134h-56z" />
<glyph unicode="&#xb5;" horiz-adv-x="833" />
<glyph unicode="&#xb6;" horiz-adv-x="644" d="M279 700h316v-60h-83v-798h-61v798h-137v-798h-61v458q-91 6 -150 62.5t-59 132.5q0 96 63 150.5t172 54.5z" />
<glyph unicode="&#xb8;" horiz-adv-x="295" d="M74 -76l53 76h47l-37 -49q12 2 19 2q8 0 13 -1q34 -3 55.5 -20.5t21.5 -46.5q0 -37 -26 -57t-70 -22h-7q-54 0 -99 17l9 32q39 -15 83 -15q60 2 60 45q0 34 -48 34q-30 0 -49 -13z" />
<glyph unicode="&#xb9;" horiz-adv-x="236" d="M125 700h42v-412h-51v349q-37 -37 -102 -52v41q38 9 62 25t49 49z" />
<glyph unicode="&#xba;" horiz-adv-x="412" d="M60 518v38q0 144 145 144q147 0 147 -144v-38q0 -63 -40 -102.5t-107 -39.5q-66 0 -105.5 39t-39.5 103zM303 518v38q0 54 -24 78t-74 24q-48 0 -71.5 -24t-23.5 -78v-38q0 -46 25 -73t70 -27q47 0 72.5 26.5t25.5 73.5z" />
<glyph unicode="&#xbb;" horiz-adv-x="432" d="M166 263l-99 95v67l137 -128v-68l-137 -127v67zM346 263l-100 95v67l137 -128v-68l-137 -127v67z" />
<glyph unicode="&#xbc;" horiz-adv-x="775" d="M152 -17l327 734h59l-326 -734h-60zM127 700h43v-412h-52v349q-37 -37 -102 -52v41q39 9 62 25t49 49zM410 137l202 275h50v-270h72v-43h-72v-99h-48v99h-204v38zM464 142h150v208z" />
<glyph unicode="&#xbd;" horiz-adv-x="818" d="M152 -17l327 734h59l-326 -734h-60zM127 700h43v-412h-52v349q-37 -37 -102 -52v41q39 9 62 25t49 49zM540 286h-50v29q0 98 133 98q138 0 138 -98v-16q0 -41 -24.5 -73.5t-79.5 -71.5q-39 -27 -51 -37q-48 -35 -64 -72h219v-45h-285q-1 49 41 101q6 8 28 27q7 6 17 14 t12 9l37 25q43 31 69 57q31 31 31 66v16q0 57 -88 57q-83 0 -83 -57v-29z" />
<glyph unicode="&#xbe;" horiz-adv-x="924" d="M300 -17l327 734h59l-326 -734h-60zM118 581h-50v26q0 97 135 97q138 0 138 -97v-25q0 -47 -50 -70q70 -19 70 -93v-28q0 -49 -43 -78.5t-115 -29.5q-71 0 -113 29.5t-42 78.5v32h51v-32q0 -68 104 -68q107 0 107 68v29q0 66 -96 68h-30v39h26q38 0 59 14t21 39v27 q0 57 -87 57q-85 0 -85 -57v-26zM558 137l202 275h50v-270h72v-43h-72v-99h-48v99h-204v38zM612 142h150v208z" />
<glyph unicode="&#xbf;" horiz-adv-x="484" d="M223 409v127h73v-127h-73zM224 338h71q-1 -69 -24 -117t-81 -105l-15 -14q-16 -14 -28 -25q-13 -14 -25 -41t-12 -52v-25q0 -84 135 -84q126 0 126 84v36h71v-36q0 -139 -197 -139q-206 0 -206 139v25q0 66 43 118q18 22 21 25q33 30 35 30q48 47 67 86q19 37 19 95z" />
<glyph unicode="&#xc0;" horiz-adv-x="727" d="M400 778l-123 134h65l115 -134h-57zM42 0l285 700h74l285 -700h-76l-79 198h-334l-79 -198h-76zM213 251h302l-151 381z" />
<glyph unicode="&#xc1;" horiz-adv-x="727" d="M263 778l114 134h66l-124 -134h-56zM42 0l285 700h74l285 -700h-76l-79 198h-334l-79 -198h-76zM213 251h302l-151 381z" />
<glyph unicode="&#xc2;" horiz-adv-x="727" d="M240 778l92 134h64l92 -134h-53l-71 103l-71 -103h-53zM42 0l285 700h74l285 -700h-76l-79 198h-334l-79 -198h-76zM213 251h302l-151 381z" />
<glyph unicode="&#xc3;" horiz-adv-x="727" d="M246 830l-32 19q32 63 81 63q24 1 40 -6q5 -1 31 -12q47 -22 63 -22q11 0 22 8q2 2 4 3.5t3.5 2.5t3 2.5l2.5 2.5t2.5 3t2.5 3t2.5 4t2.5 4.5t3.5 5.5t4.5 6l32 -20q-19 -31 -35 -46t-36 -17q-4 -1 -13 -1q-24 0 -67 18q-51 20 -66 20q-28 0 -51 -41zM42 0l285 700h74 l285 -700h-76l-79 198h-334l-79 -198h-76zM213 251h302l-151 381z" />
<glyph unicode="&#xc4;" horiz-adv-x="727" d="M245 835v50h58v-50h-58zM424 835v50h57v-50h-57zM42 0l285 700h74l285 -700h-76l-79 198h-334l-79 -198h-76zM213 251h302l-151 381z" />
<glyph unicode="&#xc5;" horiz-adv-x="727" d="M457 866q0 -38 -27.5 -66t-66.5 -28q-38 0 -66 28t-28 66t28 66t66 28t66 -28t28 -66zM363 927q-25 0 -42.5 -18t-17.5 -43q-1 -24 18 -42t42.5 -18t42.5 18q30 25 13 65t-56 38zM42 0l285 700h74l285 -700h-76l-79 198h-334l-79 -198h-76zM213 251h302l-151 381z" />
<glyph unicode="&#xc6;" horiz-adv-x="877" d="M46 0l284 700h515v-60h-415v-247h399v-60h-399v-273h419v-60h-491v198h-158l-78 -198h-76zM217 251h141v357z" />
<glyph unicode="&#xc7;" horiz-adv-x="695" d="M54 302v89q0 325 313 325q124 0 193.5 -55.5t87.5 -174.5h-68q-20 91 -69.5 130.5t-143.5 39.5q-122 0 -181.5 -63t-59.5 -202v-89q0 -123 62 -191.5t179 -68.5q88 0 139 42.5t72 128.5h70q-44 -229 -274 -230h-7l-23 -32q4 1 13 1t17 -1q31 -2 55 -20t24 -46 q0 -39 -30.5 -59.5t-77.5 -21.5q-49 0 -94 19l9 32q42 -16 71 -16q71 0 71 46q0 15 -15 24.5t-33 9.5q-30 0 -49 -13l-25 18l42 61q-126 12 -197 96t-71 221z" />
<glyph unicode="&#xc8;" horiz-adv-x="581" d="M348 778l-123 134h66l114 -134h-57zM70 0v700h487v-60h-414v-247h398v-60h-398v-273h419v-60h-492z" />
<glyph unicode="&#xc9;" horiz-adv-x="581" d="M211 778l114 134h66l-123 -134h-57zM70 0v700h487v-60h-414v-247h398v-60h-398v-273h419v-60h-492z" />
<glyph unicode="&#xca;" horiz-adv-x="581" d="M188 778l92 134h64l92 -134h-53l-71 103l-71 -103h-53zM70 0v700h487v-60h-414v-247h398v-60h-398v-273h419v-60h-492z" />
<glyph unicode="&#xcb;" horiz-adv-x="581" d="M193 835v50h58v-50h-58zM372 835v50h57v-50h-57zM70 0v700h487v-60h-414v-247h398v-60h-398v-273h419v-60h-492z" />
<glyph unicode="&#xcc;" horiz-adv-x="207" d="M140 778l-123 134h65l114 -134h-56zM69 0v700h73v-700h-73z" />
<glyph unicode="&#xcd;" horiz-adv-x="207" d="M3 778l115 134h65l-123 -134h-57zM70 0v700h73v-700h-73z" />
<glyph unicode="&#xce;" horiz-adv-x="207" d="M-20 778l93 134h63l93 -134h-53l-71 103l-71 -103h-54zM70 0v700h73v-700h-73z" />
<glyph unicode="&#xcf;" horiz-adv-x="207" d="M-14 835v50h57v-50h-57zM164 835v50h58v-50h-58zM70 0v700h73v-700h-73z" />
<glyph unicode="&#xd0;" horiz-adv-x="739" d="M119 389v311h233q327 0 327 -312v-83q0 -137 -87 -221t-240 -84h-233v332h-64v57h64zM606 305v83q0 132 -63 192t-191 60h-160v-251h142v-57h-142v-272h160q121 0 187.5 65.5t66.5 179.5z" />
<glyph unicode="&#xd1;" horiz-adv-x="697" d="M232 830l-32 19q32 63 81 63q18 3 36 -4q3 -1 6.5 -2t7.5 -3q5 -1 7 -3l14 -6q47 -22 63 -22q11 0 22 8q2 2 4 3.5t3.5 2.5t3 2.5l2.5 2.5t2.5 3t2.5 3t2.5 4t2.5 4.5t3.5 5.5t4.5 6l33 -20q-20 -32 -36 -46.5t-36 -16.5q-4 -1 -13 -1q-24 0 -67 18q-2 1 -9 4t-15 6 t-10 4q-14 6 -32 6q-28 0 -51 -41zM556 113v587h73v-700h-78l-409 587v-587h-73v700h77z" />
<glyph unicode="&#xd2;" d="M419 778l-123 134h65l115 -134h-57zM61 302l1 88q0 326 320 326q322 0 322 -326v-88q0 -143 -85 -231q-85 -87 -237 -87q-150 0 -236 87q-85 88 -85 231zM631 302v88q0 139 -61.5 202.5t-187.5 63.5t-187 -62.5t-61 -203.5v-88q0 -120 65 -189t183 -69q119 0 184 68.5 t65 189.5z" />
<glyph unicode="&#xd3;" d="M282 778l114 134h65l-123 -134h-56zM61 302l1 88q0 326 320 326q322 0 322 -326v-88q0 -143 -85 -231q-85 -87 -237 -87q-150 0 -236 87q-85 88 -85 231zM631 302v88q0 139 -61.5 202.5t-187.5 63.5t-187 -62.5t-61 -203.5v-88q0 -120 65 -189t183 -69q119 0 184 68.5 t65 189.5z" />
<glyph unicode="&#xd4;" d="M259 778l92 134h64l92 -134h-53l-71 103l-71 -103h-53zM61 302l1 88q0 326 320 326q322 0 322 -326v-88q0 -143 -85 -231q-85 -87 -237 -87q-150 0 -236 87q-85 88 -85 231zM631 302v88q0 139 -61.5 202.5t-187.5 63.5t-187 -62.5t-61 -203.5v-88q0 -120 65 -189t183 -69 q119 0 184 68.5t65 189.5z" />
<glyph unicode="&#xd5;" d="M265 830l-32 19q31 63 81 63q24 1 40 -6q5 -1 31 -12q47 -22 63 -22q10 0 21 8q15 11 32 37l32 -20q-19 -31 -35 -46t-37 -17q-3 -1 -12 -1q-23 0 -67 18q-2 1 -9 4t-15 6t-10 4q-14 6 -32 6q-28 0 -51 -41zM61 302v89q0 325 321 325q322 0 322 -325v-89q0 -143 -85 -231 q-85 -87 -237 -87q-150 0 -236 87q-85 88 -85 231zM631 302v89q0 139 -61.5 202t-187.5 63t-187 -63t-61 -202v-89q0 -120 65 -189t183 -69q119 0 184 68.5t65 189.5z" />
<glyph unicode="&#xd6;" d="M264 835v50h58v-50h-58zM443 835v50h57v-50h-57zM61 302l1 89q0 325 320 325q322 0 322 -326v-88q0 -143 -85 -231q-85 -87 -237 -87q-150 0 -236 87q-85 88 -85 231zM631 302v88q0 139 -61.5 202.5t-187.5 63.5t-187 -63t-61 -202v-89q0 -120 65 -189t183 -69 q119 0 184 68.5t65 189.5z" />
<glyph unicode="&#xd7;" horiz-adv-x="473" d="M194 314l-133 133l42 42l133 -133l132 132l40 -40l-132 -132l133 -133l-42 -42l-133 133l-132 -132l-40 40z" />
<glyph unicode="&#xd8;" d="M531 750h59l-31 -70q145 -72 145 -290v-88q0 -143 -85 -231q-85 -87 -237 -87q-69 0 -123 19l-24 -53h-59l33 75q-72 39 -110 111t-38 166v88q0 326 321 326q73 0 127 -16zM134 390v-88q0 -153 101 -219l249 561q-44 12 -102 12q-124 0 -186 -61.5t-62 -204.5zM631 302 v88q0 173 -98 232l-249 -563q44 -15 98 -15q119 0 184 68.5t65 189.5z" />
<glyph unicode="&#xd9;" horiz-adv-x="691" d="M383 778l-123 134h66l114 -134h-57zM554 253v447h73v-447q0 -121 -75 -196q-76 -74 -206 -74q-128 0 -204 74q-75 75 -75 196v447h73v-447q0 -99 54 -154.5t152 -55.5q99 0 153.5 55.5t54.5 154.5z" />
<glyph unicode="&#xda;" horiz-adv-x="691" d="M246 778l114 134h66l-123 -134h-57zM554 253v447h73v-447q0 -121 -75 -196q-76 -74 -206 -74q-128 0 -204 74q-75 75 -75 196v447h73v-447q0 -99 54 -154.5t152 -55.5q99 0 153.5 55.5t54.5 154.5z" />
<glyph unicode="&#xdb;" horiz-adv-x="691" d="M223 778l93 134h63l93 -134h-54l-71 103l-71 -103h-53zM554 253v447h73v-447q0 -121 -75 -196q-76 -74 -206 -74q-128 0 -204 74q-75 75 -75 196v447h73v-447q0 -99 54 -154.5t152 -55.5q99 0 153.5 55.5t54.5 154.5z" />
<glyph unicode="&#xdc;" horiz-adv-x="691" d="M228 835v50h58v-50h-58zM407 835v50h57v-50h-57zM554 253v447h73v-447q0 -121 -75 -196q-76 -74 -206 -74q-128 0 -204 74q-75 75 -75 196v447h73v-447q0 -99 54 -154.5t152 -55.5q99 0 153.5 55.5t54.5 154.5z" />
<glyph unicode="&#xdd;" horiz-adv-x="741" d="M269 778l115 134h65l-123 -134h-57zM369 340l246 360h87l-296 -428v-272h-73v272l-295 428h86z" />
<glyph unicode="&#xde;" horiz-adv-x="586" d="M70 0v700h73v-104h161q124 0 192 -44t68 -134v-47q0 -79 -71 -127t-189 -48h-161v-196h-73zM491 371v47q0 63 -46 91t-141 28h-161v-282h161q90 0 138.5 30.5t48.5 85.5z" />
<glyph unicode="&#xdf;" horiz-adv-x="611" d="M140 1h-72v558q0 157 226 157q107 0 166 -39t59 -118v-63q0 -41 -26.5 -72.5t-74.5 -46.5q134 -33 134 -156v-44q0 -79 -70 -128q-69 -48 -188 -48h-99v59h99q90 0 138 31t48 88v44q0 65 -46.5 94t-143.5 29v52q75 1 115.5 26.5t40.5 71.5v59q0 102 -152 102 q-79 0 -116.5 -24.5t-37.5 -77.5v-554z" />
<glyph unicode="&#xe0;" horiz-adv-x="576" d="M328 578l-123 134h65l115 -134h-57zM146 369h-63q29 148 212 148q217 0 217 -197v-320h-59l-2 89q-26 -47 -81 -77q-56 -29 -121 -29q-88 0 -141 44q-52 43 -49 113q2 59 42 91.5t96 40t111.5 9.5t95 10t40.5 32v13q0 133 -149 135q-64 0 -101.5 -23.5t-47.5 -78.5z M444 182v78q-10 -7 -32 -12q-19 -3 -85 -8q-7 0 -16 -0.5t-15 -1t-10 -0.5q-53 -3 -76 -10q-46 -13 -59 -30q-23 -25 -23 -61q0 -45 36.5 -74t99.5 -29q72 0 124 40q51 40 56 108z" />
<glyph unicode="&#xe1;" horiz-adv-x="576" d="M191 578l114 134h66l-123 -134h-57zM146 369h-63q29 148 212 148q217 0 217 -197v-320h-59l-2 89q-26 -47 -81 -77q-56 -29 -121 -29q-88 0 -141 44q-52 43 -49 113q2 59 42 91.5t96 40t111.5 9.5t95 10t40.5 32v13q0 133 -149 135q-64 0 -101.5 -23.5t-47.5 -78.5z M444 182v78q-10 -7 -32 -12q-19 -3 -85 -8q-7 0 -16 -0.5t-15 -1t-10 -0.5q-53 -3 -76 -10q-46 -13 -59 -30q-23 -25 -23 -61q0 -45 36.5 -74t99.5 -29q72 0 124 40q51 40 56 108z" />
<glyph unicode="&#xe2;" horiz-adv-x="576" d="M168 578l92 134h64l92 -134h-53l-71 103l-71 -103h-53zM146 369h-63q29 148 212 148q217 0 217 -197v-320h-59l-2 89q-26 -47 -81 -77q-56 -29 -121 -29q-88 0 -141 44q-52 43 -49 113q2 59 42 91.5t96 40t111.5 9.5t95 10t40.5 32v13q0 133 -149 135q-64 0 -101.5 -23.5 t-47.5 -78.5zM444 182v78q-10 -7 -32 -12q-19 -3 -85 -8q-7 0 -16 -0.5t-15 -1t-10 -0.5q-53 -3 -76 -10q-46 -13 -59 -30q-23 -25 -23 -61q0 -45 36.5 -74t99.5 -29q72 0 124 40q51 40 56 108z" />
<glyph unicode="&#xe3;" horiz-adv-x="576" d="M174 630l-32 19q32 63 81 63q24 1 40 -6q5 -1 31 -12q47 -22 63 -22q11 0 22 8q2 2 4 3.5t3.5 2.5t3 2.5l2.5 2.5t2.5 3t2.5 3t2.5 4t2.5 4.5t3.5 5.5t4.5 6l33 -20q-20 -32 -36 -46.5t-36 -16.5q-4 -1 -13 -1q-24 0 -67 18q-2 1 -9 4t-15 6t-10 4q-14 6 -32 6 q-28 0 -51 -41zM146 369h-63q29 148 212 148q217 0 217 -197v-320h-59l-2 89q-26 -47 -81 -77q-56 -29 -121 -29q-88 0 -141 44q-52 43 -49 114q2 59 42 91t96 39.5t111.5 9.5t95 10.5t40.5 31.5v13q0 133 -149 135q-64 0 -101.5 -23.5t-47.5 -78.5zM444 182v78 q-10 -7 -32 -12q-19 -3 -85 -8q-7 0 -16 -0.5t-15 -1t-10 -0.5q-53 -3 -76 -10q-46 -13 -59 -30q-23 -25 -23 -61q0 -45 36.5 -74t99.5 -29q72 0 124 40q51 40 56 108z" />
<glyph unicode="&#xe4;" horiz-adv-x="576" d="M173 635v50h58v-50h-58zM352 635v50h57v-50h-57zM146 369h-63q29 148 212 148q217 0 217 -197v-320h-59l-2 89q-26 -47 -81 -77q-56 -29 -121 -29q-88 0 -141 44q-52 43 -49 114q2 59 42 91t96 39.5t111.5 9.5t95 10.5t40.5 31.5v13q0 133 -149 135q-131 0 -149 -102z M444 182v78q-8 -6 -36 -13q-22 -4 -26 -4l-55 -3q-7 0 -16 -0.5t-15 -1t-10 -0.5q-53 -3 -76 -10q-46 -13 -59 -30q-23 -25 -23 -61q0 -45 36.5 -74t99.5 -29q72 0 124 40q51 40 56 108z" />
<glyph unicode="&#xe5;" horiz-adv-x="576" d="M385 666q0 -38 -27.5 -66t-66.5 -28q-37 0 -65.5 28t-28.5 66t28 66t66 28t66 -28t28 -66zM334 709q-18 18 -42.5 18t-42.5 -18t-18 -42.5t18 -42.5t42.5 -18t42.5 18t18 42.5t-18 42.5zM146 369h-63q29 148 212 148q217 0 217 -197v-320h-59l-2 89q-26 -47 -81 -77 q-56 -29 -121 -29q-88 0 -141 44q-52 43 -49 114q2 59 42 91t96 39.5t111.5 9.5t95 10.5t40.5 31.5v13q0 133 -149 135q-64 0 -101.5 -23.5t-47.5 -78.5zM444 182v78q-8 -6 -36 -13q-22 -4 -26 -4q-7 0 -23 -1l-32 -2q-7 0 -16 -0.5t-14.5 -1t-9.5 -0.5l-38 -4 q-25 -2 -39 -6q-46 -13 -59 -30q-23 -25 -23 -61q0 -45 36.5 -74t99.5 -29q74 0 124 40q51 40 56 108z" />
<glyph unicode="&#xe6;" horiz-adv-x="1011" d="M152 369h-63q29 148 212 148q164 0 200 -114q51 114 211 114q116 0 178 -59t62 -179v-19v-14h-410v-39q0 -82 44.5 -129t125.5 -47q71 0 115.5 37.5t52.5 104.5h68q-13 -88 -75.5 -139t-160.5 -51q-137 0 -194 99v-82h-59l-2 89q-26 -47 -81 -77q-56 -29 -121 -29 q-88 0 -141 44q-52 43 -49 114q2 59 42 91t96 39.5t111.5 9.5t95 10.5t40.5 31.5v13q0 133 -149 135q-65 0 -101.5 -24t-47.5 -78zM542 288h342q0 94 -43 137.5t-129 43.5t-128 -43.5t-42 -137.5zM450 182v78q-10 -7 -32 -12q-19 -3 -85 -8q-7 0 -16 -0.5t-14.5 -1 t-9.5 -0.5l-38 -4q-25 -2 -39 -6q-46 -13 -59 -30q-23 -25 -23 -61q0 -45 36.5 -74t99.5 -29q74 0 124 40q51 40 56 108z" />
<glyph unicode="&#xe7;" horiz-adv-x="550" d="M52 215v64q0 120 60.5 179t173.5 59q191 0 217 -170h-62q-12 61 -49.5 87t-105.5 26q-83 0 -124 -43t-41 -138v-64q0 -84 42.5 -130.5t122.5 -46.5q128 0 156 114h61q-15 -79 -69 -123.5t-140 -46.5l-23 -31q4 1 13 1q5 0 21 -2q29 -2 52 -20t23 -45q0 -39 -30.5 -59.5 t-77.5 -21.5q-49 0 -94 19l9 32q42 -16 72 -16q71 0 71 46q0 15 -15 24.5t-34 9.5q-30 0 -49 -13l-24 18l41 60q-91 11 -144 72t-53 159z" />
<glyph unicode="&#xe8;" horiz-adv-x="597" d="M336 578l-123 134h65l115 -134h-57zM61 216v63q0 120 62 179t177 59q116 0 178.5 -59t62.5 -179v-19l-1 -14h-410v-39q0 -82 44.5 -129t125.5 -47q72 0 116 37.5t52 104.5h68q-13 -88 -75.5 -139t-160.5 -51q-110 0 -173.5 64.5t-65.5 168.5zM130 288h342q0 94 -43 137.5 t-129 43.5t-128 -43.5t-42 -137.5z" />
<glyph unicode="&#xe9;" horiz-adv-x="597" d="M199 578l114 134h66l-124 -134h-56zM61 216v63q0 120 62 179t177 59q116 0 178.5 -59t62.5 -179v-19l-1 -14h-410v-39q0 -82 44.5 -129t125.5 -47q72 0 116 37.5t52 104.5h68q-13 -88 -75.5 -139t-160.5 -51q-110 0 -173.5 64.5t-65.5 168.5zM130 288h342q0 94 -43 137.5 t-129 43.5t-128 -43.5t-42 -137.5z" />
<glyph unicode="&#xea;" horiz-adv-x="597" d="M176 578l92 134h64l92 -134h-53l-71 103l-71 -103h-53zM61 216v63q0 120 62 179t177 59q116 0 178.5 -59t62.5 -179v-19l-1 -14h-410v-39q0 -82 44.5 -129t125.5 -47q72 0 116 37.5t52 104.5h68q-13 -88 -75.5 -139t-160.5 -51q-110 0 -174 64q-63 63 -65 169zM130 288 h342q0 94 -43 137.5t-129 43.5t-128 -43.5t-42 -137.5z" />
<glyph unicode="&#xeb;" horiz-adv-x="597" d="M181 635v50h58v-50h-58zM360 635v50h57v-50h-57zM61 216v63q0 120 62 179t177 59q116 0 178.5 -59t62.5 -179v-19l-1 -14h-410v-39q0 -82 44.5 -129t125.5 -47q72 0 116 37.5t52 104.5h68q-13 -88 -75.5 -139t-160.5 -51q-110 0 -174 64q-63 63 -65 169zM130 288h342 q0 94 -43 137.5t-129 43.5t-128 -43.5t-42 -137.5z" />
<glyph unicode="&#xec;" horiz-adv-x="205" d="M142 578l-123 134h65l114 -134h-56zM70 0v500h69v-500h-69z" />
<glyph unicode="&#xed;" horiz-adv-x="205" d="M5 578l114 134h65l-123 -134h-56zM70 0v500h69v-500h-69z" />
<glyph unicode="&#xee;" horiz-adv-x="205" d="M-18 578l93 134h63l93 -134h-53l-71 103l-71 -103h-54zM71 0v500h69v-500h-69z" />
<glyph unicode="&#xef;" horiz-adv-x="205" d="M-12 635v50h57v-50h-57zM166 635v50h58v-50h-58zM71 0v500h69v-500h-69z" />
<glyph unicode="&#xf0;" horiz-adv-x="646" d="M574 713l20 -39l-89 -47q44 -59 44 -141v-295q0 -93 -66 -151q-66 -57 -178 -57q-111 0 -179 57q-66 59 -66 151v73q0 101 59 151t167 51q143 2 190 -81v123q0 52 -27 90l-102 -54l-20 38l90 48q-42 32 -105 33q-122 2 -162 -82l-39 39q54 96 202 96q96 -1 161 -56z M476 191v73q0 80 -41.5 116.5t-129.5 36.5q-172 0 -172 -153v-73q0 -69 45.5 -108.5t126.5 -39.5t126 39.5t45 108.5z" />
<glyph unicode="&#xf1;" horiz-adv-x="573" d="M175 630l-32 19q31 63 81 63q24 2 40 -6q6 -2 31 -12q47 -22 62 -22q11 0 22 8q13 9 32 37l32 -20q-19 -31 -35 -46t-37 -17q-3 -1 -12 -1q-23 0 -67 18q-4 2 -35 14q-14 6 -31 6q-28 0 -51 -41zM70 500h63v-80q48 97 183 97q98 0 144.5 -55.5t46.5 -176.5v-285h-68v279 q0 100 -30.5 140.5t-108.5 40.5q-82 0 -122 -43.5t-40 -137.5v-279h-68v500z" />
<glyph unicode="&#xf2;" horiz-adv-x="599" d="M60 216v63q0 120 62 179t177 59q116 0 178 -59t62 -179v-63q0 -104 -65 -169q-64 -64 -175 -64t-175 64t-64 169zM471 216v63q0 95 -42.5 138t-129.5 43q-85 0 -127.5 -42t-42.5 -139v-63q0 -82 44.5 -129t125.5 -47t126.5 47t45.5 129zM337 578l-123 134h65l114 -134 h-56z" />
<glyph unicode="&#xf3;" horiz-adv-x="599" d="M60 216v63q0 120 62 179t177 59q116 0 178 -59t62 -179v-63q0 -104 -65 -169q-64 -64 -175 -64t-175 64t-64 169zM471 216v63q0 95 -42.5 138t-129.5 43q-85 0 -127.5 -42t-42.5 -139v-63q0 -82 44.5 -129t125.5 -47t126.5 47t45.5 129zM200 578l114 134h65l-123 -134 h-56z" />
<glyph unicode="&#xf4;" horiz-adv-x="599" d="M176 578l93 134h63l93 -134h-53l-71 103l-71 -103h-54zM60 216v63q0 120 62 179t177 59q116 0 178 -59t62 -179v-63q0 -104 -65 -169q-64 -64 -175 -64t-175 64t-64 169zM471 216v63q0 95 -42.5 138t-129.5 43q-85 0 -127.5 -42t-42.5 -139v-63q0 -82 44.5 -129 t125.5 -47t126.5 47t45.5 129z" />
<glyph unicode="&#xf5;" horiz-adv-x="599" d="M183 630l-32 19q31 63 81 63q12 0 22.5 -1.5t16 -3.5t16.5 -6.5t16 -6.5q47 -22 62 -22q11 0 22 8q13 9 32 37l32 -20q-19 -31 -35 -46t-37 -17q-3 -1 -12 -1q-23 0 -67 18q-4 2 -35 14q-14 6 -32 6q-27 0 -50 -41zM60 216v63q0 120 62 179t177 59q116 0 178 -59t62 -179 v-63q0 -104 -65 -169q-64 -64 -175 -64t-175 64t-64 169zM471 216v63q0 95 -42.5 138t-129.5 43q-85 0 -127.5 -42t-42.5 -139v-63q0 -82 44.5 -129t125.5 -47t126.5 47t45.5 129z" />
<glyph unicode="&#xf6;" horiz-adv-x="599" d="M60 216v63q0 120 62 179t177 59q116 0 178 -59t62 -179v-63q0 -104 -65 -169q-64 -64 -175 -64t-175 64t-64 169zM471 216v63q0 95 -42.5 138t-129.5 43q-85 0 -127.5 -42t-42.5 -139v-63q0 -82 44.5 -129t125.5 -47t126.5 47t45.5 129zM182 635v50h57v-50h-57zM360 635 v50h58v-50h-58z" />
<glyph unicode="&#xf7;" horiz-adv-x="485" d="M212 416v115h59v-115h-59zM26 287v56h433v-56h-433zM212 95v115h59v-115h-59z" />
<glyph unicode="&#xf8;" horiz-adv-x="602" d="M413 550h43l-26 -59q111 -54 111 -212v-63q0 -104 -65 -169q-64 -64 -176 -64q-50 0 -89 13l-21 -46h-44l27 62q-112 62 -112 204v63q0 120 62 179t177 59q52 0 93 -12zM130 279v-63q0 -102 68 -149l172 385q-32 8 -70 8q-84 0 -127 -42t-43 -139zM472 216v63 q0 117 -66 157l-172 -386q29 -10 66 -10q81 0 126.5 47t45.5 129z" />
<glyph unicode="&#xf9;" horiz-adv-x="572" d="M435 221v279h68v-500h-63v80q-48 -97 -185 -97q-97 0 -143 53t-46 169v295h68v-279q0 -100 31 -140.5t108 -40.5q162 0 162 181zM322 578l-123 134h65l114 -134h-56z" />
<glyph unicode="&#xfa;" horiz-adv-x="572" d="M435 221v279h68v-500h-63v80q-48 -97 -185 -97q-97 0 -143 53t-46 169v295h68v-279q0 -100 31 -140.5t108 -40.5q162 0 162 181zM185 578l114 134h65l-123 -134h-56z" />
<glyph unicode="&#xfb;" horiz-adv-x="572" d="M161 578l93 134h63l93 -134h-53l-71 103l-71 -103h-54zM435 221v279h68v-500h-63v80q-48 -97 -185 -97q-97 0 -143 53t-46 169v295h68v-279q0 -100 31 -140.5t108 -40.5q162 0 162 181z" />
<glyph unicode="&#xfc;" horiz-adv-x="572" d="M167 635v50h58v-50h-58zM345 635v50h58v-50h-58zM435 221v279h68v-500h-63v80q-48 -97 -185 -97q-97 0 -143 53t-46 169v295h68v-279q0 -100 31 -140.5t108 -40.5q162 0 162 181z" />
<glyph unicode="&#xfd;" horiz-adv-x="527" d="M164 578l115 134h65l-123 -134h-57zM267 54l160 446h69l-254 -680h-55l62 176h-20l-189 504h70z" />
<glyph unicode="&#xfe;" horiz-adv-x="560" d="M71 -180v880h69v-273q48 90 177 90q104 0 163 -60.5t59 -177.5v-64q0 -107 -60 -170q-59 -62 -156 -62q-63 0 -110.5 26.5t-72.5 74.5v-264h-69zM470 215v64q0 180 -165 180t-165 -172v-72q0 -84 42.5 -130.5t122.5 -46.5t122.5 46.5t42.5 130.5z" />
<glyph unicode="&#xff;" horiz-adv-x="527" d="M267 54l160 446h69l-254 -680h-55l62 176h-20l-189 504h70zM147 635v50h57v-50h-57zM325 635v50h58v-50h-58z" />
<glyph unicode="&#x100;" horiz-adv-x="727" d="M42 0l285 700h74l285 -700h-76l-79 198h-334l-79 -198h-76zM213 251h302l-151 381zM242 859v48h243v-48h-243z" />
<glyph unicode="&#x101;" horiz-adv-x="576" d="M146 369h-63q29 148 212 148q217 0 217 -197v-320h-59l-2 89q-24 -47 -80.5 -76.5t-121.5 -29.5q-88 0 -141 44q-52 43 -49 114q2 59 42 91t96 39.5t111.5 9.5t95 10.5t40.5 31.5v13q0 133 -149 135q-131 0 -149 -102zM444 182v78q-16 -11 -50 -15q-31 -4 -67 -5 q-7 0 -16 -0.5t-14.5 -1t-9.5 -0.5l-38 -4q-25 -2 -39 -6q-46 -13 -59 -30q-23 -25 -23 -61q0 -45 36.5 -74t99.5 -29q72 0 124 40q51 40 56 108zM170 659v48h243v-48h-243z" />
<glyph unicode="&#x102;" horiz-adv-x="727" d="M465 912h33q-4 -56 -42 -89.5t-96 -33.5q-57 0 -95 33.5t-42 89.5h33q4 -39 31.5 -61t73.5 -22q45 0 72 22t32 61zM42 0l285 700h74l285 -700h-76l-79 198h-334l-79 -198h-76zM213 251h302l-151 381z" />
<glyph unicode="&#x103;" horiz-adv-x="576" d="M393 712h33q-4 -56 -42 -89.5t-96 -33.5q-57 0 -95 33.5t-42 89.5h33q4 -39 31.5 -61t73.5 -22q45 0 72.5 22t31.5 61zM146 369h-63q29 148 212 148q217 0 217 -197v-320h-59l-2 89q-26 -47 -81 -77q-56 -29 -121 -29q-88 0 -141 44q-52 43 -49 113q2 59 42 91.5t96 40 t111.5 9.5t95 10t40.5 32v13q0 133 -149 135q-64 0 -101.5 -23.5t-47.5 -78.5zM444 182v78q-8 -6 -36 -13q-22 -4 -26 -4q-7 0 -23 -1l-32 -2q-7 0 -16 -0.5t-14.5 -1t-9.5 -0.5l-38 -4q-25 -2 -39 -6q-46 -13 -59 -30q-23 -25 -23 -61q0 -45 36.5 -74t99.5 -29q74 0 124 40 q51 40 56 108z" />
<glyph unicode="&#x104;" horiz-adv-x="727" d="M42 0l285 700h74l285 -701h-36q-84 -40 -89 -96v-5q0 -22 15.5 -36t42.5 -14q36 0 66 31l19 -30q-43 -40 -90 -40q-42 -1 -67.5 21t-25.5 58v11q4 31 27.5 58.5t61.5 42.5l-79 198h-334l-79 -198h-76zM213 251h302l-151 381z" />
<glyph unicode="&#x105;" horiz-adv-x="576" d="M146 369h-63q29 148 212 148q217 0 217 -197v-320l-26 -4q-76 -39 -82 -93v-5q0 -22 15.5 -36t42.5 -14q36 0 66 31l19 -30q-43 -40 -90 -40q-42 -1 -67.5 21t-25.5 58v11q4 31 27.5 58.5t61.5 42.5l-2 89q-24 -47 -80.5 -76.5t-121.5 -29.5q-88 0 -141 44 q-52 43 -49 114q2 59 42 91t96 39.5t111.5 9.5t95 10.5t40.5 31.5v13q0 133 -149 135q-131 0 -149 -102zM444 182v78q-10 -7 -32 -12q-19 -3 -85 -8q-7 0 -16 -0.5t-14.5 -1t-9.5 -0.5l-38 -4q-25 -2 -39 -6q-46 -13 -59 -30q-23 -25 -23 -61q0 -45 36.5 -74t99.5 -29 q74 0 124 40q51 40 56 108z" />
<glyph unicode="&#x106;" horiz-adv-x="710" d="M254 778l114 134h66l-123 -134h-57zM61 302v88q0 326 314 326q124 0 193 -55.5t88 -174.5h-69q-19 91 -68.5 130.5t-143.5 39.5q-123 0 -182.5 -63.5t-59.5 -202.5v-88q0 -122 63 -191t179 -69q88 0 139 42.5t72 128.5h69q-44 -230 -280 -230q-147 0 -231 85 q-83 86 -83 234z" />
<glyph unicode="&#x107;" horiz-adv-x="565" d="M182 578l114 134h66l-123 -134h-57zM61 215l1 64q0 120 60 179t173 59q191 0 217 -170h-61q-12 61 -50 87t-106 26q-83 0 -124 -43t-41 -138v-64q0 -84 42.5 -130.5t122.5 -46.5q127 0 156 114h61q-15 -81 -71.5 -125.5t-145.5 -44.5q-108 0 -171 62.5t-63 170.5z" />
<glyph unicode="&#x10a;" horiz-adv-x="710" d="M326 835v50h58v-50h-58zM61 302v88q0 326 314 326q124 0 193 -56t88 -174h-69q-19 91 -68.5 130.5t-143.5 39.5q-123 0 -182.5 -63.5t-59.5 -202.5v-88q0 -122 63 -191t179 -69q167 0 211 171h69q-44 -230 -280 -230q-147 0 -231 85q-83 86 -83 234z" />
<glyph unicode="&#x10b;" horiz-adv-x="565" d="M254 635v50h58v-50h-58zM61 215l1 64q0 120 60 179t173 59q191 0 217 -170h-61q-12 61 -50 87t-106 26q-83 0 -124 -43t-41 -138v-64q0 -84 42.5 -130.5t122.5 -46.5q127 0 156 114h61q-15 -81 -71.5 -125.5t-145.5 -44.5q-108 0 -171 62.5t-63 170.5z" />
<glyph unicode="&#x10c;" horiz-adv-x="710" d="M354 809l71 103h54l-93 -134h-63l-93 134h53zM61 302v88q0 326 314 326q124 0 193 -55.5t88 -174.5h-69q-19 91 -68.5 130.5t-143.5 39.5q-123 0 -182.5 -63.5t-59.5 -202.5v-88q0 -122 63 -191t179 -69q88 0 139 42.5t72 128.5h69q-44 -230 -280 -230q-147 0 -231 85 q-83 86 -83 234z" />
<glyph unicode="&#x10d;" horiz-adv-x="565" d="M282 609l72 103h53l-93 -134h-63l-93 134h53zM61 215l1 64q0 120 60 179t173 59q191 0 217 -170h-61q-12 61 -50 87t-106 26q-83 0 -124 -43t-41 -138v-64q0 -84 42.5 -130.5t122.5 -46.5q127 0 156 114h61q-15 -81 -71.5 -125.5t-145.5 -44.5q-108 0 -171 62.5 t-63 170.5z" />
<glyph unicode="&#x10e;" horiz-adv-x="689" d="M345 809l71 103h53l-93 -134h-63l-92 134h53zM70 0v700h233q327 0 327 -312v-83q0 -137 -87 -221t-240 -84h-233zM557 305v83q0 132 -63 192t-191 60h-160v-580h160q120 0 187 65.5t67 179.5z" />
<glyph unicode="&#x10f;" horiz-adv-x="708" d="M611 618v102h58v-102q0 -34 -21.5 -57.5t-62.5 -29.5v36q26 17 26 51zM439 421v280h69v-701h-59l-2 85q-57 -101 -184 -101q-100 0 -161 64t-61 170v63q0 119 56.5 178t159.5 59q134 0 182 -97zM439 218v63q0 95 -40.5 138t-123.5 43t-124 -43t-41 -138v-63 q0 -82 43.5 -129t121.5 -47t121 47t43 129z" />
<glyph unicode="&#x110;" horiz-adv-x="740" d="M119 389v311h233q327 0 327 -312v-83q0 -137 -87 -221t-240 -84h-233v332h-64v57h64zM606 305v83q0 132 -63 192t-191 60h-160v-251h142v-57h-142v-272h160q121 0 187.5 65.5t66.5 179.5z" />
<glyph unicode="&#x112;" horiz-adv-x="581" d="M70 0v700h487v-60h-414v-247h398v-60h-398v-273h419v-60h-492zM190 859v48h243v-48h-243z" />
<glyph unicode="&#x113;" horiz-adv-x="597" d="M61 216v63q0 120 62 179t177 59q116 0 178.5 -59t62.5 -179v-19l-1 -14h-410v-39q0 -82 44.5 -129t125.5 -47q72 0 116 37.5t52 104.5h68q-13 -88 -75.5 -139t-160.5 -51q-110 0 -173.5 64.5t-65.5 168.5zM130 288h342q0 94 -43 137.5t-129 43.5t-128 -43.5t-42 -137.5z M178 659v48h243v-48h-243z" />
<glyph unicode="&#x116;" horiz-adv-x="581" d="M283 835v50h58v-50h-58zM70 0v700h487v-60h-414v-247h398v-60h-398v-273h419v-60h-492z" />
<glyph unicode="&#x117;" horiz-adv-x="597" d="M61 216v63q0 120 62 179t177 59q116 0 178.5 -59t62.5 -179v-19l-1 -14h-410v-39q0 -82 44.5 -129t125.5 -47q72 0 116 37.5t52 104.5h68q-13 -88 -75.5 -139t-160.5 -51q-110 0 -173.5 64.5t-65.5 168.5zM130 288h342q0 94 -43 137.5t-129 43.5t-128 -43.5t-42 -137.5z M271 635v50h57v-50h-57z" />
<glyph unicode="&#x118;" horiz-adv-x="581" d="M70 0v700h487v-60h-414v-247h398v-60h-398v-273h419v-60h-51q-86 -40 -90 -97q-1 -1 -1 -5q0 -22 15.5 -36t42.5 -14q37 0 67 31l19 -30q-43 -40 -91 -40q-42 -1 -67.5 21t-25.5 58q0 7 1 11q3 30 26 57t62 44h-399z" />
<glyph unicode="&#x119;" horiz-adv-x="597" d="M61 216v63q0 120 62 179t177 59q116 0 178.5 -59t62.5 -179v-19l-1 -14h-410v-39q0 -82 44.5 -129t125.5 -47q72 0 116 37.5t52 104.5h68q-10 -70 -53 -118t-112 -64q-68 -39 -72 -88v-5q0 -22 15 -35.5t43 -13.5q35 0 66 30l19 -29q-40 -40 -90 -40q-42 -1 -68 21 t-26 58q0 7 1 11q7 50 57 84q-5 -1 -22 -1q-108 1 -169.5 65.5t-63.5 167.5zM130 288h342q0 94 -43 137.5t-129 43.5t-128 -43.5t-42 -137.5z" />
<glyph unicode="&#x11a;" horiz-adv-x="581" d="M311 809l71 103h54l-93 -134h-63l-93 134h53zM70 0v700h487v-60h-414v-247h398v-60h-398v-273h419v-60h-492z" />
<glyph unicode="&#x11b;" horiz-adv-x="597" d="M61 216v63q0 120 62 179t177 59q116 0 178.5 -59t62.5 -179v-19l-1 -14h-410v-39q0 -82 44.5 -129t125.5 -47q72 0 116 37.5t52 104.5h68q-13 -88 -75.5 -139t-160.5 -51q-110 0 -173.5 64.5t-65.5 168.5zM130 288h342q0 94 -43 137.5t-129 43.5t-128 -43.5t-42 -137.5z M299 609l71 103h54l-93 -134h-63l-93 134h53z" />
<glyph unicode="&#x11e;" horiz-adv-x="753" d="M478 912h33q-4 -56 -42 -89.5t-95 -33.5t-95 33.5t-43 89.5h34q3 -39 30.5 -61t73.5 -22t73 22t31 61zM61 302l1 88q0 326 320 326q268 0 307 -225h-73q-18 88 -75.5 126.5t-158.5 38.5q-124 0 -186 -61.5t-62 -204.5v-88q0 -120 65 -189t183 -69q110 0 171 60.5 t66 169.5v25h-230v49h298v-348h-51l-2 128q-70 -144 -252 -144q-150 0 -236 87q-85 88 -85 231z" />
<glyph unicode="&#x11f;" horiz-adv-x="584" d="M394 712h33q-4 -56 -42 -89.5t-96 -33.5q-57 0 -95 33.5t-42 89.5h33q4 -39 31.5 -61t72.5 -22q46 0 73.5 22t31.5 61zM59 232v52q0 107 56.5 169.5t154.5 62.5q126 0 185 -101l1 85h60v-496q0 -197 -217 -197q-89 0 -144.5 36t-66.5 106h58q19 -102 153 -100 q75 0 111.5 32.5t36.5 106.5v107q-47 -95 -182 -95q-206 2 -206 232zM447 235v52q0 82 -43 129t-121 47q-76 0 -115.5 -46t-39.5 -130v-52q0 -97 37 -139.5t118 -42.5q83 0 123.5 43.5t40.5 138.5z" />
<glyph unicode="&#x120;" horiz-adv-x="753" d="M348 835v50h58v-50h-58zM61 302l1 88q0 326 320 326q268 0 307 -225h-73q-18 88 -75.5 126.5t-158.5 38.5q-126 0 -187 -62.5t-61 -203.5v-88q0 -120 65 -189t183 -69q110 0 171 60.5t66 169.5v25h-230v49h298v-348h-51l-2 128q-72 -144 -252 -144q-150 0 -236 87 q-85 88 -85 231z" />
<glyph unicode="&#x121;" horiz-adv-x="584" d="M59 232v52q0 107 56.5 169.5t154.5 62.5q126 0 185 -101l1 85h60v-496q0 -197 -217 -197q-89 0 -144.5 36t-66.5 106h58q19 -102 153 -100q75 0 111.5 32.5t36.5 106.5v107q-47 -95 -182 -95q-206 2 -206 232zM447 235v52q0 82 -43 129t-121 47q-76 0 -115.5 -46 t-39.5 -130v-52q0 -97 37 -139.5t118 -42.5q83 0 123.5 43.5t40.5 138.5zM264 635v50h57v-50h-57z" />
<glyph unicode="&#x122;" horiz-adv-x="753" d="M61 302l1 88q0 326 320 326q268 0 307 -225h-73q-18 88 -75.5 126.5t-158.5 38.5q-126 0 -187 -62.5t-61 -203.5v-88q0 -120 65 -189t183 -69q110 0 171 60.5t66 169.5v25h-230v49h298v-348h-51l-2 128q-72 -144 -252 -144q-150 0 -236 87q-85 88 -85 231zM361 -133v70 h58v-70q0 -34 -22 -57.5t-63 -29.5v35q27 17 27 52z" />
<glyph unicode="&#x123;" horiz-adv-x="584" d="M303 605h-58v71q0 34 21.5 57.5t62.5 29.5v-36q-26 -17 -26 -51v-71zM59 232v52q0 107 56.5 169.5t154.5 62.5q128 0 185 -101l1 85h60v-496q0 -197 -217 -197q-89 0 -144.5 36t-66.5 106h58q19 -102 153 -100q75 0 111.5 32.5t36.5 106.5v107q-47 -95 -182 -95 q-206 2 -206 232zM447 235v52q0 82 -43 129t-121 47q-76 0 -115.5 -46t-39.5 -130v-52q0 -97 37 -139.5t118 -42.5q83 0 123.5 43.5t40.5 138.5z" />
<glyph unicode="&#x126;" horiz-adv-x="711" d="M558 574v126h73v-126h74v-53h-74v-521h-73v333h-404v-333h-73v521h-75v53h75v126h73v-126h404zM154 393h404v128h-404v-128z" />
<glyph unicode="&#x127;" horiz-adv-x="597" d="M115 636v64h68v-64h166v-45h-166v-171q48 97 180 97q97 0 143 -53.5t46 -178.5v-285h-68v279q0 100 -30.5 140.5t-108.5 40.5q-82 0 -122 -43.5t-40 -137.5v-279h-68v591h-95v45h95z" />
<glyph unicode="&#x128;" horiz-adv-x="207" d="M-13 830l-32 19q31 63 81 63q25 2 41 -6q6 -2 31 -12q47 -22 62 -22q11 0 22 8q13 9 32 37l32 -20q-19 -31 -35 -46t-37 -17q-4 -1 -12 -1q-24 0 -67 18q-4 2 -35 14q-14 6 -32 6q-27 0 -51 -41zM71 0v700h73v-700h-73z" />
<glyph unicode="&#x129;" horiz-adv-x="205" d="M-11 630l-32 19q31 63 82 63q24 2 40 -6q6 -2 31 -12q47 -22 62 -22q11 0 22 8q13 9 32 37l32 -20q-19 -31 -35 -46t-37 -17q-3 -1 -12 -1q-24 0 -67 18q-4 2 -35 14q-14 6 -32 6q-28 0 -51 -41zM72 0v500h69v-500h-69z" />
<glyph unicode="&#x12a;" horiz-adv-x="207" d="M-18 859v48h243v-48h-243zM70 0v700h73v-700h-73z" />
<glyph unicode="&#x12b;" horiz-adv-x="205" d="M-16 659v48h243v-48h-243zM71 0v500h69v-500h-69z" />
<glyph unicode="&#x12e;" horiz-adv-x="207" d="M69 0v700h73v-700q-85 -42 -89 -97v-4q0 -21 15 -36t43 -15q36 0 66 31l19 -30q-43 -40 -90 -40q-41 -1 -67 21.5t-26 56.5v12q6 31 28 58t57 42z" />
<glyph unicode="&#x12f;" horiz-adv-x="205" d="M77 635v50h57v-50h-57zM70 0v500h69v-501q-86 -42 -88 -96v-4q0 -21 14.5 -36t42.5 -15q37 0 67 31l19 -30q-43 -40 -91 -40q-41 -1 -67 21.5t-26 56.5q0 8 1 12q4 30 26.5 57t58.5 44h-26z" />
<glyph unicode="&#x131;" horiz-adv-x="205" d="M71 0v500h69v-500h-69z" />
<glyph unicode="&#x132;" horiz-adv-x="631" d="M492 205v495h73v-495q0 -99 -63 -161q-62 -61 -168 -61q-63 0 -114 27v53q48 -21 103 -21h11q75 1 116.5 44t41.5 119zM70 0v700h73v-700h-73z" />
<glyph unicode="&#x133;" horiz-adv-x="409" d="M70 591v113h69v-113h-69zM277 591v113h69v-113h-69zM70 0v500h69v-500h-69zM277 -70v570h69v-583q0 -82 -91 -94q-24 -2 -38 -2h-16v50q25 0 30 1q46 7 46 58z" />
<glyph unicode="&#x136;" horiz-adv-x="707" d="M143 328l414 372h92l-328 -294l329 -406h-86l-293 358l-128 -114v-244h-73v700h73v-372zM328 -133v70h57v-70q0 -34 -21.5 -57.5t-62.5 -29.5v35q27 17 27 52z" />
<glyph unicode="&#x137;" horiz-adv-x="536" d="M71 0v700h69v-435l259 237h85l-216 -197l246 -305h-81l-210 259l-83 -74v-185h-69zM260 -133v70h58v-70q0 -34 -21.5 -57.5t-62.5 -29.5v35q26 17 26 52z" />
<glyph unicode="&#x139;" horiz-adv-x="538" d="M164 778l114 134h65l-123 -134h-56zM70 0v700h73v-640h387v-60h-460z" />
<glyph unicode="&#x13a;" horiz-adv-x="204" d="M2 778l114 134h65l-123 -134h-56zM70 0v700h69v-700h-69z" />
<glyph unicode="&#x13b;" horiz-adv-x="538" d="M70 0v700h73v-640h387v-60h-460zM248 -133v70h58v-70q0 -34 -21.5 -57.5t-62.5 -29.5v35q26 17 26 52z" />
<glyph unicode="&#x13c;" horiz-adv-x="204" d="M70 0v700h69v-700h-69zM87 -133v70h57v-70q0 -33 -20.5 -57t-63.5 -30v35q27 17 27 52z" />
<glyph unicode="&#x13d;" horiz-adv-x="538" d="M331 656v102h57v-102q0 -34 -21.5 -57.5t-62.5 -29.5v36q27 17 27 51zM70 0v700h73v-640h387v-60h-460z" />
<glyph unicode="&#x13e;" horiz-adv-x="321" d="M245 656v102h58v-102q0 -34 -21.5 -57.5t-62.5 -29.5v36q26 17 26 51zM71 0v700h69v-700h-69z" />
<glyph unicode="&#x13f;" horiz-adv-x="538" d="M70 0v700h73v-640h387v-60h-460zM345 284v126h69v-126h-69z" />
<glyph unicode="&#x140;" horiz-adv-x="310" d="M205 250v126h68v-126h-68zM71 0v700h69v-700h-69z" />
<glyph unicode="&#x141;" horiz-adv-x="593" d="M120 311v389h73v-338l210 147v-77l-210 -148v-224h387v-60h-460v233l-68 -47v78z" />
<glyph unicode="&#x142;" horiz-adv-x="398" d="M108 308v392h68v-344l205 143v-73l-205 -144v-282h-68v234l-67 -47v74z" />
<glyph unicode="&#x143;" horiz-adv-x="697" d="M249 778l114 134h66l-123 -134h-57zM556 113v587h73v-700h-78l-409 587v-587h-73v700h77z" />
<glyph unicode="&#x144;" horiz-adv-x="573" d="M70 500h63v-80q48 97 183 97q98 0 144.5 -55.5t46.5 -176.5v-285h-68v279q0 100 -30.5 140.5t-108.5 40.5q-79 0 -120.5 -43t-41.5 -138v-279h-68v500zM192 578l114 134h65l-123 -134h-56z" />
<glyph unicode="&#x145;" horiz-adv-x="697" d="M556 113v587h73v-700h-78l-409 587v-587h-73v700h77zM334 -133v70h57v-70q0 -34 -21.5 -57.5t-62.5 -29.5v35q27 17 27 52z" />
<glyph unicode="&#x146;" horiz-adv-x="573" d="M70 500h63v-80q48 97 183 97q98 0 144.5 -55.5t46.5 -176.5v-285h-68v279q0 100 -30.5 140.5t-108.5 40.5q-79 0 -120.5 -43t-41.5 -138v-279h-68v500zM277 -133v70h57v-70q0 -34 -21.5 -57.5t-62.5 -29.5v35q27 17 27 52z" />
<glyph unicode="&#x147;" horiz-adv-x="697" d="M349 809l71 103h54l-93 -134h-63l-93 134h53zM556 113v587h73v-700h-78l-409 587v-587h-73v700h77z" />
<glyph unicode="&#x148;" horiz-adv-x="573" d="M292 609l71 103h53l-92 -134h-64l-92 134h53zM70 500h63v-80q48 97 183 97q98 0 144.5 -55.5t46.5 -176.5v-285h-68v279q0 100 -31 140.5t-108 40.5q-79 0 -120.5 -43t-41.5 -138v-279h-68v500z" />
<glyph unicode="&#x14a;" horiz-adv-x="697" d="M556 113v587h73v-681q-2 -98 -64 -159t-168 -61q-64 0 -114 26v53q51 -20 101 -20h13q70 1 110.5 36.5t47.5 101.5l-413 591v-587h-73v700h77z" />
<glyph unicode="&#x14b;" horiz-adv-x="573" d="M70 500h63v-80q48 97 183 97q98 0 144.5 -55.5t46.5 -176.5v-368q0 -82 -90 -94q-24 -2 -38 -2h-16v50q25 0 30 1q44 7 46 55v352q0 100 -30.5 140.5t-108.5 40.5q-79 0 -120.5 -43t-41.5 -138v-279h-68v500z" />
<glyph unicode="&#x14c;" d="M261 859v48h243v-48h-243zM61 302l1 88q0 326 320 326q322 0 322 -326v-88q0 -143 -85 -231q-85 -87 -237 -87q-150 0 -236 87q-85 88 -85 231zM631 302v88q0 139 -61.5 202.5t-187.5 63.5t-187 -62.5t-61 -203.5v-88q0 -120 65 -189t183 -69q119 0 184 68.5t65 189.5z " />
<glyph unicode="&#x14d;" horiz-adv-x="599" d="M60 216v63q0 120 62 179t177 59q116 0 178 -59t62 -179v-63q0 -104 -65 -169q-64 -64 -175 -64t-175 64t-64 169zM471 216v63q0 95 -42.5 138t-129.5 43q-85 0 -127.5 -42t-42.5 -139v-63q0 -82 44.5 -129t125.5 -47t126.5 47t45.5 129zM178 659v48h243v-48h-243z" />
<glyph unicode="&#x150;" d="M208 778l114 134h66l-124 -134h-56zM372 778l114 134h65l-123 -134h-56zM61 302l1 88q0 326 320 326q322 0 322 -326v-88q0 -143 -85 -231q-85 -87 -237 -87q-150 0 -236 87q-85 88 -85 231zM631 302v88q0 139 -61.5 202.5t-187.5 63.5t-187 -62.5t-61 -203.5v-88 q0 -120 65 -189t183 -69q119 0 184 68.5t65 189.5z" />
<glyph unicode="&#x151;" horiz-adv-x="599" d="M126 578l114 134h65l-123 -134h-56zM290 578l114 134h65l-123 -134h-56zM60 216v63q0 120 62 179t177 59q116 0 178 -59t62 -179v-63q0 -104 -65 -169q-64 -64 -175 -64t-175 64t-64 169zM471 216v63q0 95 -42.5 138t-129.5 43q-85 0 -127.5 -42t-42.5 -139v-63 q0 -82 44.5 -129t125.5 -47t126.5 47t45.5 129z" />
<glyph unicode="&#x152;" horiz-adv-x="1124" d="M64 302l1 89q0 325 320 325q139 0 216 -65v49h486v-60h-414v-247h398v-60h-398v-273h419v-60h-491v57q-80 -73 -216 -73q-151 0 -236 87q-85 88 -85 231zM590 154v398q-27 55 -76 79.5t-129 24.5q-124 0 -186 -61.5t-62 -203.5v-89q0 -120 65 -189t183 -69q148 0 205 110 z" />
<glyph unicode="&#x153;" horiz-adv-x="1027" d="M65 216v63q0 120 62 179t177 59q163 0 211 -119q47 119 209 119q112 0 176.5 -58t64.5 -180v-19l-1 -14h-410v-47q0 -78 45 -123t125 -45q71 0 115.5 37.5t52.5 104.5h68q-13 -88 -75.5 -139t-160.5 -51q-76 0 -130 33.5t-79 91.5q-25 -59 -80 -92t-131 -33 q-111 0 -175 64t-64 169zM554 288h342q0 94 -43 137.5t-129 43.5t-127 -42t-43 -139zM476 208v71q0 97 -43.5 139t-128.5 42t-127.5 -42t-42.5 -139v-63q0 -82 44.5 -129t125.5 -47q79 0 125.5 46t46.5 122z" />
<glyph unicode="&#x154;" horiz-adv-x="666" d="M70 0v700h263q117 0 183.5 -43.5t66.5 -129.5v-44q0 -60 -44 -101.5t-122 -55.5l192 -326h-82l-185 314h-199v-314h-73zM512 484v42q0 116 -179 116h-190v-271h190q83 0 131 31t48 82zM228 778l114 134h65l-123 -134h-56z" />
<glyph unicode="&#x155;" horiz-adv-x="327" d="M60 578l114 134h66l-123 -134h-57zM70 500h63v-107q46 121 181 124v-57q-86 -3 -131 -54.5t-45 -150.5v-255h-68v500z" />
<glyph unicode="&#x156;" horiz-adv-x="666" d="M70 0v700h263q117 0 183.5 -43.5t66.5 -129.5v-44q0 -60 -44 -101.5t-122 -55.5l192 -326h-82l-185 314h-199v-314h-73zM512 484v42q0 116 -179 116h-190v-271h190q83 0 131 31t48 82zM313 -133v70h57v-70q0 -34 -21.5 -57.5t-62.5 -29.5v35q27 17 27 52z" />
<glyph unicode="&#x157;" horiz-adv-x="327" d="M70 500h63v-107q46 121 181 124v-57q-86 -3 -131 -54.5t-45 -150.5v-255h-68v500zM145 -133v70h57v-70q0 -34 -21.5 -57.5t-62.5 -29.5v35q27 17 27 52z" />
<glyph unicode="&#x158;" horiz-adv-x="666" d="M328 809l71 103h53l-92 -134h-64l-92 134h53zM70 0v700h263q117 0 183.5 -43.5t66.5 -129.5v-44q0 -60 -44 -101.5t-122 -55.5l192 -326h-82l-185 314h-199v-314h-73zM512 484v42q0 116 -179 116h-190v-271h190q83 0 131 31t48 82z" />
<glyph unicode="&#x159;" horiz-adv-x="327" d="M160 609l71 103h54l-93 -134h-63l-93 134h53zM70 500h63v-107q46 121 181 124v-57q-86 -3 -131 -54.5t-45 -150.5v-255h-68v500z" />
<glyph unicode="&#x15a;" horiz-adv-x="672" d="M235 778l115 134h65l-123 -134h-57zM80 516v19q0 181 256 181q121 0 190.5 -44t69.5 -137v-19h-71v22q0 120 -189 120q-185 0 -185 -120v-18q0 -56 82 -86l253 -83q128 -42 128 -159v-15q0 -88 -75 -140.5t-203 -52.5t-202.5 52.5t-74.5 140.5v44h71v-47q0 -63 53 -97 t153 -34q101 0 154 34t53 97v17q0 74 -83 103l-259 85q-121 40 -121 137z" />
<glyph unicode="&#x15b;" horiz-adv-x="536" d="M166 578l114 134h65l-123 -134h-56zM77 369v14q0 134 189 134q91 0 141 -33t51 -100v-12h-63v12q-1 85 -129 85q-122 0 -124 -81l-1 -12q0 -19 18 -35.5t48 -26.5l168 -55q102 -35 102 -122v-6q0 -67 -56.5 -107.5t-154.5 -40.5q-95 0 -151 39t-58 105v28h63v-27 q1 -45 39.5 -71.5t106.5 -26.5t106 25t39 67l1 7q2 56 -65 79l-180 59q-90 30 -90 102z" />
<glyph unicode="&#x15e;" horiz-adv-x="672" d="M233 434l253 -82q128 -44 128 -160v-15q0 -85 -69 -137t-189 -56l-24 -30q16 1 32 0q34 -2 55.5 -19.5t21.5 -47.5q0 -72 -97 -79h-7q-53 0 -98 17l9 32q42 -14 77 -14h5q60 0 60 44q0 34 -48 34q-30 0 -49 -13l-25 19l41 58q-117 5 -183.5 56.5t-66.5 135.5v44h71v-47 q0 -63 53 -97t153 -34q101 0 154 34t53 97v17q0 74 -83 103l-259 85q-121 40 -121 137v19q0 181 256 181q121 0 190.5 -44t69.5 -137v-19h-71v22q0 120 -189 120q-185 0 -185 -120v-18q0 -56 82 -86z" />
<glyph unicode="&#x15f;" horiz-adv-x="536" d="M77 369v14q0 134 189 134q91 0 141 -33t51 -100v-12h-63v12q-1 85 -129 85q-122 0 -124 -81l-1 -12q0 -19 18 -35.5t48 -26.5l168 -55q102 -35 102 -122v-6q0 -63 -51 -103.5t-140 -43.5l-23 -30q12 2 19 2q8 0 13 -1q34 -3 55.5 -20.5t21.5 -46.5q0 -37 -26.5 -57 t-70.5 -22h-7q-53 0 -98 17l9 32q39 -14 76 -14h6q60 0 60 44q0 34 -48 34q-30 0 -49 -13l-24 18l40 57q-84 6 -133 44.5t-50 98.5v28h63v-27q1 -45 39.5 -71.5t106.5 -26.5t106 25t39 67l1 7q2 56 -65 79l-180 59q-90 30 -90 102z" />
<glyph unicode="&#x160;" horiz-adv-x="672" d="M336 809l71 103h53l-93 -134h-63l-93 134h54zM80 516v19q0 181 256 181q121 0 190.5 -44t69.5 -137v-19h-71v22q0 120 -189 120q-185 0 -185 -120v-18q0 -56 82 -86l253 -83q128 -42 128 -159v-15q0 -88 -75 -140.5t-203 -52.5t-202.5 52.5t-74.5 140.5v44h71v-47 q0 -63 53 -97t153 -34q101 0 154 34t53 97v17q0 74 -83 103l-259 85q-121 40 -121 137z" />
<glyph unicode="&#x161;" horiz-adv-x="536" d="M266 609l71 103h53l-93 -134h-63l-92 134h53zM77 369v14q0 134 189 134q91 0 141 -33t51 -100v-12h-63v12q-1 85 -129 85q-122 0 -124 -81l-1 -12q0 -19 18 -35.5t48 -26.5l168 -55q102 -35 102 -122v-6q0 -67 -56.5 -107.5t-154.5 -40.5q-95 0 -151 39t-58 105v28h63 v-27q1 -45 39.5 -71.5t106.5 -26.5t106 25t39 67l1 7q2 56 -65 79l-180 59q-90 30 -90 102z" />
<glyph unicode="&#x163;" horiz-adv-x="302" d="M101 500v114h69v-114h94v-46h-94v-368q0 -23 13.5 -38t39.5 -15h41v-47h-63q-46 0 -73 24t-27 67v377h-78v46h78zM128 -133v70h58v-70q0 -34 -22 -57.5t-63 -29.5v35q27 17 27 52z" />
<glyph unicode="&#x164;" horiz-adv-x="615" d="M307 809l71 103h53l-93 -134h-63l-93 134h54zM26 640v60h563v-60h-249v-640h-73v640h-241z" />
<glyph unicode="&#x165;" horiz-adv-x="368" d="M283 618v102h57v-102q0 -34 -21.5 -57.5t-62.5 -29.5v36q27 17 27 51zM101 500v114h69v-114h94v-46h-94v-368q0 -23 13.5 -38t39.5 -15h41v-47h-63q-46 0 -73 24t-27 67v377h-78v46h78z" />
<glyph unicode="&#x166;" horiz-adv-x="615" d="M26 640v60h563v-60h-249v-640h-73v640h-241zM185 859v48h243v-48h-243z" />
<glyph unicode="&#x167;" horiz-adv-x="302" d="M101 500v114h69v-114h94v-46h-94v-116h94v-46h-94v-206q0 -23 13.5 -38t39.5 -15h41v-47h-63q-46 0 -73 24t-27 67v215h-78v46h78v116h-78v46h78z" />
<glyph unicode="&#x168;" horiz-adv-x="691" d="M229 830l-32 19q31 63 81 63q25 2 41 -6q6 -2 31 -12q45 -22 62 -22q11 0 22 8q2 2 4 3.5t3.5 2.5t3 2.5l2.5 2.5t2.5 3t2.5 3t2.5 4t2.5 4.5t3.5 5.5t4.5 6l33 -20q-20 -32 -35.5 -46.5t-36.5 -16.5q-4 -1 -12 -1q-24 0 -68 18q-6 3 -34 14q-14 6 -32 6q-28 0 -51 -41z M554 253v447h73v-447q0 -121 -75 -196q-76 -74 -206 -74q-128 0 -204 74q-75 75 -75 196v447h73v-447q0 -99 53.5 -154.5t152.5 -55.5t153.5 55.5t54.5 154.5z" />
<glyph unicode="&#x169;" horiz-adv-x="572" d="M168 630l-32 19q32 63 81 63q24 2 40 -6q6 -2 31 -12q47 -22 62 -22q11 0 22 8q13 9 32 37l32 -20q-19 -31 -35 -46t-37 -17q-3 -1 -12 -1q-24 0 -67 18q-4 2 -35 14q-14 6 -31 6q-28 0 -51 -41zM435 221v279h68v-500h-63v80q-48 -97 -185 -97q-97 0 -143 53t-46 170v294 h68v-279q0 -100 31 -140.5t108 -40.5q162 0 162 181z" />
<glyph unicode="&#x16a;" horiz-adv-x="691" d="M554 253v447h73v-447q0 -121 -75 -196q-76 -74 -206 -74q-128 0 -204 74q-75 75 -75 196v447h73v-447q0 -99 54 -154.5t152 -55.5q99 0 153.5 55.5t54.5 154.5zM225 859v48h243v-48h-243z" />
<glyph unicode="&#x16b;" horiz-adv-x="572" d="M164 659v48h242v-48h-242zM435 221v279h68v-500h-63v80q-48 -97 -185 -97q-97 0 -143 53t-46 169v295h68v-279q0 -100 31 -140.5t108 -40.5q162 0 162 181z" />
<glyph unicode="&#x16e;" horiz-adv-x="691" d="M441 866q0 -38 -28 -66t-67 -28q-37 0 -65.5 28t-28.5 66t28 66t66 28t66.5 -28t28.5 -66zM346 927q-25 0 -42.5 -18t-17.5 -43q-1 -24 18 -42t42.5 -18t42.5 18q30 25 13 65t-56 38zM554 253v447h73v-447q0 -121 -75 -196q-76 -74 -206 -74q-128 0 -204 74 q-75 75 -75 196v447h73v-447q0 -99 53.5 -154.5t152.5 -55.5t153.5 55.5t54.5 154.5z" />
<glyph unicode="&#x16f;" horiz-adv-x="572" d="M379 666q0 -38 -27.5 -66t-66.5 -28q-37 0 -65.5 28t-28.5 66t28 66t66 28t66 -28t28 -66zM328 709q-18 18 -43 18t-43 -18t-18 -42.5t18 -42.5t43 -18t43 18t18 42.5t-18 42.5zM435 221v279h68v-500h-63v80q-48 -97 -185 -97q-97 0 -143 53t-46 169v295h68v-279 q0 -100 31 -140.5t108 -40.5q162 0 162 181z" />
<glyph unicode="&#x170;" horiz-adv-x="691" d="M172 778l115 134h65l-123 -134h-57zM336 778l114 134h66l-123 -134h-57zM554 253v447h73v-447q0 -121 -75 -196q-76 -74 -206 -74q-128 0 -204 74q-75 75 -75 196v447h73v-447q0 -99 54 -154.5t152 -55.5q99 0 153.5 55.5t54.5 154.5z" />
<glyph unicode="&#x171;" horiz-adv-x="572" d="M111 578l114 134h65l-123 -134h-56zM275 578l114 134h65l-123 -134h-56zM435 221v279h68v-500h-63v80q-48 -97 -185 -97q-97 0 -143 53t-46 169v295h68v-279q0 -100 31 -140.5t108 -40.5q162 0 162 181z" />
<glyph unicode="&#x172;" horiz-adv-x="691" d="M554 253v447h73v-448q0 -99 -51.5 -167.5t-143.5 -90.5q-74 -41 -77 -91q-1 -1 -1 -5q0 -22 15.5 -36t42.5 -14q37 0 67 31l19 -30q-43 -40 -91 -40q-42 -1 -67.5 21t-25.5 58q0 7 1 11q8 52 59 86q-8 -1 -37 -1q-125 3 -198 76q-72 74 -72 193v447h73v-447 q0 -99 54 -154.5t152 -55.5q99 0 153.5 55.5t54.5 154.5z" />
<glyph unicode="&#x173;" horiz-adv-x="572" d="M435 221v279h68v-501l-28 -3q-81 -41 -83 -93q-1 -1 -1 -5q0 -22 15.5 -36t42.5 -14q37 0 67 31l19 -30q-43 -40 -91 -40q-42 -1 -67.5 21t-25.5 58q0 7 1 11q4 31 27 58.5t61 42.5v80q-48 -97 -185 -97q-97 0 -143 53t-46 169v295h68v-279q0 -100 31 -140.5t108 -40.5 q162 0 162 181z" />
<glyph unicode="&#x174;" horiz-adv-x="1035" d="M394 778l92 134h64l92 -134h-53l-71 103l-71 -103h-53zM730 89l176 611h75l-212 -700h-73l-180 598l-178 -598h-73l-212 700h74l176 -611l178 611h72z" />
<glyph unicode="&#x175;" horiz-adv-x="787" d="M272 578l92 134h63l93 -134h-53l-71 103l-71 -103h-53zM551 64l129 436h68l-160 -500h-66l-129 409l-130 -409h-66l-159 500h68l128 -436l129 436h60z" />
<glyph unicode="&#x176;" horiz-adv-x="741" d="M246 778l93 134h63l93 -134h-53l-72 103l-71 -103h-53zM369 340l246 360h87l-296 -428v-272h-73v272l-295 428h86z" />
<glyph unicode="&#x177;" horiz-adv-x="527" d="M267 54l160 446h69l-254 -680h-55l62 176h-20l-189 504h70zM141 578l93 134h63l93 -134h-54l-71 103l-71 -103h-53z" />
<glyph unicode="&#x178;" horiz-adv-x="741" d="M369 340l246 360h87l-296 -428v-272h-73v272l-295 428h86zM252 835v50h57v-50h-57zM430 835v50h58v-50h-58z" />
<glyph unicode="&#x179;" horiz-adv-x="583" d="M39 640v60h507v-44l-417 -596h421v-60h-516v44l416 596h-411zM192 778l114 134h65l-123 -134h-56z" />
<glyph unicode="&#x17a;" horiz-adv-x="452" d="M126 578l115 134h65l-123 -134h-57zM43 445v55h367v-41l-282 -404h287v-55h-377v41l282 404h-277z" />
<glyph unicode="&#x17b;" horiz-adv-x="583" d="M39 640v60h507v-44l-417 -596h421v-60h-516v44l416 596h-411zM264 835v50h57v-50h-57z" />
<glyph unicode="&#x17c;" horiz-adv-x="452" d="M198 635v50h58v-50h-58zM43 445v55h367v-41l-282 -404h287v-55h-377v41l282 404h-277z" />
<glyph unicode="&#x17d;" horiz-adv-x="583" d="M292 809l71 103h53l-93 -134h-63l-92 134h53zM39 640v60h507v-44l-417 -596h421v-60h-516v44l416 596h-411z" />
<glyph unicode="&#x17e;" horiz-adv-x="452" d="M227 609l71 103h53l-93 -134h-63l-93 134h54zM43 445v55h367v-41l-282 -404h287v-55h-377v41l282 404h-277z" />
<glyph unicode="&#x192;" horiz-adv-x="318" d="M226 704h63v-46h-41q-25 0 -39.5 -14t-14.5 -40v-123h95v-45h-95v-519q0 -40 -20 -62t-66 -30q-20 -4 -57 -4h-22v50q34 0 55 3q23 5 32 17.5t10 38.5v506h-78v45h78v123q0 45 27.5 72.5t72.5 27.5z" />
<glyph unicode="&#x1e6;" horiz-adv-x="753" d="M377 809l71 103h53l-93 -134h-63l-93 134h53zM61 302l1 88q0 326 320 326q268 0 307 -225h-73q-18 88 -75.5 126.5t-158.5 38.5q-126 0 -187 -62.5t-61 -203.5v-88q0 -120 65 -189t183 -69q110 0 171 60.5t66 169.5v25h-230v49h298v-348h-51l-2 128q-72 -144 -252 -144 q-150 0 -236 87q-85 88 -85 231z" />
<glyph unicode="&#x1e7;" horiz-adv-x="584" d="M292 609l71 103h53l-92 -134h-64l-92 134h53zM59 232v52q0 107 56.5 169.5t154.5 62.5q126 0 185 -101l1 85h60v-496q0 -103 -55 -150t-163 -47q-87 0 -143 36t-67 106h58q19 -102 152 -100q76 0 112.5 32.5t36.5 106.5v107q-47 -95 -182 -95q-206 2 -206 232zM447 235 v52q0 82 -43 129t-121 47q-76 0 -115.5 -46t-39.5 -130v-52q0 -97 37 -139.5t118 -42.5q83 0 123.5 43.5t40.5 138.5z" />
<glyph unicode="&#x1fe;" d="M396 912h65l-123 -134h-56zM531 750h59l-31 -70q145 -72 145 -290v-88q0 -143 -85 -231q-85 -87 -237 -87q-69 0 -123 19l-24 -53h-59l33 75q-72 39 -110 111t-38 166v88q0 326 321 326q73 0 127 -16zM134 390v-88q0 -153 101 -219l249 561q-44 12 -102 12 q-124 0 -186 -61.5t-62 -204.5zM631 302v88q0 173 -98 232l-249 -563q44 -15 98 -15q119 0 184 68.5t65 189.5z" />
<glyph unicode="&#x1ff;" horiz-adv-x="602" d="M314 712h65l-123 -134h-56zM413 550h43l-26 -59q111 -54 111 -212v-63q0 -104 -65 -169q-64 -64 -176 -64q-50 0 -89 13l-21 -46h-44l27 62q-112 62 -112 204v63q0 120 62 179t177 59q52 0 93 -12zM130 279v-63q0 -102 68 -149l172 385q-32 8 -70 8q-84 0 -127 -42 t-43 -139zM472 216v63q0 117 -66 157l-172 -386q29 -10 66 -10q81 0 126.5 47t45.5 129z" />
<glyph unicode="&#x218;" horiz-adv-x="672" d="M80 516v19q0 181 256 181q121 0 190.5 -44t69.5 -137v-19h-71v22q0 120 -189 120q-185 0 -185 -120v-18q0 -56 82 -86l253 -82q128 -44 128 -160v-15q0 -88 -75 -140.5t-203 -52.5t-202.5 52.5t-74.5 140.5v44h71v-47q0 -63 53 -97t153 -34q101 0 154 34t53 97v17 q0 74 -83 103l-259 85q-121 40 -121 137zM321 -133v70h58v-70q0 -34 -22 -57.5t-63 -29.5v35q27 17 27 52z" />
<glyph unicode="&#x219;" horiz-adv-x="536" d="M77 369v14q0 134 189 134q91 0 141 -33t51 -100v-12h-63v12q-1 85 -129 85q-122 0 -124 -81l-1 -12q0 -19 18 -36t48 -26l168 -55q102 -35 102 -122v-6q0 -67 -56.5 -107.5t-154.5 -40.5q-95 0 -151 39t-58 105v28h63v-27q1 -45 39.5 -71.5t106.5 -26.5t106 25t39 67l1 7 q2 56 -65 79l-180 59q-90 30 -90 102zM252 -133v70h58v-70q0 -34 -21.5 -57.5t-62.5 -29.5v35q26 17 26 52z" />
<glyph unicode="&#x21a;" horiz-adv-x="615" d="M26 640v60h563v-60h-249v-640h-73v640h-241zM291 -133v70h58v-70q0 -34 -22 -57.5t-63 -29.5v35q27 17 27 52z" />
<glyph unicode="&#x228;" horiz-adv-x="581" d="M70 0v700h487v-60h-414v-247h398v-60h-398v-273h419v-60h-218l-37 -49q12 2 18 2q9 0 14 -1q34 -3 55 -20t21 -47q0 -74 -96 -79h-7q-53 0 -98 17l8 32q40 -15 83 -15q60 2 60 45q0 16 -14 25t-34 9q-30 0 -49 -13l-25 18l53 76h-226z" />
<glyph unicode="&#x229;" horiz-adv-x="597" d="M61 216v63q0 120 62 179t177 59q116 0 178.5 -59t62.5 -179v-19l-1 -14h-410v-39q0 -82 44.5 -129t125.5 -47q72 0 116 37.5t52 104.5h68q-12 -83 -69.5 -134t-148.5 -55l-24 -30q11 1 23 1h9q34 -3 55.5 -20.5t21.5 -46.5q0 -39 -27 -58t-69 -21h-13q-50 0 -92 17l8 32 q40 -15 83 -15q60 1 60 45q0 16 -13 24.5t-32 8.5h-3q-28 0 -49 -12l-25 18l41 58q-98 8 -154 71t-57 160zM130 288h342q0 94 -43 137.5t-129 43.5t-128 -43.5t-42 -137.5z" />
<glyph unicode="&#x22a;" d="M261 927v47h243v-47h-243zM264 824v51h58v-51h-58zM443 824v51h57v-51h-57zM61 302l1 89q0 325 320 325q322 0 322 -326v-88q0 -143 -85 -231q-85 -87 -237 -87q-150 0 -236 87q-85 88 -85 231zM631 302v88q0 139 -61.5 202.5t-187.5 63.5t-187 -63t-61 -202v-89 q0 -120 65 -189t183 -69q119 0 184 68.5t65 189.5z" />
<glyph unicode="&#x22b;" horiz-adv-x="599" d="M178 750v47h243v-47h-243zM182 628v51h57v-51h-57zM360 628v51h58v-51h-58zM60 216v63q0 120 62 179t177 59q116 0 178 -59t62 -179v-63q0 -104 -65 -169q-64 -64 -175 -64t-175 64t-64 169zM471 216v63q0 95 -42.5 138t-129.5 43q-85 0 -127.5 -42t-42.5 -139v-63 q0 -82 44.5 -129t125.5 -47t126.5 47t45.5 129z" />
<glyph unicode="&#x2c6;" horiz-adv-x="349" d="M51 578l93 134h63l93 -134h-54l-71 103l-71 -103h-53z" />
<glyph unicode="&#x2c7;" horiz-adv-x="344" d="M172 609l71 103h54l-93 -134h-63l-93 134h53z" />
<glyph unicode="&#x2d8;" horiz-adv-x="382" d="M293 712h33q-4 -56 -42 -89.5t-95 -33.5t-95 33.5t-43 89.5h34q3 -39 30.5 -61t73.5 -22q45 0 73 22t31 61z" />
<glyph unicode="&#x2d9;" horiz-adv-x="187" d="M67 635v50h57v-50h-57z" />
<glyph unicode="&#x2da;" horiz-adv-x="301" d="M151 760q38 0 66 -28t28 -66t-27.5 -66t-66.5 -28q-37 0 -65.5 28t-28.5 66t28.5 66t65.5 28zM194 709q-18 18 -42.5 18t-42.5 -18t-18 -42.5t18 -42.5t42.5 -18t42.5 18t18 42.5t-18 42.5z" />
<glyph unicode="&#x2db;" horiz-adv-x="279" d="M141 0h42q-82 -39 -91 -97v-5q0 -22 15.5 -36t42.5 -14q36 0 67 31l18 -30q-41 -40 -90 -40q-42 -1 -67.5 21t-25.5 58q0 7 1 11q4 31 27 58.5t61 42.5z" />
<glyph unicode="&#x2dc;" horiz-adv-x="420" d="M92 630l-32 19q32 63 81 63q25 2 41 -6q5 -2 8 -3t5 -2t6.5 -2.5t10.5 -4.5q47 -22 63 -22q11 0 22 8q2 2 4 3.5t3.5 2.5t3 2.5l2.5 2.5t2.5 3t2.5 3t2.5 4t2.5 4.5t3.5 5.5t4.5 6l33 -20q-20 -32 -36 -46.5t-36 -16.5q-4 -1 -12 -1q-25 0 -68 18q-2 1 -9 4t-15 6t-10 4 q-14 6 -32 6q-28 0 -51 -41z" />
<glyph unicode="&#x2dd;" horiz-adv-x="460" d="M55 578l114 134h65l-123 -134h-56zM219 578l114 134h65l-123 -134h-56z" />
<glyph unicode="&#x323;" horiz-adv-x="0" d="M67 -184v51h57v-51h-57z" />
<glyph unicode="&#x3c0;" horiz-adv-x="124" />
<glyph unicode="&#x1e80;" horiz-adv-x="1035" d="M554 778l-123 134h65l115 -134h-57zM730 89l176 611h75l-212 -700h-73l-180 598l-178 -598h-73l-212 700h74l176 -611l178 611h72z" />
<glyph unicode="&#x1e81;" horiz-adv-x="787" d="M551 64l129 436h68l-160 -500h-66l-129 409l-130 -409h-66l-159 500h68l128 -436l129 436h60zM432 578l-123 134h65l114 -134h-56z" />
<glyph unicode="&#x1e82;" horiz-adv-x="1035" d="M417 778l114 134h66l-124 -134h-56zM730 89l176 611h75l-212 -700h-73l-180 598l-178 -598h-73l-212 700h74l176 -611l178 611h72z" />
<glyph unicode="&#x1e83;" horiz-adv-x="787" d="M551 64l129 436h68l-160 -500h-66l-129 409l-130 -409h-66l-159 500h68l128 -436l129 436h60zM295 578l114 134h65l-123 -134h-56z" />
<glyph unicode="&#x1e84;" horiz-adv-x="1035" d="M399 835v50h58v-50h-58zM578 835v50h57v-50h-57zM730 89l176 611h75l-212 -700h-73l-180 598l-178 -598h-73l-212 700h74l176 -611l178 611h72z" />
<glyph unicode="&#x1e85;" horiz-adv-x="787" d="M277 635v50h58v-50h-58zM455 635v50h58v-50h-58zM551 64l129 436h68l-160 -500h-66l-129 409l-130 -409h-66l-159 500h68l128 -436l129 436h60z" />
<glyph unicode="&#x1ef2;" horiz-adv-x="741" d="M369 340l246 360h87l-296 -428v-272h-73v272l-295 428h86zM407 778l-123 134h65l114 -134h-56z" />
<glyph unicode="&#x1ef3;" horiz-adv-x="527" d="M301 578l-123 134h66l114 -134h-57zM267 54l160 446h69l-254 -680h-55l62 176h-20l-189 504h70z" />
<glyph unicode="&#x2013;" horiz-adv-x="530" d="M67 243v56h395v-56h-395z" />
<glyph unicode="&#x2014;" horiz-adv-x="683" d="M67 243v56h548v-56h-548z" />
<glyph unicode="&#x2018;" horiz-adv-x="193" d="M127 525h-68v138q0 38 24.5 64.5t71.5 31.5v-41q-28 -16 -28 -55v-138z" />
<glyph unicode="&#x2019;" horiz-adv-x="193" d="M69 621v138h69v-138q0 -38 -24.5 -64.5t-72.5 -31.5v41q28 16 28 55z" />
<glyph unicode="&#x201a;" horiz-adv-x="192" d="M67 -12v138h68v-138q0 -38 -24.5 -64t-71.5 -32v41q28 18 28 55z" />
<glyph unicode="&#x201c;" horiz-adv-x="366" d="M133 525h-69v138q0 38 24.5 64.5t71.5 31.5v-41q-27 -16 -27 -55v-138zM281 525h-68v138q0 38 24.5 64.5t71.5 31.5v-41q-28 -16 -28 -55v-138z" />
<glyph unicode="&#x201d;" horiz-adv-x="366" d="M85 621v138h69v-138q0 -38 -25 -64.5t-72 -31.5v41q28 16 28 55zM234 621v138h68v-138q0 -38 -24.5 -64.5t-71.5 -31.5v41q28 16 28 55z" />
<glyph unicode="&#x201e;" horiz-adv-x="367" d="M85 -12v138h69v-138q0 -38 -25 -64t-72 -32v41q28 18 28 55zM234 -12v138h68v-138q0 -38 -24.5 -64t-71.5 -32v41q28 18 28 55z" />
<glyph unicode="&#x2020;" horiz-adv-x="331" d="M131 478v213h69v-213h105v-56h-105v-550h-69v550h-105v56h105z" />
<glyph unicode="&#x2021;" horiz-adv-x="333" d="M131 478v213h69v-213h105v-56h-105v-281h105v-56h-105v-213h-69v213h-105v56h105v281h-105v56h105z" />
<glyph unicode="&#x2022;" horiz-adv-x="345" d="M289 311q0 -48 -34 -81.5t-82 -33.5q-47 0 -82 33q-34 34 -34 82t34 82t82 34t82 -34t34 -82z" />
<glyph unicode="&#x2026;" horiz-adv-x="541" d="M67 0v126h69v-126h-69zM404 0v126h69v-126h-69zM236 0v126h68v-126h-68z" />
<glyph unicode="&#x2030;" horiz-adv-x="1183" d="M154 -34l463 738h61l-463 -738h-61zM58 493v40q0 75 40.5 113t113.5 38q74 0 115 -38t41 -113v-40q0 -65 -43 -106.5t-113 -41.5q-69 0 -111.5 41t-42.5 107zM318 493v40q0 58 -26.5 84t-79.5 26q-52 0 -78 -26t-26 -84v-40q0 -49 27.5 -78t76.5 -29q50 0 78 29t28 78z M472 136v39q0 76 40.5 114t113.5 38q74 0 115 -38t41 -114v-39q0 -66 -42.5 -107t-113.5 -41q-69 0 -111.5 41t-42.5 107zM829 136v39q0 76 40.5 114t113.5 38q74 0 115 -38t41 -114v-39q0 -66 -42.5 -107t-113.5 -41q-69 0 -111.5 41t-42.5 107zM732 136v39q0 59 -27 85 t-79 26t-78 -26.5t-26 -84.5v-39q0 -49 28 -78t76 -29q50 0 78 29t28 78zM1089 136v39q0 59 -27 85t-79 26t-78 -26.5t-26 -84.5v-39q0 -49 28 -78t76 -29q50 0 78 29t28 78z" />
<glyph unicode="&#x2039;" horiz-adv-x="228" d="M28 229v68l138 128v-67l-100 -95l100 -94v-67z" />
<glyph unicode="&#x203a;" horiz-adv-x="233" d="M166 263l-99 95v67l137 -128v-68l-137 -127v67z" />
<glyph unicode="&#x2044;" horiz-adv-x="422" d="M24 -4l315 708h59l-315 -708h-59z" />
<glyph unicode="&#x20ac;" horiz-adv-x="655" d="M51 405v46h54q9 123 76.5 194.5t177.5 71.5q89 0 151.5 -47t87.5 -131h-68q-47 119 -171 118q-80 0 -127.5 -56t-53.5 -150h284v-46h-287v-110h287v-46h-284q6 -95 53.5 -150.5t127.5 -55.5q124 -1 171 118h68q-25 -84 -87.5 -131t-151.5 -47q-110 0 -177.5 71.5 t-76.5 194.5h-54v46h52v110h-52z" />
<glyph unicode="&#x2122;" horiz-adv-x="901" d="M50 653v47h337v-47h-142v-368h-55v368h-140zM632 361l137 339h65v-415h-51v309l-126 -309h-50l-125 308v-308h-51v415h65z" />
<glyph unicode="&#x2126;" horiz-adv-x="833" />
<glyph unicode="&#x215b;" horiz-adv-x="841" d="M152 -17l327 734h59l-326 -734h-60zM127 700h43v-412h-52v349q-37 -37 -102 -52v41q39 9 62 25t49 49zM490 296v26q0 49 36 73.5t101 24.5t101 -24.5t36 -73.5v-26q0 -49 -50 -70q70 -22 70 -93v-30q0 -49 -43 -79t-114 -30t-113.5 30t-42.5 79v30q0 71 69 93 q-50 21 -50 70zM713 298v25q0 54 -86 54q-45 0 -65.5 -12.5t-20.5 -41.5v-25q0 -53 86 -53t86 53zM733 103v32q0 67 -106 67q-55 0 -80 -15.5t-25 -51.5v-32q0 -31 27 -48.5t78 -17.5q106 0 106 66z" />
<glyph unicode="&#x215c;" horiz-adv-x="988" d="M299 -17l327 734h58l-326 -734h-59zM117 581h-51v26q0 97 136 97q137 0 137 -97v-25q0 -48 -49 -70q69 -20 69 -93v-28q0 -49 -42.5 -78.5t-114.5 -29.5t-114 29.5t-42 78.5v32h52v-32q0 -68 104 -68q107 0 107 68v29q0 66 -96 68h-30v39h26q38 0 58.5 14t20.5 39v27 q0 57 -86 57q-85 0 -85 -57v-26zM637 296v26q0 98 136 98q137 0 137 -98v-26q0 -49 -50 -70q70 -22 70 -93v-30q0 -49 -42.5 -79t-114.5 -30q-71 0 -113.5 30t-42.5 79v30q0 71 69 93q-49 21 -49 70zM860 298v25q0 54 -87 54q-45 0 -65.5 -12.5t-20.5 -41.5v-25 q0 -53 86 -53q87 0 87 53zM879 103v32q0 36 -25.5 51.5t-80.5 15.5t-79.5 -15.5t-24.5 -51.5v-32q0 -31 27 -48.5t77 -17.5q106 0 106 66z" />
<glyph unicode="&#x215d;" horiz-adv-x="981" d="M291 -17l327 734h59l-326 -734h-60zM58 473l46 227h229v-43h-189l-27 -125q34 29 97 29q66 0 103 -31t37 -92v-33q0 -57 -41 -92t-108 -35t-108 35t-41 92v21h52v-21q0 -40 25 -62t72 -22t72.5 22t25.5 62v33q0 87 -98 87q-76 0 -94 -52h-53zM629 296v26q0 98 137 98 q65 0 101 -24.5t36 -73.5v-26q0 -49 -50 -70q70 -22 70 -93v-30q0 -49 -43 -79t-114 -30t-113.5 30t-42.5 79v30q0 71 69 93q-50 21 -50 70zM853 298v25q0 54 -87 54q-45 0 -65.5 -12.5t-20.5 -41.5v-25q0 -53 86 -53q87 0 87 53zM872 103v32q0 36 -25.5 51.5t-80.5 15.5 t-80 -15.5t-25 -51.5v-32q0 -31 27.5 -48.5t77.5 -17.5q106 0 106 66z" />
<glyph unicode="&#x215e;" horiz-adv-x="866" d="M183 -17l327 734h59l-326 -734h-60zM26 657v43h280v-37q-87 -86 -129 -176t-41 -200h-52q-1 203 161 370h-219zM522 296v26q0 98 136 98q65 0 101 -24.5t36 -73.5v-26q0 -49 -50 -70q70 -22 70 -93v-30q0 -49 -42.5 -79t-114.5 -30q-71 0 -113.5 30t-42.5 79v30 q0 71 69 93q-49 21 -49 70zM745 298v25q0 54 -87 54q-45 0 -65.5 -12.5t-20.5 -41.5v-25q0 -53 86 -53q87 0 87 53zM764 103v32q0 36 -25.5 51.5t-80.5 15.5t-80 -15.5t-25 -51.5v-32q0 -31 27.5 -48.5t77.5 -17.5q106 0 106 66z" />
<glyph unicode="&#x2202;" horiz-adv-x="847" />
<glyph unicode="&#x220f;" horiz-adv-x="847" />
<glyph unicode="&#x2211;" horiz-adv-x="847" />
<glyph unicode="&#x2212;" horiz-adv-x="568" d="M67 287v56h433v-56h-433z" />
<glyph unicode="&#x221a;" horiz-adv-x="847" />
<glyph unicode="&#x221e;" horiz-adv-x="847" />
<glyph unicode="&#x222b;" horiz-adv-x="847" />
<glyph unicode="&#x2248;" horiz-adv-x="558" />
<glyph unicode="&#x2260;" horiz-adv-x="488" d="M268 406l80 179h58l-80 -179h133v-54h-157l-56 -126h213v-54h-237l-76 -172h-60l77 172h-136v54h161l56 126h-217v54h241z" />
<glyph unicode="&#x2264;" horiz-adv-x="579" d="M24 345v77l518 224v-63l-452 -200l452 -199v-63zM24 0v58h518v-58h-518z" />
<glyph unicode="&#x2265;" horiz-adv-x="580" d="M491 383l-453 200v63l518 -224v-77l-518 -224v63zM38 0v58h518v-58h-518z" />
<glyph unicode="&#x25ca;" horiz-adv-x="847" />
<glyph unicode="&#x25fc;" horiz-adv-x="500" d="M0 500h500v-500h-500v500z" />
<glyph unicode="&#xe000;" horiz-adv-x="524" d="M28 0l203 500h61l202 -500h-67l-54 134h-224l-53 -134h-68zM161 177h200l-100 256z" />
<glyph unicode="&#xe001;" horiz-adv-x="727" d="M42 0l285 700h74l285 -700h-76l-79 198h-334l-79 -198h-76zM213 251h302l-151 381zM363 809l71 103h54l-93 -134h-63l-93 134h53z" />
<glyph unicode="&#xe002;" horiz-adv-x="727" d="M240 778l92 134h64l92 -134h-53l-71 103l-71 -103h-53zM42 0l285 700h74l285 -700h-76l-79 198h-334l-79 -198h-76zM213 251h302l-151 381zM336 -184v51h57v-51h-57z" />
<glyph unicode="&#xe003;" horiz-adv-x="727" d="M242 927v47h243v-47h-243zM245 824v51h58v-51h-58zM424 824v51h57v-51h-57zM42 0l285 700h74l285 -700h-76l-79 198h-334l-79 -198h-76zM213 251h302l-151 381z" />
<glyph unicode="&#xe004;" horiz-adv-x="478" d="M66 0v500h198q77 0 121.5 -29.5t44.5 -90.5v-26q0 -67 -70 -94q80 -31 80 -106v-31q0 -57 -51.5 -90t-136.5 -33h-186zM369 351v26q0 38 -25 55t-79 17h-139v-167h139q50 0 77 18t27 51zM380 128v29q0 79 -124 79h-130v-185h130q58 0 91 21t33 56z" />
<glyph unicode="&#xe005;" horiz-adv-x="644" d="M70 0v700h272q227 0 227 -161v-40q0 -49 -31.5 -85t-86.5 -51q63 -14 98 -53.5t35 -96.5v-48q0 -76 -71 -121q-71 -44 -188 -44h-255zM498 495v39q0 108 -156 108h-199v-251h199q75 0 115.5 28t40.5 76zM513 173v43q0 119 -188 119h-182v-277h182q86 0 137 31.5t51 83.5z M264 -184v51h58v-51h-58z" />
<glyph unicode="&#xe006;" horiz-adv-x="525" d="M54 216v62q0 237 228 237q183 0 206 -177h-62q-13 66 -46 93.5t-98 27.5q-83 0 -123 -43t-40 -138v-62q0 -85 41.5 -130.5t121.5 -45.5q61 0 94.5 29.5t48.5 91.5h63q-13 -86 -65 -132t-141 -46q-106 0 -167 62.5t-61 170.5z" />
<glyph unicode="&#xe007;" horiz-adv-x="333" />
<glyph unicode="&#xe008;" horiz-adv-x="526" d="M66 0v500h171q111 0 173.5 -55t62.5 -171v-53q0 -99 -64 -160q-62 -61 -172 -61h-171zM408 221v53q0 89 -41.5 129.5t-129.5 40.5h-106v-388h106q81 0 126 43.5t45 121.5z" />
<glyph unicode="&#xe009;" horiz-adv-x="689" d="M70 0v700h233q327 0 327 -312v-83q0 -137 -87 -221t-240 -84h-233zM557 305v83q0 132 -63 192t-191 60h-160v-580h160q120 0 187 65.5t67 179.5zM217 -198l92 134h64l92 -134h-53l-71 103l-71 -103h-53z" />
<glyph unicode="&#xe00a;" horiz-adv-x="689" d="M70 0v700h233q327 0 327 -312v-83q0 -137 -87 -221t-240 -84h-233zM557 305v83q0 132 -63 192t-191 60h-160v-580h160q120 0 187 65.5t67 179.5zM312 -184v51h58v-51h-58z" />
<glyph unicode="&#xe00b;" horiz-adv-x="689" d="M70 0v700h233q327 0 327 -312v-83q0 -137 -87 -221t-240 -84h-233zM557 305v83q0 132 -63 192t-191 60h-160v-580h160q120 0 187 65.5t67 179.5zM219 -180v47h243v-47h-243z" />
<glyph unicode="&#xe00c;" horiz-adv-x="471" d="M66 0v500h356v-51h-291v-164h280v-46h-280v-188h294v-51h-359z" />
<glyph unicode="&#xe00d;" horiz-adv-x="581" d="M188 778l92 134h64l92 -134h-53l-71 103l-71 -103h-53zM70 0v700h487v-60h-414v-247h398v-60h-398v-273h419v-60h-492zM283 -184v51h57v-51h-57z" />
<glyph unicode="&#xe00e;" horiz-adv-x="581" d="M70 0v700h487v-60h-414v-247h398v-60h-398v-273h419v-60h-492zM283 -184v51h57v-51h-57z" />
<glyph unicode="&#xe00f;" horiz-adv-x="581" d="M194 830l-32 19q32 63 81 63q25 2 41 -6l30 -12q47 -22 63 -22q11 0 22 8q2 2 4 3.5t3.5 2.5t3 2.5l2.5 2.5t2.5 3t2.5 3t2.5 4t2.5 4.5t3.5 5.5t4.5 6l33 -20q-20 -32 -36 -46.5t-36 -16.5q-4 -1 -12 -1q-25 0 -68 18q-2 1 -9 4t-15 6t-10 4q-14 6 -32 6q-28 0 -51 -41z M70 0v700h487v-60h-414v-247h398v-60h-398v-273h419v-60h-492z" />
<glyph unicode="&#xe010;" horiz-adv-x="448" d="M66 0v500h337v-51h-272v-167h260v-46h-260v-236h-65z" />
<glyph unicode="&#xe011;" horiz-adv-x="570" d="M54 218v63q0 236 232 236q196 0 224 -169h-61q-13 59 -52.5 86t-110.5 27q-85 0 -126 -42.5t-41 -137.5v-63q0 -82 43.5 -128t123.5 -46q77 0 118 40.5t43 115.5l1 16h-157v41h217v-257h-50l-2 79q-50 -92 -172 -92q-109 0 -170 64q-60 65 -60 167z" />
<glyph unicode="&#xe012;" horiz-adv-x="530" d="M400 287v213h65v-500h-65v231h-269v-231h-65v500h65v-213h269z" />
<glyph unicode="&#xe013;" horiz-adv-x="689" d="M547 393v307h73v-700h-73v333h-404v-333h-73v700h73v-307h404zM313 -184v51h57v-51h-57z" />
<glyph unicode="&#xe014;" horiz-adv-x="196" d="M66 0v500h65v-500h-65z" />
<glyph unicode="&#xe015;" horiz-adv-x="207" d="M104 809l71 103h53l-93 -134h-63l-92 134h53zM70 0v700h73v-700h-73z" />
<glyph unicode="&#xe016;" horiz-adv-x="207" d="M3 908l115 134h65l-123 -134h-57zM-14 824v51h57v-51h-57zM164 824v51h58v-51h-58zM70 0v700h73v-700h-73z" />
<glyph unicode="&#xe017;" horiz-adv-x="207" d="M75 835v50h58v-50h-58zM70 0v700h73v-700h-73z" />
<glyph unicode="&#xe018;" horiz-adv-x="207" d="M70 0v700h73v-700h-73zM78 -184v51h57v-51h-57z" />
<glyph unicode="&#xe019;" horiz-adv-x="348" d="M217 149v351h65v-353q0 -73 -46 -118.5t-123 -45.5q-48 0 -88 22v51q39 -17 77 -17h8q52 1 79.5 29.5t27.5 80.5z" />
<glyph unicode="&#xe01a;" horiz-adv-x="530" d="M131 252l279 248h85l-238 -212l234 -288h-77l-201 244l-82 -71v-173h-65v500h65v-248z" />
<glyph unicode="&#xe01b;" horiz-adv-x="438" d="M66 0v500h65v-444h272v-56h-337z" />
<glyph unicode="&#xe01c;" horiz-adv-x="538" d="M70 0v700h73v-640h387v-60h-460zM140 -198l92 134h63l93 -134h-53l-71 103l-71 -103h-53z" />
<glyph unicode="&#xe01d;" horiz-adv-x="538" d="M70 0v700h73v-640h387v-60h-460zM235 -184v51h58v-51h-58z" />
<glyph unicode="&#xe01e;" horiz-adv-x="624" d="M310 83l172 417h76v-500h-60v391l-162 -391h-52l-161 389v-389h-61v500h76z" />
<glyph unicode="&#xe01f;" horiz-adv-x="815" d="M407 90l247 610h91v-700h-66v581l-238 -581h-68l-237 581v-581h-67v700h92zM307 778l114 134h65l-123 -134h-56z" />
<glyph unicode="&#xe020;" horiz-adv-x="527" d="M402 109v391h65v-500h-64l-277 391v-391h-65v500h64z" />
<glyph unicode="&#xe021;" horiz-adv-x="0" />
<glyph unicode="&#xe022;" horiz-adv-x="697" d="M225 -198l93 134h63l93 -134h-54l-71 103l-71 -103h-53zM556 113v587h73v-700h-78l-409 587v-587h-73v700h77z" />
<glyph unicode="&#xe023;" horiz-adv-x="697" d="M321 835v50h58v-50h-58zM556 113v587h73v-700h-78l-409 587v-587h-73v700h77z" />
<glyph unicode="&#xe024;" horiz-adv-x="697" d="M556 113v587h73v-700h-78l-409 587v-587h-73v700h77zM320 -184v51h58v-51h-58z" />
<glyph unicode="&#xe025;" horiz-adv-x="574" d="M54 216v63q0 236 233 236q234 0 234 -236v-63q0 -104 -62.5 -168t-171.5 -64q-110 0 -171 64q-62 65 -62 168zM456 216v63q0 97 -42 138.5t-127 41.5q-86 0 -127 -42.5t-41 -137.5v-63q0 -81 44 -128t124 -47q81 0 125 46.5t44 128.5z" />
<glyph unicode="&#xe026;" d="M382 809l71 103h53l-92 -134h-64l-92 134h53zM61 302v88q0 326 321 326q322 0 322 -326v-88q0 -143 -85 -231q-85 -87 -237 -87q-150 0 -236 87q-85 88 -85 231zM631 302v88q0 139 -61.5 202.5t-187.5 63.5t-187 -62.5t-61 -203.5v-88q0 -120 65 -189t183 -69 q119 0 184 68.5t65 189.5z" />
<glyph unicode="&#xe027;" d="M259 778l92 134h64l92 -134h-53l-71 103l-71 -103h-53zM61 302l1 88q0 326 320 326q322 0 322 -326v-88q0 -143 -85 -231q-85 -87 -237 -87q-150 0 -236 87q-85 88 -85 231zM631 302v88q0 139 -61.5 202.5t-187.5 63.5t-187 -62.5t-61 -203.5v-88q0 -120 65 -189t183 -69 q119 0 184 68.5t65 189.5zM353 -184v51h58v-51h-58z" />
<glyph unicode="&#xe028;" d="M61 302l1 89q0 325 320 325q322 0 322 -326v-88q0 -143 -85 -231q-85 -87 -237 -87q-150 0 -236 87q-85 88 -85 231zM631 302v88q0 139 -61.5 202.5t-187.5 63.5t-187 -63t-61 -202v-89q0 -120 65 -189t183 -69q119 0 184 68.5t65 189.5zM353 -184v51h58v-51h-58z" />
<glyph unicode="&#xe029;" d="M281 867l114 134h66l-123 -134h-57zM261 777v48h243v-48h-243zM61 302l1 88q0 326 320 326q322 0 322 -326v-88q0 -143 -85 -231q-85 -87 -237 -87q-150 0 -236 87q-85 88 -85 231zM631 302v88q0 139 -61.5 202.5t-187.5 63.5t-187 -62.5t-61 -203.5v-88q0 -120 65 -189 t183 -69q119 0 184 68.5t65 189.5z" />
<glyph unicode="&#xe02a;" d="M419 867l-123 134h65l115 -134h-57zM261 780v47h243v-47h-243zM61 302l1 89q0 325 320 325q322 0 322 -326v-88q0 -143 -85 -231q-85 -87 -237 -87q-150 0 -236 87q-85 88 -85 231zM631 302v88q0 139 -61.5 202.5t-187.5 63.5t-187 -63t-61 -202v-89q0 -120 65 -189 t183 -69q119 0 184 68.5t65 189.5z" />
<glyph unicode="&#xe02b;" d="M282 867l114 134h65l-123 -134h-56zM265 759l-32 19q31 63 81 63q22 0 40 -6q7 -2 31 -13q48 -21 63 -21q11 0 21 7q14 10 32 38l32 -20q-19 -31 -35 -46t-37 -17q-3 -1 -12 -1q-23 0 -67 18q-2 0 -34 14q-14 6 -32 6q-28 0 -51 -41zM61 302v89q0 325 321 325 q322 0 322 -325v-89q0 -143 -85 -231q-85 -87 -237 -87q-150 0 -236 87q-85 88 -85 231zM631 302v89q0 139 -61.5 202t-187.5 63t-187 -63t-61 -202v-89q0 -120 65 -189t183 -69q119 0 184 68.5t65 189.5z" />
<glyph unicode="&#xe02c;" horiz-adv-x="473" d="M66 0v500h173q87 0 138 -33.5t51 -98.5v-31q0 -58 -52 -93.5t-137 -35.5h-113v-208h-60zM373 337v30q0 81 -123 81h-124v-189h124q57 0 90 21t33 57z" />
<glyph unicode="&#xe02d;" horiz-adv-x="575" d="M54 216v63q0 236 233 236q234 0 234 -236v-63q0 -111 -70 -174l70 -62l-26 -25l-73 64q-55 -34 -135 -34q-109 0 -171 64t-62 167zM456 216v63q0 95 -41.5 137.5t-127.5 42.5t-127 -42.5t-41 -137.5v-63q0 -110 76 -153q37 -22 92 -22q54 0 92 23l-76 66l26 25l76 -66 q51 43 51 127z" />
<glyph unicode="&#xe02e;" horiz-adv-x="492" d="M66 0v500h191q85 0 134 -32.5t49 -95.5v-29q0 -42 -32 -73t-86 -40l135 -230h-68l-123 218h-140v-218h-60zM383 344v28q0 77 -118 77h-139v-180h139q55 0 86.5 20t31.5 55z" />
<glyph unicode="&#xe02f;" horiz-adv-x="467" d="M46 367v13q0 68 49 102t139 34q89 0 139 -33t51 -100v-14h-61v14q-1 82 -129 82q-124 0 -124 -80v-12q0 -37 52 -56l180 -59q95 -32 95 -119v-11q0 -65 -55 -104.5t-148 -39.5t-148 39t-55 105v34h62v-34q0 -42 37.5 -67t103.5 -25t103 23.5t37 64.5v10q0 50 -56 70 l-182 59q-90 32 -90 104z" />
<glyph unicode="&#xe030;" horiz-adv-x="672" d="M80 516v19q0 181 256 181q121 0 190.5 -44t69.5 -137v-19h-71v22q0 120 -189 120q-185 0 -185 -120v-18q0 -56 82 -86l253 -82q128 -44 128 -160v-15q0 -88 -75 -140.5t-203 -52.5t-202.5 52.5t-74.5 140.5v44h71v-47q0 -63 53 -97t153 -34q101 0 154 34t53 97v17 q0 74 -83 103l-259 85q-121 40 -121 137zM308 -184v51h57v-51h-57z" />
<glyph unicode="&#xe031;" horiz-adv-x="458" d="M25 444v56h409v-56h-175v-444h-64v444h-170z" />
<glyph unicode="&#xe032;" horiz-adv-x="615" d="M26 640v60h563v-60h-249v-646l-16 -2l-31 -41q14 2 19 2q8 0 13 -1q35 -3 56 -20t21 -47q0 -74 -96 -79h-7q-53 0 -98 17l8 32q41 -15 83 -15q60 2 60 45q0 16 -14 25t-34 9q-30 0 -49 -13l-25 18l51 72l-14 4v640h-241z" />
<glyph unicode="&#xe033;" horiz-adv-x="615" d="M26 640v60h563v-60h-249v-640h-73v640h-241zM182 -198l93 134h63l93 -134h-53l-71 103l-71 -103h-54z" />
<glyph unicode="&#xe034;" horiz-adv-x="615" d="M26 640v60h563v-60h-249v-640h-73v640h-241zM278 -184v51h57v-51h-57z" />
<glyph unicode="&#xe035;" horiz-adv-x="615" d="M26 640v60h563v-60h-249v-640h-73v640h-241zM184 -180v47h243v-47h-243z" />
<glyph unicode="&#xe036;" horiz-adv-x="534" d="M409 180v320h65v-320q0 -88 -55.5 -142.5t-148.5 -54.5t-148.5 55t-55.5 142v320h65v-320q0 -66 36.5 -103t102.5 -37t102.5 37t36.5 103z" />
<glyph unicode="&#xe037;" horiz-adv-x="691" d="M346 809l72 103h53l-93 -134h-63l-93 134h53zM554 253v447h73v-447q0 -121 -75 -196q-76 -74 -206 -74q-128 0 -204 74q-75 75 -75 196v447h73v-447q0 -99 54 -154.5t152 -55.5q99 0 153.5 55.5t54.5 154.5z" />
<glyph unicode="&#xe038;" horiz-adv-x="691" d="M246 916l114 134h66l-123 -134h-57zM228 824v51h58v-51h-58zM407 824v51h57v-51h-57zM554 253v447h73v-447q0 -121 -75 -196q-76 -74 -206 -74q-128 0 -204 74q-75 75 -75 196v447h73v-447q0 -99 54 -154.5t152 -55.5q99 0 153.5 55.5t54.5 154.5z" />
<glyph unicode="&#xe039;" horiz-adv-x="691" d="M346 947l72 103h53l-93 -134h-63l-93 134h53zM228 824v51h58v-51h-58zM407 824v51h57v-51h-57zM554 253v447h73v-447q0 -121 -75 -196q-76 -74 -206 -74q-128 0 -204 74q-75 75 -75 196v447h73v-447q0 -99 54 -154.5t152 -55.5q99 0 153.5 55.5t54.5 154.5z" />
<glyph unicode="&#xe03a;" horiz-adv-x="691" d="M383 916l-123 134h66l114 -134h-57zM228 824v51h58v-51h-58zM407 824v51h57v-51h-57zM554 253v447h73v-447q0 -121 -75 -196q-76 -74 -206 -74q-128 0 -204 74q-75 75 -75 196v447h73v-447q0 -99 54 -154.5t152 -55.5q99 0 153.5 55.5t54.5 154.5z" />
<glyph unicode="&#xe03b;" horiz-adv-x="691" d="M225 916v47h243v-47h-243zM228 824v51h58v-51h-58zM407 824v51h57v-51h-57zM554 252v448h73v-448q0 -120 -75 -195q-76 -74 -206 -74q-128 0 -204 74q-75 75 -75 195v448h73v-448q0 -97 54 -153t152 -56t153 56t55 153z" />
<glyph unicode="&#xe03c;" horiz-adv-x="691" d="M554 253v447h73v-447q0 -121 -75 -196q-76 -74 -206 -74q-128 0 -204 74q-75 75 -75 196v447h73v-447q0 -99 54 -154.5t152 -55.5q99 0 153.5 55.5t54.5 154.5zM318 -184v51h58v-51h-58z" />
<glyph unicode="&#xe03d;" horiz-adv-x="497" d="M249 75l155 425h69l-188 -500h-72l-188 500h69z" />
<glyph unicode="&#xe03e;" horiz-adv-x="722" d="M511 93l123 407h64l-153 -500h-58l-126 397l-125 -397h-58l-153 500h64l123 -407l120 407h58z" />
<glyph unicode="&#xe03f;" horiz-adv-x="528" d="M264 301l159 199h79l-198 -250l200 -250h-80l-160 199l-159 -199h-80l200 250l-198 250h80z" />
<glyph unicode="&#xe040;" horiz-adv-x="538" d="M269 258l168 242h77l-212 -307v-193h-65v193l-212 307h78z" />
<glyph unicode="&#xe041;" horiz-adv-x="437" d="M35 444v56h369v-40l-286 -404h289v-56h-376v40l285 404h-281z" />
<glyph unicode="&#xe042;" horiz-adv-x="583" d="M39 640v60h507v-44l-417 -596h421v-60h-516v44l416 596h-411zM272 -184v51h57v-51h-57z" />
<glyph unicode="&#xe043;" horiz-adv-x="581" d="M439 421v79h69v-500h-59l-2 85q-57 -101 -184 -101q-100 0 -161 64t-61 170v63q0 119 56.5 178t159.5 59q134 0 182 -97zM439 218v63q0 95 -40.5 138t-123.5 43t-124 -43t-41 -138v-63q0 -82 43.5 -129t121.5 -47t121 47t43 129z" />
<glyph unicode="&#xe044;" horiz-adv-x="576" d="M291 609l71 103h54l-93 -134h-63l-93 134h53zM146 369h-63q29 148 212 148q217 0 217 -197v-320h-59l-2 89q-26 -47 -81 -77q-56 -29 -121 -29q-88 0 -141 44q-52 43 -49 113q2 59 42 91.5t96 40t111.5 9.5t95 10t40.5 32v13q0 133 -149 135q-64 0 -101.5 -23.5 t-47.5 -78.5zM444 182v78q-8 -6 -36 -13q-22 -4 -26 -4l-55 -3q-7 0 -16 -0.5t-15 -1t-10 -0.5q-53 -3 -76 -10q-46 -13 -59 -30q-23 -25 -23 -61q0 -45 36.5 -74t99.5 -29q72 0 124 40q51 40 56 108z" />
<glyph unicode="&#xe045;" horiz-adv-x="576" d="M168 578l92 134h64l92 -134h-53l-71 103l-71 -103h-53zM146 369h-63q29 148 212 148q217 0 217 -197v-320h-59l-2 89q-26 -47 -81 -77q-56 -29 -121 -29q-88 0 -141 44q-52 43 -49 113q2 59 42 91.5t96 40t111.5 9.5t95 10t40.5 32v13q0 133 -149 135q-64 0 -101.5 -23.5 t-47.5 -78.5zM444 182v78q-10 -7 -32 -12q-19 -3 -85 -8q-7 0 -16 -0.5t-15 -1t-10 -0.5q-53 -3 -76 -10q-46 -13 -59 -30q-23 -25 -23 -61q0 -45 36.5 -74t99.5 -29q72 0 124 40q51 40 56 108zM269 -184v51h58v-51h-58z" />
<glyph unicode="&#xe046;" horiz-adv-x="576" d="M170 750v47h243v-47h-243zM173 628v51h58v-51h-58zM352 628v51h57v-51h-57zM146 369h-63q29 148 212 148q217 0 217 -197v-320h-59l-2 89q-26 -47 -81 -77q-56 -29 -121 -29q-88 0 -141 44q-52 43 -49 114q2 59 42 91t96 39.5t111.5 9.5t95 10.5t40.5 31.5v13 q0 133 -149 135q-64 0 -101.5 -23.5t-47.5 -78.5zM444 182v78q-10 -7 -32 -12q-19 -3 -85 -8q-7 0 -16 -0.5t-15 -1t-10 -0.5q-53 -3 -76 -10q-46 -13 -59 -30q-23 -25 -23 -61q0 -45 36.5 -74t99.5 -29q72 0 124 40q51 40 56 108z" />
<glyph unicode="&#xe047;" horiz-adv-x="576" d="M146 369h-63q29 148 212 148q217 0 217 -197v-320h-59l-2 89q-24 -47 -80.5 -76.5t-121.5 -29.5q-88 0 -141 44q-52 43 -49 114q2 59 42 91t96 39.5t111.5 9.5t95 10.5t40.5 31.5v13q0 133 -149 135q-131 0 -149 -102zM444 182v78q-16 -11 -50 -15q-31 -4 -67 -5 q-7 0 -16 -0.5t-14.5 -1t-9.5 -0.5l-38 -4q-25 -2 -39 -6q-46 -13 -59 -30q-23 -25 -23 -61q0 -45 36.5 -74t99.5 -29q72 0 124 40q51 40 56 108zM269 -184v51h58v-51h-58z" />
<glyph unicode="&#xe048;" horiz-adv-x="14" />
<glyph unicode="&#xe049;" horiz-adv-x="575" d="M67 216v484h69v-280q49 97 183 97q107 1 161 -59t54 -179v-63q0 -104 -63 -169q-63 -64 -171 -64t-171 64q-62 65 -62 169zM466 216v63q0 95 -41 138t-125 43q-83 0 -123.5 -43t-40.5 -138v-63q0 -82 43 -129t121 -47t122 47t44 129zM271 -184v51h58v-51h-58z" />
<glyph unicode="&#xe04a;" horiz-adv-x="0" d="M45 -198l93 134h63l93 -134h-54l-71 103l-71 -103h-53z" />
<glyph unicode="&#xe04b;" horiz-adv-x="577" d="M439 421v280h69v-701h-59l-2 85q-57 -101 -184 -101q-100 0 -161 64t-61 170v63q0 119 56.5 178t159.5 59q134 0 182 -97zM439 218v63q0 95 -40.5 138t-123.5 43t-124 -43t-41 -138v-63q0 -82 43.5 -129t121.5 -47t121 47t43 129zM144 -198l93 134h63l93 -134h-53 l-71 103l-72 -103h-53z" />
<glyph unicode="&#xe04c;" horiz-adv-x="577" d="M439 421v280h69v-701h-59l-2 85q-57 -101 -184 -101q-100 0 -161 64t-61 170v63q0 119 56.5 178t159.5 59q134 0 182 -97zM439 218v63q0 95 -40.5 138t-123.5 43t-124 -43t-41 -138v-63q0 -82 43.5 -129t121.5 -47t121 47t43 129zM240 -184v51h57v-51h-57z" />
<glyph unicode="&#xe04d;" horiz-adv-x="577" d="M439 421v280h69v-701h-59l-2 85q-57 -101 -184 -101q-100 0 -161 64t-61 170v63q0 119 56.5 178t159.5 59q134 0 182 -97zM439 218v63q0 95 -40.5 138t-123.5 43t-124 -43t-41 -138v-63q0 -82 43.5 -129t121.5 -47t121 47t43 129zM146 -180v47h243v-47h-243z" />
<glyph unicode="&#xe04e;" horiz-adv-x="600" d="M439 626v75h69v-75h72v-47h-72v-579h-59l-2 85q-57 -101 -184 -101q-100 0 -161 64t-61 170v63q0 119 56.5 178t159.5 59q134 0 182 -97v158h-114v47h114zM439 218v63q0 95 -40.5 138t-123.5 43t-124 -43t-41 -138v-63q0 -82 43.5 -129t121.5 -47t121 47t43 129z" />
<glyph unicode="&#xe04f;" horiz-adv-x="595" d="M61 216v63q0 120 62 179t177 59q92 0 156 -40q63 -38 68 -113q4 -49 -17 -83.5t-60 -51.5t-80.5 -24t-92.5 -7q-63 0 -144 10q1 -84 45 -130.5t125 -46.5q72 0 116 37.5t52 104.5h68q-13 -88 -75.5 -139t-160.5 -51q-110 0 -173.5 64.5t-65.5 168.5zM130 290v-40 q69 -9 123 -9q204 0 204 114q0 9 -1 14q-12 100 -156 100q-84 0 -127 -42t-43 -137z" />
<glyph unicode="&#xe050;" horiz-adv-x="597" d="M176 578l92 134h64l92 -134h-53l-71 103l-71 -103h-53zM61 216v63q0 120 62 179t177 59q116 0 178.5 -59t62.5 -179v-19l-1 -14h-410v-39q0 -82 44.5 -129t125.5 -47q72 0 116 37.5t52 104.5h68q-13 -88 -75.5 -139t-160.5 -51q-110 0 -174 64q-63 63 -65 169zM130 288 h342q0 94 -43 137.5t-129 43.5t-128 -43.5t-42 -137.5zM270 -184v51h58v-51h-58z" />
<glyph unicode="&#xe051;" horiz-adv-x="597" d="M61 216v63q0 120 62 179t177 59q116 0 178.5 -59t62.5 -179v-19l-1 -14h-410v-39q0 -82 44.5 -129t125.5 -47q72 0 116 37.5t52 104.5h68q-13 -88 -75.5 -139t-160.5 -51q-110 0 -173.5 64.5t-65.5 168.5zM130 288h342q0 94 -43 137.5t-129 43.5t-128 -43.5t-42 -137.5z M270 -184v51h58v-51h-58z" />
<glyph unicode="&#xe052;" horiz-adv-x="432" d="M78 296v26q0 49 36 73.5t101 24.5t101 -24.5t36 -73.5v-26q0 -49 -50 -70q70 -22 70 -93v-30q0 -49 -42.5 -79t-114.5 -30q-71 0 -113.5 30t-42.5 79v30q0 71 69 93q-50 21 -50 70zM302 298v25q0 29 -21 41.5t-66 12.5t-65.5 -12.5t-20.5 -41.5v-25q0 -53 86 -53 q87 0 87 53zM321 103v32q0 36 -26 51.5t-80 15.5q-55 0 -80 -15.5t-25 -51.5v-32q0 -31 27.5 -48.5t77.5 -17.5q106 0 106 66z" />
<glyph unicode="&#xe053;" horiz-adv-x="634" d="M92 489v44q0 158 224 158q104 0 164 -38.5t60 -119.5v-44q0 -42 -26.5 -73.5t-74.5 -46.5q135 -33 135 -155v-52q0 -80 -70 -129q-70 -48 -188 -48q-117 0 -188 48q-69 49 -69 129v52q0 122 133 155q-48 15 -74 46.5t-26 73.5zM469 491v42q0 53 -38.5 76t-114.5 23 q-79 0 -116 -23t-37 -76v-42q0 -45 39.5 -70.5t113.5 -25.5q75 0 114 25t39 71zM502 162v54q0 64 -45.5 92.5t-140.5 28.5q-96 0 -140 -28t-44 -93v-54q0 -55 48 -86t136 -31q90 0 138 30.5t48 86.5z" />
<glyph unicode="&#xe054;" horiz-adv-x="432" d="M78 582v27q0 97 137 97q64 0 100.5 -24.5t36.5 -72.5v-27q0 -47 -50 -70q70 -22 70 -92v-31q0 -48 -43 -78.5t-114 -30.5t-113.5 30t-42.5 79v31q0 70 69 92q-50 23 -50 70zM302 584v25q0 55 -87 55q-45 0 -65.5 -13t-20.5 -42v-25q0 -53 86 -53q87 0 87 53zM321 389v32 q0 36 -25.5 51.5t-80.5 15.5t-80 -15.5t-25 -51.5v-32q0 -31 27 -48t78 -17q106 0 106 65z" />
<glyph unicode="&#xe055;" horiz-adv-x="634" d="M92 489v44q0 158 224 158q104 0 164 -38.5t60 -119.5v-44q0 -42 -26.5 -73.5t-74.5 -46.5q135 -33 135 -155v-52q0 -80 -70 -129q-70 -48 -188 -48q-117 0 -188 48q-69 49 -69 129v52q0 122 133 155q-48 15 -74 46.5t-26 73.5zM469 491v42q0 53 -38.5 76t-114.5 23 q-79 0 -116 -23t-37 -76v-42q0 -45 39.5 -70.5t113.5 -25.5q75 0 114 25t39 71zM502 162v54q0 64 -45.5 92.5t-140.5 28.5q-96 0 -140 -28t-44 -93v-54q0 -55 48 -86t136 -31q90 0 138 30.5t48 86.5z" />
<glyph unicode="&#xe056;" horiz-adv-x="612" d="M81 489v44q0 158 223 158q105 0 165 -38.5t60 -119.5v-44q0 -42 -26.5 -73.5t-74.5 -46.5q134 -33 134 -155v-52q0 -81 -69.5 -129t-188.5 -48q-118 0 -187 48q-69 49 -69 129v52q0 122 133 155q-100 31 -100 120zM458 491v42q0 53 -38.5 76t-114.5 23q-79 0 -116 -23 t-37 -76v-42q0 -45 39.5 -70.5t113.5 -25.5q153 0 153 96zM490 162v54q0 64 -45.5 92.5t-140.5 28.5t-139.5 -28.5t-44.5 -92.5v-54q0 -55 48 -86t136 -31q90 0 138 30.5t48 86.5z" />
<glyph unicode="&#xe057;" horiz-adv-x="612" d="M82 489v44q0 158 224 158q104 0 164 -38.5t60 -119.5v-44q0 -42 -26.5 -73.5t-74.5 -46.5q135 -33 135 -155v-52q0 -81 -69.5 -129t-188.5 -48q-118 0 -188 48q-69 49 -69 129v52q0 122 133 155q-48 15 -74 46.5t-26 73.5zM460 491v42q0 53 -39 76t-115 23 q-79 0 -116 -23.5t-37 -75.5v-42q0 -45 40.5 -70.5t112.5 -25.5q76 0 115 25t39 71zM491 162v54q0 64 -45 92.5t-140 28.5q-96 0 -140.5 -28t-44.5 -93v-54q0 -55 48 -86t137 -31q90 0 137.5 30.5t47.5 86.5z" />
<glyph unicode="&#xe058;" horiz-adv-x="597" d="M182 630l-32 19q32 63 81 63q24 1 40 -6q5 -1 31 -12q47 -22 63 -22q11 0 22 8q2 2 4 3.5t3.5 2.5t3 2.5l2.5 2.5t2.5 3t2.5 3t2.5 4t2.5 4.5t3.5 5.5t4.5 6l32 -20q-19 -31 -35 -46t-36 -17q-4 -1 -13 -1q-24 0 -67 18q-2 1 -9 4t-15 6t-10 4q-14 6 -32 6q-28 0 -51 -41 zM61 216v63q0 120 62 179t177 59q116 0 178.5 -59t62.5 -179v-19l-1 -14h-410v-39q0 -82 44.5 -129t125.5 -47q72 0 116 37.5t52 104.5h68q-13 -88 -75.5 -139t-160.5 -51q-110 0 -173.5 64.5t-65.5 168.5zM130 288h342q0 94 -43 137.5t-129 43.5t-128 -43.5t-42 -137.5z " />
<glyph unicode="&#xe059;" horiz-adv-x="874" d="M206 704h63v-46h-40q-25 0 -39.5 -14t-14.5 -40v-104h94v-46h-94v-454h-69v454h-78v46h78v104q0 45 27.5 72.5t72.5 27.5zM366 216v484h68v-280q49 97 183 97q108 1 162 -59t54 -179v-63q0 -104 -63 -169q-63 -64 -171 -64t-171 64q-62 65 -62 169zM764 216v63 q0 95 -41 138t-124 43q-82 0 -123.5 -42t-41.5 -139v-63q0 -82 43 -129t122 -47q78 0 121.5 47t43.5 129z" />
<glyph unicode="&#xe05a;" horiz-adv-x="598" d="M206 704h63v-46h-40q-25 0 -39.5 -14t-14.5 -40v-104h94v-46h-94v-454h-69v454h-78v46h78v104q0 45 27.5 72.5t72.5 27.5zM506 704h63v-46h-41q-25 0 -39.5 -14t-14.5 -40v-104h95v-46h-95v-454h-69v454h-78v46h78v104q0 45 28 72.5t73 27.5z" />
<glyph unicode="&#xe05c;" horiz-adv-x="809" d="M206 704h63v-46h-40q-25 0 -39.5 -14t-14.5 -40v-104h94v-46h-94v-454h-69v454h-78v46h78v104q0 45 27.5 72.5t72.5 27.5zM506 704h63v-46h-41q-25 0 -39.5 -14t-14.5 -40v-104h95v-46h-95v-454h-69v454h-78v46h78v104q0 45 28 72.5t73 27.5zM676 591v113h69v-113h-69z M676 -70v570h69v-583q0 -82 -91 -94q-26 -2 -38 -2h-16v50q25 0 30 1q46 7 46 58z" />
<glyph unicode="&#xe05e;" horiz-adv-x="852" d="M206 704h63v-46h-40q-25 0 -39.5 -14t-14.5 -40v-104h94v-46h-94v-454h-69v454h-78v46h78v104q0 45 27.5 72.5t72.5 27.5zM370 0v700h68v-280q48 97 180 97q97 0 143 -55t46 -177v-285h-68v279q0 99 -31 140t-108 41q-82 0 -122 -43.5t-40 -137.5v-279h-68z" />
<glyph unicode="&#xe05f;" horiz-adv-x="509" d="M206 704h63v-46h-40q-25 0 -39.5 -14t-14.5 -40v-104h94v-46h-94v-454h-69v454h-78v46h78v104q0 45 27.5 72.5t72.5 27.5zM377 591v113h68v-113h-68zM377 -70v570h68v-583q0 -82 -90 -94q-26 -2 -38 -2h-16v50q24 0 30 1q46 7 46 58z" />
<glyph unicode="&#xe060;" horiz-adv-x="835" d="M206 704h63v-46h-40q-25 0 -39.5 -14t-14.5 -40v-104h94v-46h-94v-454h-69v454h-78v46h78v104q0 45 27.5 72.5t72.5 27.5zM370 0v700h69v-435l258 237h86l-216 -197l246 -305h-81l-210 259l-83 -74v-185h-69z" />
<glyph unicode="&#xe061;" horiz-adv-x="400" d="M60 189l45 227h230v-43h-190l-27 -125q34 29 98 29q65 0 102 -31t37 -92v-33q0 -57 -40.5 -92t-108.5 -35q-66 0 -107 35.5t-41 91.5v21h51v-21q0 -39 25 -61.5t72 -22.5t72.5 22t25.5 62v33q0 47 -24.5 67t-73.5 20q-76 0 -94 -52h-52z" />
<glyph unicode="&#xe062;" horiz-adv-x="591" d="M62 313l75 370h375v-60h-318l-54 -246q50 71 177 71q109 0 169.5 -50.5t60.5 -150.5v-56q0 -93 -67 -151q-66 -57 -179 -57q-111 0 -177 57q-66 59 -66 151v29h73v-29q0 -69 44.5 -108.5t125.5 -39.5q83 0 128 39t45 109v56q0 80 -43 116.5t-130 36.5q-130 0 -163 -87 h-76z" />
<glyph unicode="&#xe063;" horiz-adv-x="400" d="M60 473l45 227h230v-43h-189l-28 -125q34 29 98 29q65 0 102 -31t37 -92v-33q0 -57 -40.5 -92t-108.5 -35q-67 0 -107.5 35t-40.5 92v21h51v-21q0 -40 25 -62t72 -22q48 0 73 22t25 62v33q0 87 -98 87q-76 0 -94 -52h-52z" />
<glyph unicode="&#xe064;" horiz-adv-x="591" d="M62 130l75 370h375v-60h-318l-54 -246q50 71 177 71q105 0 167.5 -49.5t62.5 -151.5v-56q0 -93 -67 -150q-65 -58 -179 -58q-110 0 -176.5 58t-66.5 150v29h73v-29q0 -69 44.5 -108.5t125.5 -39.5q83 0 128 39t45 109v56q0 81 -44 117t-129 36q-130 0 -163 -87h-76z" />
<glyph unicode="&#xe065;" horiz-adv-x="612" d="M65 313l74 370h376v-60h-319l-54 -246q50 71 178 71q108 0 168.5 -50.5t60.5 -150.5v-56q0 -93 -66 -151q-66 -57 -179 -57q-111 0 -177 57.5t-66 150.5v29h72v-29q0 -69 45 -108.5t126 -39.5q83 0 128 39t45 109v56q0 153 -173 153q-130 0 -164 -87h-75z" />
<glyph unicode="&#xe066;" horiz-adv-x="612" d="M66 130l75 370h375v-60h-318l-54 -246q50 71 177 71q106 0 168 -49t62 -152v-56q0 -93 -67 -150q-65 -58 -178 -58t-178 58q-66 57 -66 150v29h73v-29q0 -69 45 -108.5t126 -39.5t126.5 39.5t45.5 108.5v56q0 81 -44 117t-128 36q-131 0 -164 -87h-76z" />
<glyph unicode="&#xe067;" horiz-adv-x="390" d="M25 137l203 275h49v-270h72v-43h-72v-99h-48v99h-204v38zM80 142h149v208z" />
<glyph unicode="&#xe068;" horiz-adv-x="599" d="M25 222l339 461h73v-457h120v-60h-120v-166h-68v166h-344v56zM98 226h271v378z" />
<glyph unicode="&#xe069;" horiz-adv-x="390" d="M25 425l203 275h49v-270h72v-44h-72v-98h-48v98h-204v39zM80 430h149v208z" />
<glyph unicode="&#xe06a;" horiz-adv-x="599" d="M25 55l339 462h73v-457h120v-60h-120v-167h-68v167h-344v55zM98 60h271v378z" />
<glyph unicode="&#xe06b;" horiz-adv-x="612" d="M40 222l339 461h72v-457h121v-60h-121v-166h-67v166h-344v56zM113 226h271v378z" />
<glyph unicode="&#xe06c;" horiz-adv-x="612" d="M40 55l338 462h73v-457h120v-60h-120v-167h-68v167h-343v55zM112 60h271v378z" />
<glyph unicode="&#xe06d;" horiz-adv-x="552" d="M71 0v700h68v-280q49 97 181 97q97 0 142.5 -55t45.5 -177v-285h-68v279q0 100 -30.5 140.5t-107.5 40.5q-82 0 -122.5 -43.5t-40.5 -137.5v-279h-68zM241 -184v51h58v-51h-58z" />
<glyph unicode="&#xe06e;" horiz-adv-x="205" d="M106 609l71 103h53l-93 -134h-63l-92 134h53zM71 0v500h69v-500h-69z" />
<glyph unicode="&#xe06f;" horiz-adv-x="205" d="M6 712l114 134h65l-123 -134h-56zM-12 628v51h57v-51h-57zM166 628v51h58v-51h-58zM71 0v500h69v-500h-69z" />
<glyph unicode="&#xe070;" horiz-adv-x="198" d="M70 591v113h69v-113h-69zM70 0v500h69v-500h-69zM76 -184v51h57v-51h-57z" />
<glyph unicode="&#xe071;" horiz-adv-x="833" />
<glyph unicode="&#xe072;" horiz-adv-x="204" d="M72 0v700h69v-700h-69zM-20 -198l92 134h64l92 -134h-53l-71 103l-71 -103h-53z" />
<glyph unicode="&#xe073;" horiz-adv-x="204" d="M71 0v700h69v-700h-69zM74 -184v51h58v-51h-58z" />
<glyph unicode="&#xe074;" horiz-adv-x="0" d="M67 -180v47h243v-47h-243z" />
<glyph unicode="&#xe075;" horiz-adv-x="842" d="M331 578l115 134h65l-123 -134h-57zM70 500h64v-80q43 96 154 97q107 2 140 -83q47 83 163 83q95 0 139 -55t44 -177v-285h-69v280q0 101 -29 142q-28 40 -103 40q-54 -1 -83 -22t-40 -68q6 -41 6 -92v-280h-68v280q0 101 -25.5 141.5t-88.5 40.5q-135 0 -135 -182v-280 h-69v500z" />
<glyph unicode="&#xe076;" horiz-adv-x="198" d="M67 250v126h68v-126h-68z" />
<glyph unicode="&#xe077;" horiz-adv-x="573" d="M70 500h63v-80q48 97 183 97q98 0 144.5 -55.5t46.5 -176.5v-285h-68v279q0 100 -30.5 140.5t-108.5 40.5q-79 0 -120.5 -43t-41.5 -138v-279h-68v500zM168 -198l92 134h64l92 -134h-53l-71 103l-71 -103h-53z" />
<glyph unicode="&#xe078;" horiz-adv-x="573" d="M264 635v50h57v-50h-57zM70 500h63v-80q48 97 183 97q98 0 144.5 -55.5t46.5 -176.5v-285h-68v279q0 100 -31 140.5t-108 40.5q-79 0 -120.5 -43t-41.5 -138v-279h-68v500z" />
<glyph unicode="&#xe079;" horiz-adv-x="573" d="M70 500h63v-80q48 97 183 97q98 0 144.5 -55.5t46.5 -176.5v-285h-68v279q0 100 -30.5 140.5t-108.5 40.5q-79 0 -120.5 -43t-41.5 -138v-279h-68v500zM263 -184v51h58v-51h-58z" />
<glyph unicode="&#xe07a;" horiz-adv-x="422" d="M59 263v31q0 57 41 92t109 35q66 0 107 -35.5t41 -91.5v-166q0 -134 -144 -134q-123 0 -141 104h45q14 -67 95 -65q47 1 70.5 21.5t23.5 66.5v56q-30 -36 -100 -37q-66 0 -106.5 29t-40.5 94zM305 263v31q0 39 -25 61t-71 22q-48 0 -73.5 -22t-25.5 -61v-31q0 -86 99 -86 q49 0 72.5 20.5t23.5 65.5z" />
<glyph unicode="&#xe07b;" horiz-adv-x="613" d="M59 431v52q0 93 66.5 150t179.5 57q111 0 177 -57t66 -150v-280q0 -220 -236 -220q-94 0 -154 41t-75 121h62q27 -110 166 -109q83 1 123.5 37.5t40.5 117.5v119q-41 -80 -175 -80q-108 -2 -174.5 46t-66.5 155zM475 431v52q0 69 -44.5 108.5t-125.5 39.5q-83 0 -128 -39 t-45 -109v-52q0 -80 44 -116.5t129 -36.5q87 0 128.5 36.5t41.5 116.5z" />
<glyph unicode="&#xe07c;" horiz-adv-x="422" d="M59 549v30q0 57 41 92t109 35q66 0 107 -35.5t41 -91.5v-166q0 -67 -37.5 -100.5t-106.5 -33.5q-57 0 -94.5 26t-46.5 78h45q14 -67 95 -65q47 2 70.5 21.5t23.5 66.5v56q-30 -36 -100 -36q-66 -2 -106.5 27.5t-40.5 95.5zM305 549v30q0 39 -25.5 61.5t-70.5 22.5 q-48 0 -73.5 -22t-25.5 -62v-30q0 -87 99 -87q50 0 73 20.5t23 66.5z" />
<glyph unicode="&#xe07d;" horiz-adv-x="613" d="M59 257v52q0 93 66 150q67 57 180 57q111 0 177 -57t66 -150v-280q0 -220 -236 -220q-94 0 -154 41t-75 121h62q25 -112 166 -110q83 2 123.5 38.5t40.5 117.5v119q-41 -80 -175 -80q-108 -2 -174.5 46t-66.5 155zM475 257v52q0 69 -45 108.5t-125 39.5q-83 0 -128 -39 t-45 -109v-52q0 -153 173 -153q87 0 128.5 36.5t41.5 116.5z" />
<glyph unicode="&#xe07e;" horiz-adv-x="612" d="M61 431v52q0 93 66.5 150t178.5 57q111 0 177 -57t66 -150v-280q0 -220 -235 -220q-95 0 -155 41t-75 121h62q27 -110 166 -109q83 1 124 37.5t41 117.5v119q-44 -80 -175 -80q-109 -2 -175 46t-66 155zM477 431v52q0 69 -45 108.5t-126 39.5q-83 0 -128 -39t-45 -109 v-52q0 -153 173 -153q87 0 129 36.5t42 116.5z" />
<glyph unicode="&#xe07f;" horiz-adv-x="612" d="M62 257v52q0 93 66 150q68 57 179 57q112 0 178 -57t66 -150v-280q0 -220 -236 -220q-95 0 -154.5 41t-74.5 121h62q25 -112 166 -110q83 2 123.5 38.5t40.5 117.5v119q-41 -80 -175 -80q-109 -2 -175 46t-66 155zM478 257v52q0 69 -45 108.5t-126 39.5t-126.5 -39.5 t-45.5 -108.5v-52q0 -153 172 -153q87 0 129 36t42 117z" />
<glyph unicode="&#xe080;" horiz-adv-x="599" d="M300 609l71 103h53l-93 -134h-63l-92 134h53zM60 216v63q0 120 62 179t177 59q116 0 178 -59t62 -179v-63q0 -104 -65 -169q-64 -64 -175 -64t-175 64t-64 169zM471 216v63q0 95 -42.5 138t-129.5 43q-85 0 -127.5 -42t-42.5 -139v-63q0 -82 44.5 -129t125.5 -47 t126.5 47t45.5 129z" />
<glyph unicode="&#xe081;" horiz-adv-x="599" d="M176 578l93 134h63l93 -134h-53l-71 103l-71 -103h-54zM60 216v63q0 120 62 179t177 59q116 0 178 -59t62 -179v-63q0 -104 -65 -169q-64 -64 -175 -64t-175 64t-64 169zM471 216v63q0 95 -42.5 138t-129.5 43q-85 0 -127.5 -42t-42.5 -139v-63q0 -82 44.5 -129 t125.5 -47t126.5 47t45.5 129zM271 -184v51h57v-51h-57z" />
<glyph unicode="&#xe082;" horiz-adv-x="599" d="M60 216v63q0 120 62 179t177 59q116 0 178 -59t62 -179v-63q0 -104 -65 -169q-64 -64 -175 -64t-175 64t-64 169zM471 216v63q0 95 -42.5 138t-129.5 43q-85 0 -127.5 -42t-42.5 -139v-63q0 -82 44.5 -129t125.5 -47t126.5 47t45.5 129zM271 -184v51h57v-51h-57z" />
<glyph unicode="&#xe083;" horiz-adv-x="599" d="M60 216v63q0 120 62 179t177 59q116 0 178 -59t62 -179v-63q0 -104 -65 -169q-64 -64 -175 -64t-175 64t-64 169zM471 216v63q0 95 -42.5 138t-129.5 43q-85 0 -127.5 -42t-42.5 -139v-63q0 -82 44.5 -129t125.5 -47t126.5 47t45.5 129zM200 750l114 134h65l-123 -134 h-56zM178 653v47h243v-47h-243z" />
<glyph unicode="&#xe084;" horiz-adv-x="599" d="M60 216v63q0 120 62 179t177 59q116 0 178 -59t62 -179v-63q0 -104 -65 -169q-64 -64 -175 -64t-175 64t-64 169zM471 216v63q0 95 -42.5 138t-129.5 43q-85 0 -127.5 -42t-42.5 -139v-63q0 -82 44.5 -129t125.5 -47t126.5 47t45.5 129zM337 750l-123 134h65l114 -134 h-56zM178 653v47h243v-47h-243z" />
<glyph unicode="&#xe085;" horiz-adv-x="237" d="M125 412h42v-412h-51v349q-38 -37 -102 -51v40q38 9 62 25t49 49z" />
<glyph unicode="&#xe086;" horiz-adv-x="325" d="M193 684h62v-684h-73v603q-60 -70 -172 -98v54q64 15 102 42q41 30 81 83z" />
<glyph unicode="&#xe087;" horiz-adv-x="236" d="M125 700h42v-412h-51v349q-37 -37 -102 -52v41q38 9 62 25t49 49z" />
<glyph unicode="&#xe088;" horiz-adv-x="273" d="M149 500h54v-500h-63v424q-48 -48 -128 -68v51q48 10 77 31q28 19 60 62z" />
<glyph unicode="&#xe089;" horiz-adv-x="424" d="M273 684h62v-684h-72v603q-62 -71 -173 -98v54q64 15 102 42q41 30 81 83z" />
<glyph unicode="&#xe08a;" horiz-adv-x="412" d="M247 500h54v-500h-64v424q-48 -48 -127 -68v51q46 10 77 31q28 19 60 62z" />
<glyph unicode="&#xe08b;" horiz-adv-x="599" d="M200 750l114 134h65l-123 -134h-56zM183 623l-32 19q31 62 81 64q22 0 40 -6q8 -3 31 -13q48 -21 62 -21q12 0 22 7q13 9 32 37l32 -20q-35 -58 -72 -63q-3 -1 -12 -1q-23 0 -67 18q-4 2 -35 14q-14 6 -32 6q-27 0 -50 -41zM60 216v63q0 120 62 179t177 59q116 0 178 -59 t62 -179v-63q0 -104 -65 -169q-64 -64 -175 -64t-175 64.5t-64 168.5zM471 216v63q0 95 -42.5 138t-129.5 43q-85 0 -127.5 -42t-42.5 -139v-63q0 -82 44.5 -129t125.5 -47t126.5 47t45.5 129z" />
<glyph unicode="&#xe08c;" horiz-adv-x="377" d="M67 659v48h243v-48h-243z" />
<glyph unicode="&#xe08d;" horiz-adv-x="536" d="M77 369v14q0 134 189 134q91 0 141 -33t51 -100v-12h-63v12q-1 85 -129 85q-122 0 -124 -81l-1 -12q0 -19 18 -36t48 -26l168 -55q102 -35 102 -122v-6q0 -67 -56.5 -107.5t-154.5 -40.5q-95 0 -151 39t-58 105v28h63v-27q1 -45 39.5 -71.5t106.5 -26.5t106 25t39 67l1 7 q2 56 -65 79l-180 59q-90 30 -90 102zM239 -184v51h57v-51h-57z" />
<glyph unicode="&#xe08e;" horiz-adv-x="309" d="M15 369v44h280v-37q-87 -86 -129 -176t-41 -200h-52q-1 203 161 369h-219z" />
<glyph unicode="&#xe08f;" horiz-adv-x="517" d="M29 624v59h458v-53q-146 -144 -216.5 -295t-70.5 -335h-73q0 344 280 624h-378z" />
<glyph unicode="&#xe090;" horiz-adv-x="309" d="M15 657v43h280v-37q-87 -86 -129 -176t-41 -200h-52q-1 203 161 370h-219z" />
<glyph unicode="&#xe091;" horiz-adv-x="517" d="M29 440v60h458v-53q-141 -138 -215 -291q-72 -151 -72 -340h-73q0 344 280 624h-378z" />
<glyph unicode="&#xe092;" horiz-adv-x="612" d="M76 624v59h458v-53q-92 -91 -155 -184q-132 -197 -132 -446h-73q0 344 280 624h-378z" />
<glyph unicode="&#xe093;" horiz-adv-x="612" d="M77 440v60h459v-53q-141 -138 -215 -291q-73 -150 -73 -340h-73q0 343 281 624h-379z" />
<glyph unicode="&#xe094;" horiz-adv-x="419" d="M64 122l1 169q0 131 143 131q58 0 95 -26t46 -77h-45q-14 66 -95 64q-47 -1 -70 -21t-23 -67v-50q28 37 99 37q68 2 107.5 -29t39.5 -94v-37q0 -56 -41 -91.5t-108 -35.5t-108 35.5t-41 91.5zM311 122v37q0 87 -98 87q-51 0 -74 -20t-23 -67v-37q0 -39 25 -61t72 -22 t72.5 22t25.5 61z" />
<glyph unicode="&#xe095;" horiz-adv-x="611" d="M64 191v285q0 214 236 214q95 0 155 -40.5t75 -120.5h-63q-25 111 -165 109q-82 -1 -123.5 -38t-41.5 -117v-109q44 80 175 81q241 0 241 -202v-62q0 -93 -67 -151q-66 -57 -178 -57q-110 0 -178 57q-66 59 -66 151zM481 191v62q0 81 -44 117t-129 36q-87 0 -129 -36.5 t-42 -116.5v-62q0 -69 45 -108.5t126 -39.5q82 0 127.5 39.5t45.5 108.5z" />
<glyph unicode="&#xe096;" horiz-adv-x="419" d="M64 406l1 169q0 131 143 131q123 0 141 -104h-45q-14 67 -95 65q-47 -1 -70 -21.5t-23 -66.5v-50q28 37 99 37q69 1 108 -29.5t39 -93.5v-37q0 -57 -40.5 -92t-108.5 -35q-67 0 -108 35.5t-41 91.5zM311 406v37q0 87 -98 87q-51 0 -74 -20t-23 -67v-37q0 -39 25 -61 t72 -22t72.5 22t25.5 61z" />
<glyph unicode="&#xe097;" horiz-adv-x="611" d="M64 191v285q0 214 236 214q95 0 155 -40.5t75 -120.5h-63q-25 111 -165 109q-82 -1 -123.5 -38t-41.5 -117v-109q44 80 175 81q241 0 241 -202v-62q0 -93 -67 -151q-66 -57 -178 -57q-110 0 -178 57q-66 59 -66 151zM481 191v62q0 81 -44 117t-129 36q-87 0 -129 -36.5 t-42 -116.5v-62q0 -69 45 -108.5t126 -39.5q82 0 127.5 39.5t45.5 108.5z" />
<glyph unicode="&#xe098;" horiz-adv-x="612" d="M61 191v285q0 214 236 214q94 0 154 -40.5t75 -120.5h-62q-27 110 -166 109q-82 -1 -123.5 -38t-41.5 -117v-109q44 80 175 81q241 0 241 -202v-62q0 -93 -66 -151q-66 -57 -179 -57q-111 0 -177 57q-66 59 -66 151zM477 191v62q0 81 -44 117t-129 36q-86 0 -128.5 -36 t-42.5 -117v-62q0 -69 45 -108.5t126 -39.5q82 0 127.5 39.5t45.5 108.5z" />
<glyph unicode="&#xe099;" horiz-adv-x="612" d="M61 191v285q0 214 236 214q94 0 154 -40.5t75 -120.5h-62q-27 110 -166 109q-82 -1 -123.5 -38t-41.5 -117v-109q43 79 175 81q242 0 242 -202v-62q0 -93 -67 -151q-66 -57 -179 -57q-111 0 -177 57q-66 59 -66 151zM477 191v62q0 81 -44 117t-129 36q-87 0 -129 -36.5 t-42 -116.5v-62q0 -69 45 -108.5t126 -39.5q83 0 128 39t45 109z" />
<glyph unicode="&#xe09a;" horiz-adv-x="302" d="M101 500v114h68v-114h95v-46h-95v-368q0 -23 14 -38t40 -15h41v-47h-63q-1 0 -24 3l-26 -34q12 2 19 2q8 0 13 -1q34 -3 55.5 -20.5t21.5 -46.5q0 -39 -27.5 -58t-69.5 -21h-8q-55 0 -97 17l9 32q39 -15 82 -15q60 2 60 45q0 34 -48 34q-29 -1 -49 -13l-25 18l52 74 q-38 23 -38 75v377h-78v46h78z" />
<glyph unicode="&#xe09b;" horiz-adv-x="302" d="M102 500v114h69v-114h94v-46h-94v-368q0 -23 13.5 -38t39.5 -15h41v-47h-63q-46 0 -73 24t-27 67v377h-78v46h78zM20 -198l93 134h63l93 -134h-53l-71 103l-72 -103h-53z" />
<glyph unicode="&#xe09c;" horiz-adv-x="302" d="M101 500v114h69v-114h94v-46h-94v-368q0 -23 13.5 -38t39.5 -15h41v-47h-63q-46 0 -73 24t-27 67v377h-78v46h78zM115 -184v51h57v-51h-57z" />
<glyph unicode="&#xe09d;" horiz-adv-x="430" d="M127 297h-50v26q0 96 135 96q137 0 137 -96v-30q0 -48 -49 -70q69 -19 69 -92v-29q0 -49 -42 -78.5t-115 -29.5q-71 0 -113 29.5t-42 78.5v32h51v-32q0 -68 104 -68q107 0 107 68v30q0 66 -96 67h-30v39h26q79 0 79 53v32q0 56 -86 56q-85 0 -85 -56v-26z" />
<glyph unicode="&#xe09e;" horiz-adv-x="631" d="M162 496h-73v37q0 158 224 158q107 0 165.5 -39.5t58.5 -118.5v-42q0 -42 -26.5 -74t-73.5 -46q134 -32 134 -155v-54q0 -81 -69.5 -129t-188.5 -48q-118 0 -188 48q-69 49 -69 129v48h73v-48q0 -59 47 -90.5t137 -31.5q186 0 186 122v55q0 119 -168 121h-44v52h36 q68 1 105 27t37 71v45q0 102 -152 102q-78 0 -114.5 -24.5t-36.5 -77.5v-37z" />
<glyph unicode="&#xe09f;" horiz-adv-x="430" d="M127 582h-50v26q0 97 135 97q137 0 137 -97v-30q0 -48 -49 -70q69 -20 69 -92v-29q0 -49 -42 -78.5t-115 -29.5q-71 0 -113 30t-42 78v33h51v-33q0 -68 104 -68q107 0 107 68v30q0 65 -96 67h-30v39h26q79 2 79 53v32q0 57 -86 57q-85 0 -85 -57v-26z" />
<glyph unicode="&#xe0a0;" horiz-adv-x="631" d="M162 321h-73v37q0 158 224 158q107 0 165.5 -39.5t58.5 -118.5v-42q0 -42 -26.5 -73.5t-73.5 -46.5q134 -30 134 -155v-54q0 -81 -69.5 -129t-188.5 -48q-118 0 -188 49q-69 48 -69 128v48h73v-48q0 -59 47 -90.5t137 -31.5q186 0 186 122v56q0 118 -168 121h-44v51h36 q68 1 105 27t37 71v45q0 103 -152 103q-78 0 -114.5 -24.5t-36.5 -78.5v-37z" />
<glyph unicode="&#xe0a1;" horiz-adv-x="612" d="M154 496h-73v37q0 158 224 158q107 0 166 -39.5t59 -118.5v-42q0 -42 -26.5 -74t-74.5 -46q135 -32 135 -155v-54q0 -80 -70 -129q-70 -48 -189 -48q-117 0 -188 48q-69 49 -69 129v48h73v-48q0 -59 47 -90.5t137 -31.5q186 0 186 122v55q0 119 -168 121h-44v52h37 q67 1 104 27t37 71v45q0 102 -152 102q-78 0 -114.5 -24.5t-36.5 -77.5v-37z" />
<glyph unicode="&#xe0a2;" horiz-adv-x="612" d="M155 321h-73v37q0 158 224 158q107 0 165.5 -39.5t58.5 -118.5v-42q0 -42 -26.5 -73.5t-73.5 -46.5q134 -32 134 -155v-54q0 -81 -69.5 -129t-188.5 -48q-118 0 -187.5 48.5t-69.5 128.5v48h73v-48q0 -59 47 -90.5t137 -31.5q186 0 186 122v56q0 118 -168 121h-44v51h36 q68 1 105 27t37 71v45q0 103 -152 103q-78 0 -114.5 -24.5t-36.5 -78.5v-37z" />
<glyph unicode="&#xe0a3;" horiz-adv-x="302" d="M102 500v114h69v-114h94v-46h-94v-368q0 -23 13.5 -38t39.5 -15h41v-47h-63q-46 0 -73 24t-27 67v377h-78v46h78zM22 -180v47h243v-47h-243z" />
<glyph unicode="&#xe0a4;" horiz-adv-x="392" d="M123 286h-49v34q0 48 34.5 73t97.5 25q138 0 138 -98v-21q0 -41 -24.5 -73.5t-79.5 -71.5q-39 -27 -51 -37q-46 -34 -64 -72h219v-45h-285q4 47 28 85q9 15 30 33l34 28q16 12 43 30q30 20 51 38q49 43 49 85v21q0 56 -88 56q-83 0 -83 -56v-34z" />
<glyph unicode="&#xe0a5;" horiz-adv-x="569" d="M134 483h-71v49q0 79 56.5 119t161.5 40q227 0 227 -159v-32q0 -76 -55 -137q-29 -31 -54 -54q-17 -15 -67 -52l-65 -48l-53 -44q-55 -48 -78 -104h372v-61h-467q6 84 54 145q35 43 72 71q28 23 42 32l48 32q4 4 8 6l66 49q24 18 52 48q54 54 54 117v32q0 103 -156 103 q-147 0 -147 -103v-49z" />
<glyph unicode="&#xe0a6;" horiz-adv-x="392" d="M123 574h-49v34q0 97 132 97q138 0 138 -97v-21q0 -40 -24.5 -72.5t-79.5 -73.5q-39 -27 -51 -37q-46 -32 -64 -72h219v-44h-285q-1 47 41 101q6 8 28 27q12 10 30 23l36 25q30 20 51 38q49 43 49 85v21q0 56 -88 56q-83 0 -83 -56v-34z" />
<glyph unicode="&#xe0a7;" horiz-adv-x="460" d="M120 356h-62v36q0 61 44 92.5t123 31.5q83 0 128.5 -31t45.5 -93v-15q0 -51 -32 -92.5t-102 -93.5q-61 -43 -91 -72t-42 -62h267v-57h-358q9 79 42 117l25 28q7 8 32 28l33 24q5 4 37 26q52 35 87 70q40 40 40 84v15q0 72 -111 72q-106 0 -106 -72v-36z" />
<glyph unicode="&#xe0a8;" horiz-adv-x="612" d="M166 483h-71v49q0 79 56.5 119t161.5 40q227 0 227 -159v-32q0 -76 -55 -137q-42 -46 -121 -106l-65 -48l-53 -44q-59 -52 -78 -104h372v-61h-468q9 89 55 145q35 43 72 71q28 23 42 32l48 32q4 4 8 6l66 49q24 18 52 48q54 54 54 117v32q0 103 -156 103 q-147 0 -147 -103v-49z" />
<glyph unicode="&#xe0a9;" horiz-adv-x="500" d="M150 356h-61v36q0 61 44 92.5t123 31.5q83 0 128 -31t45 -93v-15q0 -52 -32 -93.5t-101 -92.5q-62 -43 -92 -72t-41 -62h266v-57h-358q7 45 15 69.5t28 47.5l25 28q7 8 32 28q20 16 32 24l38 26q54 38 87 70q40 40 40 84v15q0 72 -112 72q-106 0 -106 -72v-36z" />
<glyph unicode="&#xe0aa;" horiz-adv-x="572" d="M285 609l71 103h53l-92 -134h-64l-92 134h53zM435 221v279h68v-500h-63v80q-48 -97 -185 -97q-97 0 -143 53t-46 169v295h68v-279q0 -100 31 -140.5t108 -40.5q162 0 162 181z" />
<glyph unicode="&#xe0ab;" horiz-adv-x="572" d="M185 725l114 134h65l-123 -134h-56zM167 628v51h58v-51h-58zM345 628v51h58v-51h-58zM435 221v279h68v-500h-63v80q-48 -97 -185 -97q-97 0 -143 53t-46 169v295h68v-279q0 -100 31 -140.5t108 -40.5q162 0 162 181z" />
<glyph unicode="&#xe0ac;" horiz-adv-x="572" d="M285 755l71 104h53l-92 -134h-64l-92 134h53zM167 628v51h58v-51h-58zM345 628v51h58v-51h-58zM435 221v279h68v-500h-63v80q-48 -97 -185 -97q-97 0 -143 53t-46 169v295h68v-279q0 -100 31 -140.5t108 -40.5q162 0 162 181z" />
<glyph unicode="&#xe0ad;" horiz-adv-x="572" d="M322 725l-123 134h65l114 -134h-56zM167 628v51h58v-51h-58zM345 628v51h58v-51h-58zM435 221v279h68v-500h-63v80q-48 -97 -185 -97q-97 0 -143 53t-46 169v295h68v-279q0 -100 31 -140.5t108 -40.5q162 0 162 181z" />
<glyph unicode="&#xe0ae;" horiz-adv-x="572" d="M164 735v47h242v-47h-242zM167 628v51h58v-51h-58zM345 628v51h58v-51h-58zM435 221v279h68v-500h-63v80q-48 -97 -185 -97q-97 0 -143 53t-46 169v295h68v-279q0 -100 31 -140.5t108 -40.5q162 0 162 181z" />
<glyph unicode="&#xe0af;" horiz-adv-x="572" d="M435 221v279h68v-500h-63v80q-48 -97 -185 -97q-97 0 -143 53t-46 169v295h68v-279q0 -100 31 -140.5t108 -40.5q162 0 162 181zM260 -184v51h58v-51h-58z" />
<glyph unicode="&#xe0b0;" horiz-adv-x="452" d="M43 445v55h367v-41l-282 -404h287v-55h-377v41l282 404h-277zM203 -184v51h58v-51h-58z" />
<glyph unicode="&#xe0b1;" horiz-adv-x="435" d="M61 178v55q0 94 40.5 141t116.5 47q74 0 115 -47t41 -141v-55q0 -83 -42.5 -133.5t-114.5 -50.5q-71 0 -113.5 51.5t-42.5 132.5zM323 176v57q0 77 -26 111t-80 34q-53 0 -78.5 -34t-25.5 -111v-57q0 -66 27.5 -102.5t77.5 -36.5t77.5 36.5t27.5 102.5z" />
<glyph unicode="&#xe0b2;" horiz-adv-x="637" d="M61 287v93q0 311 257 311q258 0 258 -311v-93q0 -136 -69 -220q-67 -84 -189 -84q-120 0 -189 84q-68 85 -68 220zM503 284v96q0 135 -46.5 193.5t-138.5 58.5t-138 -60t-46 -192v-96q0 -112 49 -176.5t135 -64.5q87 0 136 64.5t49 176.5z" />
<glyph unicode="&#xe0b3;" horiz-adv-x="435" d="M61 463v55q0 94 40.5 141t116.5 47q74 0 115 -47t41 -141v-55q0 -83 -42.5 -133.5t-114.5 -50.5t-114 51t-42 133zM323 461v57q0 77 -26 111t-80 34q-53 0 -78.5 -34t-25.5 -111v-57q0 -66 27.5 -102.5t77.5 -36.5t77.5 36.5t27.5 102.5z" />
<glyph unicode="&#xe0b4;" horiz-adv-x="516" d="M61 215l1 65q0 119 51 178t145 59q93 0 145 -58.5t52 -178.5v-65q0 -102 -53 -167t-144 -65t-144 65t-53 167zM390 213v67q0 95 -32.5 138t-99.5 43q-66 0 -98.5 -43t-32.5 -138v-67q0 -81 34.5 -127.5t96.5 -46.5q63 0 97.5 46.5t34.5 127.5z" />
<glyph unicode="&#xe0b5;" horiz-adv-x="612" d="M48 287v93q0 311 257 311t257 -311v-93q0 -136 -69 -220q-67 -84 -188 -84q-119 -1 -189 84.5t-68 219.5zM490 284v96q0 134 -47 193t-138 59q-93 0 -139 -60t-46 -192v-96q0 -112 49 -176.5t136 -64.5t136 64.5t49 176.5z" />
<glyph unicode="&#xe0b6;" horiz-adv-x="500" d="M53 215v65q0 119 51 178t145 59q93 0 145 -58.5t52 -178.5v-65q0 -102 -53 -167t-144 -65t-144 65q-52 64 -52 167zM381 213v67q0 95 -32.5 138t-99.5 43q-66 0 -98.5 -43t-32.5 -138v-67q0 -81 34.5 -127.5t96.5 -46.5q63 0 97.5 46.5t34.5 127.5z" />
<glyph unicode="&#xf6c3;" horiz-adv-x="0" d="M66 -133v70h57v-70q0 -34 -21.5 -57.5t-62.5 -29.5v35q27 17 27 52z" />
</font>
</defs>
</svg>
